<svg height="90" version="1.1" width="110" xmlns="http://www.w3.org/2000/svg" style="overflow: hidden; position: relative; left: -0.125px;">
  <rect x="5" y="5" width="100" height="80" r="5" rx="5" ry="5" fill="#ffffff" stroke="#333333" stroke-width="2" stroke-linecap="round" stroke-linejoin="round" stroke-opacity="1" style="stroke-linecap: round; stroke-linejoin: round; stroke-opacity: 1;"></rect>
  <rect x="49" y="73" width="12" height="12" r="0" rx="0" ry="0" fill="#ffffff" stroke="#333333" stroke-width="2" stroke-linecap="round" stroke-linejoin="round" stroke-opacity="1" style="stroke-linecap: round; stroke-linejoin: round; stroke-opacity: 1;"></rect>
  <path fill="none" stroke="#333333" d="M50,71V77M47,74H53" stroke-width="2" stroke-linecap="round" stroke-linejoin="round" stroke-opacity="1" transform="matrix(1,0,0,1,5,5)" style="stroke-linecap: round; stroke-linejoin: round; stroke-opacity: 1;"></path>
  <path fill="#333333" stroke="#333333" d="m65,75 m 0.84461,2.64411 c 1.05533,-1.23780996 2.64337,-2.07882 4.29653,-1.97997996 2.05163,0.0805 3.85579,1.15803 5.76082,1.79107 1.06385,0.34139996 2.24454,0.1438 3.18759,-0.43767 0.61743,-0.33642 1.2775,-0.64078 1.7542,-1.17511 0,0.56023 0,1.12046 0,1.6807 -0.98706,0.96237996 -2.29792,1.62393996 -3.6918,1.66181996 -1.24459,0.0927 -2.46671,-0.2491 -3.59505,-0.74812 -1.35789,-0.55965 -2.75133,-1.33436996 -4.27027,-1.18121996 -1.37741,0.14601 -2.41842,1.13685996 -3.44288,1.96782996 z"
        stroke-width="1" stroke-linecap="round" stroke-linejoin="round" stroke-opacity="1" style="stroke-linecap: round; stroke-linejoin: round; stroke-opacity: 1;" />
  <text x="55" y="45" text-anchor="middle" font="10px &quot;Arial&quot;" stroke="none" fill="#333333" style="text-anchor: middle; font-style: normal; font-variant: normal; font-weight: normal; font-stretch: normal; font-size: 12px; line-height: normal; font-family: Arial, Helvetica, sans-serif;" font-size="12px" font-family="Arial, Helvetica, sans-serif">
    <tspan dy="-3.1953125">Ad-Hoc</tspan>
    <tspan dy="14.399999999999999" x="55">Subprocess</tspan>
  </text>
</svg>