<svg height="60" version="1.1" width="60" xmlns="http://www.w3.org/2000/svg" style="overflow: hidden; position: relative; left: -0.875px;">
  <path fill="#ffffff" stroke="#333333" d="M5,25L25,5L45,25L25,45L5,25" stroke-width="2" stroke-linecap="round" stroke-linejoin="round" stroke-opacity="1" style="stroke-linecap: round; stroke-linejoin: round; stroke-opacity: 1;"></path>
  <text x="1" y="55" text-anchor="start" font="10px &quot;Arial&quot;" stroke="none" fill="#333333" style="text-anchor: start; font-style: normal; font-variant: normal; font-weight: normal; font-stretch: normal; font-size: 12px; line-height: normal; font-family: Arial, Helvetica, sans-serif;" font-size="12px" font-family="Arial, Helvetica, sans-serif">
    <tspan dy="4">Complex</tspan>
  </text>
  <g transform="scale(0.75) translate(7.5, 7.5)">
    <path d="m 23,13 0,7.116788321167883 -5.018248175182482,-5.018248175182482 -3.102189781021898,3.102189781021898 5.018248175182482,5.018248175182482 -7.116788321167883,0 0,4.37956204379562 7.116788321167883,0  -5.018248175182482,5.018248175182482 l 3.102189781021898,3.102189781021898 5.018248175182482,-5.018248175182482 0,7.116788321167883 4.37956204379562,0 0,-7.116788321167883 5.018248175182482,5.018248175182482 3.102189781021898,-3.102189781021898 -5.018248175182482,-5.018248175182482 7.116788321167883,0 0,-4.37956204379562 -7.116788321167883,0 5.018248175182482,-5.018248175182482 -3.102189781021898,-3.102189781021898 -5.018248175182482,5.018248175182482 0,-7.116788321167883 -4.37956204379562,0 z" style="fill: black; stroke-width: 1px; stroke: black;"></path>
  </g>
</svg>