<?xml version="1.0" encoding="UTF-8" standalone="no"?>
<!-- Generator: Adobe Illustrator 26.4.1, SVG Export Plug-In . SVG Version: 6.00 Build 0)  -->

<svg
   version="1.1"
   id="uuid-bd21df75-a1bd-42f1-9edc-5481732f1cf4"
   x="0px"
   y="0px"
   viewBox="0 0 64 64"
   xml:space="preserve"
   sodipodi:docname="cluster-orchestration.svg"
   inkscape:version="1.2.2 (b0a8486541, 2022-12-01)"
   width="64"
   height="64"
   xmlns:inkscape="http://www.inkscape.org/namespaces/inkscape"
   xmlns:sodipodi="http://sodipodi.sourceforge.net/DTD/sodipodi-0.dtd"
   xmlns="http://www.w3.org/2000/svg"
   xmlns:svg="http://www.w3.org/2000/svg"><defs
   id="defs7" /><sodipodi:namedview
   id="namedview5"
   pagecolor="#ffffff"
   bordercolor="#000000"
   borderopacity="0.25"
   inkscape:showpageshadow="2"
   inkscape:pageopacity="0.0"
   inkscape:pagecheckerboard="0"
   inkscape:deskcolor="#d1d1d1"
   showgrid="false"
   inkscape:zoom="5.3333334"
   inkscape:cx="6.4758969"
   inkscape:cy="37.955261"
   inkscape:window-width="1920"
   inkscape:window-height="1048"
   inkscape:window-x="0"
   inkscape:window-y="0"
   inkscape:window-maximized="1"
   inkscape:current-layer="g975"
   inkscape:lockguides="true"
   inkscape:rotation="1" />
<g
   id="g975"
   transform="matrix(0.18079096,0,0,0.18079096,-0.0903954,8e-8)"><path
     id="path2"
     style="fill:#fd5d0d;fill-opacity:1;stroke-width:0.911662"
     d="m 145.76758,51.728516 c -0.14635,0.49712 0.33333,1.468778 -0.28144,1.610832 -7.57274,1.98666 -14.99072,4.578081 -22.10137,7.859871 -0.88572,0.420964 -2.0254,0.946064 -2.99537,1.433651 -2.39262,1.161322 -4.91834,2.551258 -7.33081,3.888614 -8.33463,-8.334635 -16.669267,-16.66927 -25.003902,-25.003906 -15.156251,14.899089 -30.3125,29.798177 -45.46875,44.697266 8.331371,8.361336 16.662814,16.722606 24.99414,25.083986 -4.29576,7.37513 -8.021229,15.09892 -10.828125,23.16601 -0.254368,0.74683 -0.612162,1.77319 -0.88398,2.63647 -0.711192,2.15824 -1.316875,4.3488 -1.940239,6.53346 -12.082679,-0.0605 -24.165365,-0.1197 -36.248046,-0.17969 -10e-7,21.18489 0,42.36979 0,63.55469 11.93815,0.0599 23.876304,0.1194 35.814453,0.17968 2.750262,10.72815 6.87708,21.10333 12.318235,30.75222 0.346306,0.62207 0.694027,1.24335 1.04114,1.86497 -8.789927,8.63714 -17.577986,17.27618 -26.367188,25.91406 14.983724,15.06966 29.967448,30.13933 44.951172,45.20899 8.791517,-8.64143 17.58426,-17.28161 26.375,-25.92383 1.32329,0.74751 2.63844,1.52611 3.89234,2.21064 9.06746,5.00053 18.81238,8.70426 28.78735,11.43975 0,12.56966 0,25.13932 0,37.70898 21.30599,0 42.61198,0 63.91797,0 0,-12.42382 0,-24.84765 0,-37.27148 10.98635,-2.81515 21.60374,-7.05677 31.48632,-12.62305 0.52907,-0.12913 1.16737,-1.04227 1.59469,-0.44112 8.6988,8.63541 17.39361,17.27486 26.09086,25.91183 15.1556,-14.8698 30.3112,-29.73959 45.4668,-44.60938 -8.79066,-8.78876 -17.57888,-17.57998 -26.3711,-26.36719 4.65588,-7.77626 8.45887,-16.05646 11.32062,-24.65653 0.86949,-2.56059 1.60911,-5.16208 2.3454,-7.76339 12.32552,0.0304 24.65104,0.0598 36.97656,0.0899 0,-21.1849 0,-42.3698 0,-63.55469 -12.17903,-0.03 -24.35807,-0.0595 -36.53711,-0.0899 -0.83886,-3.09305 -1.71441,-6.17723 -2.75,-9.21093 -0.32866,-0.95668 -0.75008,-2.17162 -1.14037,-3.21741 -0.88914,-2.41864 -1.89155,-4.87401 -2.89451,-7.14878 -1.93934,-4.44033 -4.18451,-8.73965 -6.5784,-12.95022 8.60602,-8.48511 17.21085,-16.971444 25.81641,-25.457031 C 298.22396,71.935547 283.21159,56.865234 268.19922,41.794922 259.593,50.279848 250.98759,58.765595 242.38086,67.25 c -7.9428,-4.542177 -16.23796,-8.521117 -24.95094,-11.355062 -2.52511,-0.846548 -5.08978,-1.56498 -7.65453,-2.279704 0.0297,-11.993488 0.0585,-23.986979 0.0879,-35.980468 -21.42252,0 -42.84505,0 -64.26758,0 0.0573,11.364583 0.11459,22.729166 0.17188,34.09375 z M 177.5,85.566406 c 15.05058,-0.0186 30.09206,3.735567 43.33516,10.895602 16.8071,9.027442 30.65059,23.450202 38.95437,40.628802 7.01005,14.3664 10.06562,30.60101 8.90468,46.53585 -1.1475,16.48284 -6.91219,32.6055 -16.46606,46.08528 -10.53733,14.952 -25.64466,26.64125 -42.8053,32.99418 -20.04922,7.50764 -42.74908,7.63003 -62.88207,0.35304 C 129.22442,256.86907 113.91921,245.2665 103.21052,230.32422 93.533285,216.91379 87.636758,200.82013 86.358115,184.33207 85.081063,168.43224 87.995831,152.20151 94.870635,137.798 103.2704,120.03032 117.57781,105.13681 134.99128,96.026462 148.03349,89.139291 162.75633,85.553423 177.5,85.566406 Z" /></g>
<path
   id="path981"
   style="fill:#fd5d0d;fill-opacity:1;stroke-width:0.16482"
   d="m 26.263064,9.3520479 c -0.02646,0.089875 0.06026,0.2655418 -0.05088,0.2912238 -1.369083,0.3591703 -2.710187,0.8276763 -3.995728,1.4209943 -0.16013,0.07611 -0.366174,0.171039 -0.541536,0.259191 -0.432564,0.209956 -0.889191,0.461244 -1.325344,0.703026 -1.506826,-1.506827 -3.013653,-3.0136536 -4.520479,-4.5204804 -2.740114,2.6936204 -5.480226,5.3872414 -8.2203401,8.0808614 1.5062366,1.511654 3.0124871,3.023296 4.5187151,4.534958 -0.776634,1.333357 -1.450166,2.729749 -1.957627,4.188206 -0.04599,0.13502 -0.110673,0.320576 -0.159816,0.476649 -0.1285773,0.390191 -0.2380793,0.786224 -0.3507779,1.181191 -2.1844391,-0.01094 -4.3688795,-0.02164 -6.553319,-0.03249 -2e-7,3.830036 0,7.660075 0,11.490113 2.1583096,0.01083 4.3166199,0.02159 6.4749293,0.03249 0.4972236,1.939552 1.2433146,3.815291 2.2270266,5.559723 0.06261,0.112465 0.125473,0.224786 0.188228,0.33717 -1.589139,1.561516 -3.1779413,3.123377 -4.7669496,4.685027 2.7089219,2.724459 5.4178446,5.448919 8.1267666,8.173377 1.589426,-1.562292 3.179075,-3.124359 4.768361,-4.686794 0.239239,0.135143 0.477006,0.275907 0.7037,0.399664 1.639315,0.90405 3.401108,1.573651 5.204493,2.068203 0,2.272481 0,4.544962 0,6.817443 3.85193,0 7.703861,0 11.555791,0 0,-2.246115 0,-4.492231 0,-6.738347 1.986233,-0.508953 3.905761,-1.2758 5.692442,-2.282133 0.09565,-0.02335 0.21105,-0.188433 0.288305,-0.07975 1.572665,1.561204 3.144608,3.123139 4.716992,4.684625 2.739996,-2.688325 5.479991,-5.376649 8.219987,-8.064973 -1.589272,-1.588928 -3.178103,-3.178301 -4.767657,-4.766949 0.841741,-1.405878 1.529287,-2.902863 2.046666,-4.457678 0.157196,-0.462932 0.290912,-0.933257 0.424027,-1.403551 2.228342,0.0055 4.456685,0.01081 6.685028,0.01625 0,-3.830038 0,-7.660076 0,-11.490113 -2.201859,-0.0054 -4.403719,-0.01076 -6.60558,-0.01625 -0.151658,-0.559196 -0.309949,-1.116787 -0.497175,-1.665253 -0.05942,-0.172959 -0.135607,-0.392609 -0.206168,-0.581679 -0.160749,-0.437268 -0.341975,-0.881177 -0.523301,-1.292434 -0.350616,-0.802772 -0.756522,-1.58005 -1.189316,-2.341283 1.555891,-1.534031 3.111566,-3.068284 4.667374,-4.602401 C 53.825799,13.005297 51.111698,10.28072 48.397597,7.5561439 46.841671,9.0901418 45.28589,10.624288 43.729871,12.158192 42.293885,11.337008 40.794195,10.617651 39.218967,10.1053 38.76245,9.9522511 38.298781,9.8223651 37.835097,9.6931494 c 0.0054,-2.1683142 0.01058,-4.3366289 0.01589,-6.5049433 -3.872998,0 -7.745998,0 -11.618998,0 0.01036,2.0546138 0.02072,4.1092277 0.03108,6.1638418 z m 5.736934,6.1175851 c 2.721009,-0.0034 5.440373,0.675356 7.834606,1.969826 3.038571,1.63208 5.541349,4.239585 7.042598,7.34532 1.267353,2.597315 1.819773,5.532386 1.609885,8.413261 -0.207457,2.979949 -1.249661,5.89478 -2.976915,8.331802 -1.905054,2.703187 -4.636322,4.816497 -7.738811,5.96505 -3.624718,1.357313 -7.728647,1.37944 -11.36851,0.06383 -3.130641,-1.119112 -5.897685,-3.216752 -7.833719,-5.918181 -1.749557,-2.424485 -2.815595,-5.334073 -3.046762,-8.314965 -0.23088,-2.874546 0.296084,-5.808915 1.538986,-8.412939 1.518602,-3.212236 4.105252,-5.904848 7.25345,-7.551917 2.357914,-1.245138 5.01967,-1.893431 7.685192,-1.891083 z" /></svg>
