<?xml version="1.0" encoding="UTF-8" standalone="no"?>
<!-- Generator: Adobe Illustrator 26.4.1, SVG Export Plug-In . SVG Version: 6.00 Build 0)  -->

<svg
   version="1.1"
   id="uuid-bd21df75-a1bd-42f1-9edc-5481732f1cf4"
   x="0px"
   y="0px"
   viewBox="0 0 355 354"
   style="enable-background:new 0 0 355 354;"
   xml:space="preserve"
   sodipodi:docname="cluster-orchestration.svg"
   inkscape:version="1.2.2 (b0a8486541, 2022-12-01)"
   xmlns:inkscape="http://www.inkscape.org/namespaces/inkscape"
   xmlns:sodipodi="http://sodipodi.sourceforge.net/DTD/sodipodi-0.dtd"
   xmlns="http://www.w3.org/2000/svg"
   xmlns:svg="http://www.w3.org/2000/svg"><defs
   id="defs7" /><sodipodi:namedview
   id="namedview5"
   pagecolor="#ffffff"
   bordercolor="#000000"
   borderopacity="0.25"
   inkscape:showpageshadow="2"
   inkscape:pageopacity="0.0"
   inkscape:pagecheckerboard="0"
   inkscape:deskcolor="#d1d1d1"
   showgrid="false"
   inkscape:zoom="0.66666667"
   inkscape:cx="177"
   inkscape:cy="177"
   inkscape:window-width="1680"
   inkscape:window-height="1018"
   inkscape:window-x="0"
   inkscape:window-y="0"
   inkscape:window-maximized="1"
   inkscape:current-layer="uuid-bd21df75-a1bd-42f1-9edc-5481732f1cf4" />
<path
   id="path2"
   style="fill:#fd5d0d;fill-opacity:1;stroke-width:0.911662"
   d="m 145.76758,51.728516 c -0.14635,0.49712 0.33333,1.468778 -0.28144,1.610832 -7.57274,1.98666 -14.99072,4.578081 -22.10137,7.859871 -0.88572,0.420964 -2.0254,0.946064 -2.99537,1.433651 -2.39262,1.161322 -4.91834,2.551258 -7.33081,3.888614 -8.33463,-8.334635 -16.669267,-16.66927 -25.003902,-25.003906 -15.156251,14.899089 -30.3125,29.798177 -45.46875,44.697266 8.331371,8.361336 16.662814,16.722606 24.99414,25.083986 -4.29576,7.37513 -8.021229,15.09892 -10.828125,23.16601 -0.254368,0.74683 -0.612162,1.77319 -0.88398,2.63647 -0.711192,2.15824 -1.316875,4.3488 -1.940239,6.53346 -12.082679,-0.0605 -24.165365,-0.1197 -36.248046,-0.17969 -10e-7,21.18489 0,42.36979 0,63.55469 11.93815,0.0599 23.876304,0.1194 35.814453,0.17968 2.750262,10.72815 6.87708,21.10333 12.318235,30.75222 0.346306,0.62207 0.694027,1.24335 1.04114,1.86497 -8.789927,8.63714 -17.577986,17.27618 -26.367188,25.91406 14.983724,15.06966 29.967448,30.13933 44.951172,45.20899 8.791517,-8.64143 17.58426,-17.28161 26.375,-25.92383 1.32329,0.74751 2.63844,1.52611 3.89234,2.21064 9.06746,5.00053 18.81238,8.70426 28.78735,11.43975 0,12.56966 0,25.13932 0,37.70898 21.30599,0 42.61198,0 63.91797,0 0,-12.42382 0,-24.84765 0,-37.27148 10.98635,-2.81515 21.60374,-7.05677 31.48632,-12.62305 0.52907,-0.12913 1.16737,-1.04227 1.59469,-0.44112 8.6988,8.63541 17.39361,17.27486 26.09086,25.91183 15.1556,-14.8698 30.3112,-29.73959 45.4668,-44.60938 -8.79066,-8.78876 -17.57888,-17.57998 -26.3711,-26.36719 4.65588,-7.77626 8.45887,-16.05646 11.32062,-24.65653 0.86949,-2.56059 1.60911,-5.16208 2.3454,-7.76339 12.32552,0.0304 24.65104,0.0598 36.97656,0.0899 0,-21.1849 0,-42.3698 0,-63.55469 -12.17903,-0.03 -24.35807,-0.0595 -36.53711,-0.0899 -0.83886,-3.09305 -1.71441,-6.17723 -2.75,-9.21093 -0.32866,-0.95668 -0.75008,-2.17162 -1.14037,-3.21741 -0.88914,-2.41864 -1.89155,-4.87401 -2.89451,-7.14878 -1.93934,-4.44033 -4.18451,-8.73965 -6.5784,-12.95022 8.60602,-8.48511 17.21085,-16.971444 25.81641,-25.457031 C 298.22396,71.935547 283.21159,56.865234 268.19922,41.794922 259.593,50.279848 250.98759,58.765595 242.38086,67.25 c -7.9428,-4.542177 -16.23796,-8.521117 -24.95094,-11.355062 -2.52511,-0.846548 -5.08978,-1.56498 -7.65453,-2.279704 0.0297,-11.993488 0.0585,-23.986979 0.0879,-35.980468 -21.42252,0 -42.84505,0 -64.26758,0 0.0573,11.364583 0.11459,22.729166 0.17188,34.09375 z M 177.5,85.566406 c 15.05058,-0.0186 30.09206,3.735567 43.33516,10.895602 16.8071,9.027442 30.65059,23.450202 38.95437,40.628802 7.01005,14.3664 10.06562,30.60101 8.90468,46.53585 -1.1475,16.48284 -6.91219,32.6055 -16.46606,46.08528 -10.53733,14.952 -25.64466,26.64125 -42.8053,32.99418 -20.04922,7.50764 -42.74908,7.63003 -62.88207,0.35304 C 129.22442,256.86907 113.91921,245.2665 103.21052,230.32422 93.533285,216.91379 87.636758,200.82013 86.358115,184.33207 85.081063,168.43224 87.995831,152.20151 94.870635,137.798 103.2704,120.03032 117.57781,105.13681 134.99128,96.026462 148.03349,89.139291 162.75633,85.553423 177.5,85.566406 Z" />
</svg>
