<?xml version="1.0" encoding="UTF-8" standalone="no"?>
<!-- Generator: Adobe Illustrator 26.4.1, SVG Export Plug-In . SVG Version: 6.00 Build 0)  -->

<svg
   version="1.1"
   id="uuid-93a4e373-fdd6-442a-9c21-70aae4a070f6"
   x="0px"
   y="0px"
   viewBox="0 0 414.7 401.8"
   style="enable-background:new 0 0 414.7 401.8;"
   xml:space="preserve"
   sodipodi:docname="cluster-management.svg"
   inkscape:version="1.2.2 (b0a8486541, 2022-12-01)"
   xmlns:inkscape="http://www.inkscape.org/namespaces/inkscape"
   xmlns:sodipodi="http://sodipodi.sourceforge.net/DTD/sodipodi-0.dtd"
   xmlns="http://www.w3.org/2000/svg"
   xmlns:svg="http://www.w3.org/2000/svg"><defs
   id="defs19" /><sodipodi:namedview
   id="namedview17"
   pagecolor="#ffffff"
   bordercolor="#000000"
   borderopacity="0.25"
   inkscape:showpageshadow="2"
   inkscape:pageopacity="0.0"
   inkscape:pagecheckerboard="0"
   inkscape:deskcolor="#d1d1d1"
   showgrid="false"
   inkscape:zoom="0.58735691"
   inkscape:cx="206.00762"
   inkscape:cy="200.89999"
   inkscape:window-width="1680"
   inkscape:window-height="1018"
   inkscape:window-x="0"
   inkscape:window-y="0"
   inkscape:window-maximized="1"
   inkscape:current-layer="uuid-93a4e373-fdd6-442a-9c21-70aae4a070f6" />
<circle
   cx="213.8"
   cy="147.8"
   r="36.7"
   id="circle2"
   style="fill:#fd5d0d;fill-opacity:1" />
<polygon
   points="169.5,290.7 169.5,217.7 180.7,202.5 246.9,202.5 258,217.7 258,217.7 258,290.7 "
   id="polygon4"
   style="fill:#fd5d0d;fill-opacity:1" />
<ellipse
   transform="matrix(0.1602 -0.9871 0.9871 0.1602 148.8375 237.1409)"
   cx="213.8"
   cy="31.1"
   rx="31.1"
   ry="31.1"
   id="ellipse6"
   style="fill:#fd5d0d;fill-opacity:1" />
<ellipse
   transform="matrix(7.088905e-02 -0.9975 0.9975 7.088905e-02 -171.1364 557.6614)"
   cx="213.8"
   cy="370.7"
   rx="31.1"
   ry="31.1"
   id="ellipse8"
   style="fill:#fd5d0d;fill-opacity:1" />
<rect
   x="352.5"
   y="169.8"
   width="62.2"
   height="62.2"
   id="rect10"
   style="fill:#fd5d0d;fill-opacity:1" />
<path
   d="M268.2,31.1c0,7-1.4,13.8-3.8,19.9c45.3,15.3,81.5,50.7,98,95.5h24.6C369.1,90.1,324.5,45.5,268,27.8  C268.1,28.9,268.2,30,268.2,31.1z M65.6,145.6c16.6-44.4,52.6-79.4,97.6-94.6c-2.4-6.2-3.8-12.9-3.8-19.9c0-1.1,0-2.2,0.1-3.3  c-50,15.7-90.8,52.6-111.8,100L65.6,145.6L65.6,145.6z M362.3,255.3c-16.5,44.8-52.6,80.2-98,95.5c2.4,6.2,3.8,12.9,3.8,19.9  c0,1.1,0,2.2-0.1,3.3c56.4-17.7,101.1-62.3,118.8-118.8L362.3,255.3L362.3,255.3z M159.4,370.7c0-7,1.4-13.8,3.8-19.9  c-45-15.2-81-50.2-97.6-94.6L47.8,274c21,47.5,61.7,84.3,111.8,100C159.5,372.9,159.4,371.8,159.4,370.7L159.4,370.7z"
   id="path12"
   style="fill:#fd5d0d;fill-opacity:1" />
<rect
   x="12.9"
   y="169.8"
   transform="matrix(0.7071 -0.7071 0.7071 0.7071 -129.1741 89.9436)"
   width="62.2"
   height="62.2"
   id="rect14"
   style="fill:#fd5d0d;fill-opacity:1" />
</svg>
