<?xml version="1.0" encoding="UTF-8" standalone="no"?>
<svg
   width="70"
   height="70"
   viewBox="0 0 35 35"
   version="1.1"
   id="svg44"
   sodipodi:docname="docker.svg"
   inkscape:version="1.2.2 (b0a8486541, 2022-12-01)"
   xmlns:inkscape="http://www.inkscape.org/namespaces/inkscape"
   xmlns:sodipodi="http://sodipodi.sourceforge.net/DTD/sodipodi-0.dtd"
   xmlns:xlink="http://www.w3.org/1999/xlink"
   xmlns="http://www.w3.org/2000/svg"
   xmlns:svg="http://www.w3.org/2000/svg">
  <sodipodi:namedview
     id="namedview46"
     pagecolor="#ffffff"
     bordercolor="#000000"
     borderopacity="0.25"
     inkscape:showpageshadow="2"
     inkscape:pageopacity="0.0"
     inkscape:pagecheckerboard="0"
     inkscape:deskcolor="#d1d1d1"
     showgrid="false"
     inkscape:zoom="3.6875"
     inkscape:cx="15.457627"
     inkscape:cy="24.135593"
     inkscape:window-width="1680"
     inkscape:window-height="1018"
     inkscape:window-x="0"
     inkscape:window-y="0"
     inkscape:window-maximized="1"
     inkscape:current-layer="svg44" />
  <defs
     id="defs5">
    <clipPath
       id="A">
      <path
         d="M 76,2 V 48 H 54 V 71 H 35.58 l -0.206,2 c -1.15,12.53 1.036,24.088 6.063,33.97 l 1.688,3.03 c 1,1.817 2.2,3.523 3.438,5.188 1.238,1.665 1.686,2.583 2.47,3.688 C 62.32,133.8 82.13,141 105,141 155.648,141 198.633,118.562 217.656,68.156 231.153,69.54 244.1,66.08 250,54.563 240.6,49.139 228.522,50.878 221.563,54.376 L 240,2 168,48 H 145 V 2 Z"
         id="path2" />
    </clipPath>
  </defs>
  <g
     transform="matrix(0.74241657,0,0,0.74241657,-2.2601594,16.479177)"
     id="g42">
    <path
       d="m 30.305,-3.553 h 4.222 v 4.316 h 2.135 a 9.26,9.26 0 0 0 2.934,-0.492 c 0.46,-0.156 0.974,-0.372 1.426,-0.644 -0.596,-0.778 -0.9,-1.76 -1,-2.73 -0.122,-1.317 0.144,-3.032 1.036,-4.063 l 0.444,-0.513 0.53,0.425 c 1.332,1.07 2.452,2.565 2.65,4.27 1.603,-0.472 3.486,-0.36 4.9,0.456 l 0.58,0.335 -0.305,0.596 C 48.67,0.733 46.17,1.456 43.727,1.328 40.071,10.433 32.112,14.744 22.462,14.744 17.476,14.744 12.902,12.88 10.298,8.457 10.145,8.182 10.015,7.895 9.876,7.613 8.996,5.666 8.703,3.533 8.901,1.413 l 0.06,-0.638 h 3.6 V -3.55 h 4.222 v -4.222 h 8.445 v -4.222 h 5.067 v 8.445"
       fill="#394d54"
       id="path7" />
    <g
       transform="matrix(0.184659,0,0,0.184659,3.070472,-11.997864)"
       clip-path="url(#A)"
       id="g34">
      <g
         id="B">
        <g
           id="C"
           transform="translate(0,-22.866)">
          <path
             d="m 123.86,3.8 h 19.818 V 23.617 H 123.86 Z"
             fill="#00acd3"
             id="path9" />
          <path
             d="m 123.86,26.676 h 19.818 V 46.494 H 123.86 Z"
             fill="#20c2ef"
             id="path11" />
          <path
             id="D"
             d="M 126.292,21.977 V 5.46 m 2.972,16.516 V 5.46 m 3.002,16.516 V 5.46 m 3.003,16.516 V 5.46 m 3.003,16.516 V 5.46 m 2.97,16.516 V 5.46"
             stroke="#394d54"
             stroke-width="1.56" />
          <use
             xlink:href="#D"
             y="22.865999"
             id="use14" />
        </g>
        <use
           xlink:href="#C"
           transform="matrix(1,0,0,-1,22.866,4.572651)"
           id="use17" />
      </g>
      <use
         xlink:href="#B"
         x="-91.463997"
         y="45.731998"
         id="use20" />
      <use
         xlink:href="#B"
         x="-45.731998"
         y="45.731998"
         id="use22" />
      <use
         xlink:href="#B"
         y="45.731998"
         id="use24" />
      <path
         d="m 221.57,54.38 c 1.533,-11.915 -7.384,-21.275 -12.914,-25.718 -6.373,7.368 -7.363,26.678 2.635,34.807 -5.58,4.956 -17.337,9.448 -29.376,9.448 H 34 C 32.83,85.484 34,146 34,146 h 217 l -0.987,-91.424 c -9.4,-5.424 -21.484,-3.694 -28.443,-0.197"
         fill="#17b5eb"
         id="path26" />
      <path
         d="m 34,89 v 57 H 251 V 89"
         fill-opacity="0.17"
         id="path28" />
      <path
         d="M 111.237,140.9 C 97.697,134.475 90.265,125.74 86.13,116.206 L 45,118 l 21,28 45.237,-5.1"
         fill="#d4edf1"
         id="path30" />
      <path
         d="m 222.5,53.938 v 0.03 c -20.86,26.9 -50.783,50.38 -82.906,62.72 -28.655,11.008 -53.638,11.06 -70.875,2.22 -1.856,-1.048 -3.676,-2.212 -5.5,-3.312 C 50.582,106.764 43.465,92.156 44.063,72.909 H 34 V 146 H 251 V 50 h -25 z"
         fill-opacity="0.085"
         id="path32" />
    </g>
    <path
       d="m 11.496,9.613 c 2.616,0.143 5.407,0.17 7.842,-0.594"
       fill="none"
       stroke="#394d54"
       stroke-width="0.628"
       stroke-linecap="round"
       id="path36" />
    <path
       d="m 21.937,7.753 a 1.01,1.01 0 0 1 -1.009,1.009 1.01,1.01 0 0 1 -1.01,-1.009 1.01,1.01 0 0 1 1.01,-1.01 1.01,1.01 0 0 1 1.009,1.01 z"
       fill="#d4edf1"
       id="path38" />
    <path
       d="m 21.2,7.08 c -0.088,0.05 -0.148,0.146 -0.148,0.256 0,0.163 0.132,0.295 0.295,0.295 0.112,0 0.2,-0.062 0.26,-0.154 a 0.73,0.73 0 0 1 0.055,0.277 c 0,0.4 -0.324,0.723 -0.723,0.723 -0.399,0 -0.723,-0.324 -0.723,-0.723 0,-0.399 0.324,-0.723 0.723,-0.723 A 0.72,0.72 0 0 1 21.201,7.08 Z M 3.07,4.65 h 46.964 c -1.023,-0.26 -3.235,-0.6 -2.87,-1.95 -1.86,2.152 -6.344,1.5 -7.475,0.448 -1.26,1.828 -8.597,1.133 -9.108,-0.3 -1.58,1.854 -6.475,1.854 -8.055,0 -0.512,1.424 -7.848,2.12 -9.1,0.3 C 12.284,4.2 7.8,4.853 5.94,2.7 6.305,4.04 4.092,4.4 3.07,4.65"
       fill="#394d54"
       id="path40" />
  </g>
</svg>
