<?xml version="1.0" encoding="UTF-8" standalone="no"?>
<svg
   width="64"
   height="64"
   version="1.1"
   id="svg10"
   sodipodi:docname="gcp.svg"
   inkscape:version="1.2.2 (b0a8486541, 2022-12-01)"
   xmlns:inkscape="http://www.inkscape.org/namespaces/inkscape"
   xmlns:sodipodi="http://sodipodi.sourceforge.net/DTD/sodipodi-0.dtd"
   xmlns="http://www.w3.org/2000/svg"
   xmlns:svg="http://www.w3.org/2000/svg">
  <defs
     id="defs14" />
  <sodipodi:namedview
     id="namedview12"
     pagecolor="#ffffff"
     bordercolor="#000000"
     borderopacity="0.25"
     inkscape:showpageshadow="2"
     inkscape:pageopacity="0.0"
     inkscape:pagecheckerboard="0"
     inkscape:deskcolor="#d1d1d1"
     showgrid="false"
     inkscape:zoom="3.6875"
     inkscape:cx="31.728814"
     inkscape:cy="32"
     inkscape:window-width="1680"
     inkscape:window-height="1018"
     inkscape:window-x="0"
     inkscape:window-y="0"
     inkscape:window-maximized="1"
     inkscape:current-layer="svg10" />
  <g
     id="g247"
     transform="matrix(0.87412587,0,0,0.87412587,4.0279722,4.0279722)">
    <path
       d="m 40.728,20.488 2.05,0.035 5.57,-5.57 0.27,-2.36 C 44.2,8.657 38.367,6.26 31.993,6.26 20.453,6.26 10.713,14.112 7.83,24.748 8.438,24.324 9.738,24.642 9.738,24.642 l 11.13,-1.83 c 0,0 0.572,-0.947 0.862,-0.9 A 13.88,13.88 0 0 1 32,17.375 c 3.3,0.007 6.34,1.173 8.728,3.102 z"
       fill="#ea4335"
       id="path2" />
    <path
       d="M 56.17,24.77 C 54.877,20 52.212,15.788 48.615,12.593 l -7.887,7.887 c 3.16,2.55 5.187,6.452 5.187,10.82 v 1.392 c 3.837,0 6.954,3.124 6.954,6.954 0,3.837 -3.124,6.954 -6.954,6.954 H 32.007 L 30.615,48 v 8.346 l 1.392,1.385 H 45.915 A 18.11,18.11 0 0 0 64,39.647 c -0.007,-6.155 -3.1,-11.6 -7.83,-14.876 z"
       fill="#4285f4"
       id="path4" />
    <path
       d="m 18.085,57.74 h 13.9 V 46.6 h -13.9 a 6.89,6.89 0 0 1 -2.862,-0.622 l -2.007,0.615 -5.57,5.57 -0.488,1.88 a 18,18 0 0 0 10.926,3.689 z"
       fill="#34a853"
       id="path6" />
    <path
       d="M 18.085,21.57 A 18.11,18.11 0 0 0 0,39.654 c 0,5.873 2.813,11.095 7.166,14.403 l 8.064,-8.064 a 6.96,6.96 0 0 1 -4.099,-6.339 c 0,-3.837 3.124,-6.954 6.954,-6.954 2.82,0 5.244,1.7 6.34,4.1 l 8.064,-8.064 C 29.182,24.383 23.959,21.57 18.086,21.57 Z"
       fill="#fbbc05"
       id="path8" />
  </g>
</svg>
