<?xml version="1.0" encoding="UTF-8"?>
<svg id="Layer_4" data-name="Layer 4" xmlns="http://www.w3.org/2000/svg" viewBox="0 0 501.65 607.67">
  <defs>
    <style>
      .cls-1 {
        fill: #999;
        stroke: #999;
        stroke-miterlimit: 10;
        stroke-width: 4px;
      }
    </style>
  </defs>
  <path class="cls-1" d="M391.36,309.93l42.33.14v-76.39l-41.88-.09c-3.23-11.96-7.91-23.38-14.02-34.14l29.54-29.2-53.99-54.26-29.58,29.2c-5.43-3.13-11-5.91-16.63-8.27-5.68-2.36-11.59-4.4-17.65-6.05l.12-35.2.02-6.01h-77.19l.02,3.33.21,37.49c-12,3.2-23.49,7.84-34.31,13.93l-28.61-28.7-54.58,53.69,28.63,28.73c-3.14,5.37-5.91,10.9-8.29,16.52-2.36,5.55-4.39,11.4-6.07,17.44l-38.86-.21h-2.61s0,76.31,0,76.31l5.52.03,35.49.22c3.2,12.01,7.91,23.45,14.02,34.21l-30.2,29.72,54.03,54.24,30.18-29.72c5.5,3.17,11.09,5.94,16.7,8.29,5.77,2.4,11.66,4.42,17.61,6.05v43.14l76.73-.05.02-42.68c12.09-3.2,23.61-7.88,34.45-14l30.18,30.02,54.6-53.6-30.27-30.15c3.09-5.3,5.86-10.83,8.25-16.49,2.39-5.64,4.43-11.49,6.09-17.47h0ZM250.82,373.08c-55.83,0-101.08-45.26-101.08-101.08s45.26-101.08,101.08-101.08,101.08,45.26,101.08,101.08-45.26,101.08-101.08,101.08h0Z"/>
</svg>