<?xml version="1.0" encoding="UTF-8"?>
<svg id="Layer_4" data-name="Layer 4" xmlns="http://www.w3.org/2000/svg" viewBox="0 0 501.65 607.67">
  <defs>
    <style>
      .cls-1 {
        fill: #999;
        stroke: #999;
        stroke-miterlimit: 10;
        stroke-width: 4px;
      }
    </style>
  </defs>
  <path class="cls-1" d="M244.8,248.04c30.21,0,54.68-24.58,54.68-54.68s-24.58-54.68-54.68-54.68-54.68,24.58-54.68,54.68,24.46,54.68,54.68,54.68h0Z"/>
  <polygon class="cls-1" points="310.64 455.7 178.96 455.7 178.96 297.3 195.53 274.76 294.07 274.76 310.64 297.3 310.64 455.7"/>
  <path class="cls-1" d="M301.28,134.06c7.1-21.87,27.73-37.77,51.97-37.77,30.21,0,54.68,24.58,54.68,54.68s-24.58,54.68-54.68,54.68c-9.7,0-18.71-2.59-26.72-6.99.11-1.8.23-3.49.23-5.3,0-23.34-9.81-44.42-25.48-59.3h0Z"/>
  <path class="cls-1" d="M81.67,150.97c0-30.21,24.58-54.68,54.68-54.68,24.24,0,44.87,15.9,51.97,37.77-15.67,14.99-25.48,35.96-25.48,59.3,0,1.8.11,3.61.23,5.3-7.89,4.4-17.02,6.99-26.72,6.99-30.1,0-54.68-24.58-54.68-54.68Z"/>
  <path class="cls-1" d="M419.09,254.92v158.39h-81.17v-124.91l-29.99-40.92h-1.58c4.06-4.62,7.55-9.7,10.6-15.11h85.68l16.46,22.55h0Z"/>
  <path class="cls-1" d="M151.68,413.31h-81.17v-158.39l16.57-22.55h85.68c2.93,5.41,6.54,10.48,10.6,15.11h-1.69l-29.99,40.92v124.91h0Z"/>
</svg>