<?xml version="1.0" encoding="UTF-8" standalone="no"?>
<svg
   height="64"
   width="64"
   viewBox="0 0 60 60"
   version="1.1"
   id="svg323"
   sodipodi:docname="openshift.svg"
   inkscape:version="1.2.2 (b0a8486541, 2022-12-01)"
   xmlns:inkscape="http://www.inkscape.org/namespaces/inkscape"
   xmlns:sodipodi="http://sodipodi.sourceforge.net/DTD/sodipodi-0.dtd"
   xmlns="http://www.w3.org/2000/svg"
   xmlns:svg="http://www.w3.org/2000/svg">
  <defs
     id="defs327" />
  <sodipodi:namedview
     id="namedview325"
     pagecolor="#ffffff"
     bordercolor="#000000"
     borderopacity="0.25"
     inkscape:showpageshadow="2"
     inkscape:pageopacity="0.0"
     inkscape:pagecheckerboard="0"
     inkscape:deskcolor="#d1d1d1"
     showgrid="false"
     inkscape:zoom="3.6875"
     inkscape:cx="32"
     inkscape:cy="32"
     inkscape:window-width="1680"
     inkscape:window-height="1018"
     inkscape:window-x="0"
     inkscape:window-y="0"
     inkscape:window-maximized="1"
     inkscape:current-layer="svg323" />
  <g
     id="g452"
     transform="matrix(0.88462577,0,0,0.88462577,3.4612269,3.4600615)">
    <g
       fill="#db212f"
       id="g315">
      <path
         d="M 17.424,27.158 7.8,30.664 c 0.123,1.545 0.4,3.07 0.764,4.566 l 9.15,-3.333 c -0.297,-1.547 -0.403,-3.142 -0.28,-4.74 M 60,16.504 c -0.672,-1.386 -1.45,-2.726 -2.35,-3.988 l -9.632,3.506 c 1.12,1.147 2.06,2.435 2.83,3.813 z"
         id="path311" />
      <path
         d="m 38.802,13.776 c 2.004,0.935 3.74,2.21 5.204,3.707 l 9.633,-3.506 A 27.38,27.38 0 0 0 42.883,5.027 C 29.113,-1.393 12.685,4.585 6.263,18.353 A 27.38,27.38 0 0 0 3.775,32.124 l 9.634,-3.505 c 0.16,-2.087 0.67,-4.18 1.603,-6.184 4.173,-8.947 14.844,-12.83 23.79,-8.658"
         id="path313" />
    </g>
    <path
       d="M 9.153,35.01 0,38.342 c 0.84,3.337 2.3,6.508 4.304,9.33 l 9.612,-3.5 A 17.99,17.99 0 0 1 9.153,35.008"
       fill="#ea2227"
       id="path317" />
    <path
       d="m 49.074,31.38 a 17.64,17.64 0 0 1 -1.616,6.186 c -4.173,8.947 -14.843,12.83 -23.79,8.657 a 17.71,17.71 0 0 1 -5.215,-3.7 l -9.612,3.5 c 2.662,3.744 6.293,6.874 10.748,8.953 13.77,6.42 30.196,0.44 36.618,-13.328 a 27.28,27.28 0 0 0 2.479,-13.765 l -9.61,3.498 z"
       fill="#db212f"
       id="path319" />
    <path
       d="m 51.445,19.618 -9.153,3.332 c 1.7,3.046 2.503,6.553 2.24,10.08 l 9.612,-3.497 c -0.275,-3.45 -1.195,-6.817 -2.7,-9.915"
       fill="#ea2227"
       id="path321" />
  </g>
</svg>
