<svg xmlns="http://www.w3.org/2000/svg" width="92.197" height="31.58"><path d="M5.152 22.515c3.4 0 5.159-2.008 5.162-5.53v-2.924h-3.27v3.145c0 1.572-.693 2.137-1.794 2.137s-1.791-.568-1.79-2.14l.01-11.887c0-1.571.693-2.169 1.794-2.168s1.791.6 1.79 2.171V7.68h3.27V5.54c0-3.523-1.757-5.537-5.153-5.54S.01 2.008.01 5.53L0 16.98c-.003 3.519 1.752 5.533 5.152 5.535zm10.129-4.236h4.245l.594 3.994h3.491L20.111.264h-5.07l-3.54 22.01h3.175zM17.4 4.161l1.658 11.135h-3.335zm10.815 2.556l2.566 15.569h3.27l2.4-15.783-.014 15.786h3.271L39.733.282h-4.811L32.55 15.908 30.013.269h-4.811l-.019 22.012h3.019zm19.011 15.866c3.4 0 5.159-2.008 5.162-5.53L52.402.29h-3.268l-.015 16.986c0 1.572-.693 2.138-1.794 2.137s-1.791-.568-1.79-2.139L45.55.288h-3.46l-.014 16.761c-.005 3.517 1.758 5.531 5.15 5.534zM57.837 6.365l4.294 15.947h3.553L65.703.3H62.62l-.01 13.176L59.069.297h-4.34l-.019 22.009h3.114zm20.964 10.52l.009-11.131c0-3.522-1.693-5.442-5.152-5.445h-5.472l-.018 22.01 5.472.005c3.459-.005 5.158-1.917 5.161-5.439zm-7.172 2.293l.014-15.724h1.95c1.1 0 1.76.568 1.759 2.139l-.009 11.446c0 1.572-.663 2.138-1.763 2.137zm12.238-.841h4.245l.594 3.994h3.491L88.689.323h-5.062l-3.543 22.01h3.176zm2.117-14.118l1.657 11.133h-3.337zM0 25.749h92.193v5.831H0z" fill="#fff"/></svg>