<svg id="Grupo_11371" data-name="Grupo 11371" xmlns="http://www.w3.org/2000/svg" width="104.273" height="35.717" viewBox="0 0 104.273 35.717">
  <path id="Trazado_1655" data-name="Trazado 1655" d="M523.083,413.939c3.841,0,5.835-2.271,5.838-6.255l0-3.308-3.7,0,0,3.557c0,1.778-.785,2.418-2.029,2.417s-2.027-.642-2.025-2.421l.011-13.444c0-1.778.784-2.453,2.029-2.452s2.027.677,2.025,2.456l0,2.667,3.7,0,0-2.418c0-3.984-1.986-6.261-5.827-6.265s-5.835,2.271-5.838,6.255l-.011,12.946C517.253,411.658,519.242,413.936,523.083,413.939Z" transform="translate(-517.256 -388.474)"/>
  <path id="Trazado_1656" data-name="Trazado 1656" d="M631.926,411.349l4.8,0,.672,4.517,3.948,0-3.962-24.9-5.726,0-4,24.893,3.592,0Zm2.4-15.967,1.874,12.592-3.77,0Z" transform="translate(-614.641 -390.676)"/>
  <path id="Trazado_1657" data-name="Trazado 1657" d="M762.35,398.345l2.9,17.608,3.7,0,2.718-17.852-.015,17.854,3.7,0,.021-24.9-5.442,0-2.682,17.674-2.866-17.679-5.442,0-.021,24.9,3.414,0Z" transform="translate(-730.438 -390.747)"/>
  <path id="Trazado_1658" data-name="Trazado 1658" d="M926.833,416.411c3.841,0,5.835-2.271,5.838-6.255l.016-18.956-3.7,0-.016,19.205c0,1.778-.784,2.418-2.029,2.417s-2.027-.642-2.025-2.42l.016-19.206-3.912,0-.016,18.957C921,414.13,922.992,416.408,926.833,416.411Z" transform="translate(-873.419 -390.87)"/>
  <path id="Trazado_1659" data-name="Trazado 1659" d="M1045.807,398.16l4.857,18.036,4.019,0,.021-24.9-3.485,0-.013,14.9L1047.2,391.3l-4.908,0-.021,24.9,3.521,0Z" transform="translate(-980.392 -390.961)"/>
  <path id="Trazado_1660" data-name="Trazado 1660" d="M1183.447,410.156l.011-12.59c0-3.983-1.915-6.155-5.827-6.158l-6.189-.005-.021,24.9,6.188.005C1181.522,416.308,1183.444,414.14,1183.447,410.156Zm-8.111,2.589.015-17.783,2.205,0c1.245,0,1.991.642,1.989,2.42l-.011,12.946c0,1.778-.749,2.418-1.994,2.417Z" transform="translate(-1094.32 -391.058)"/>
  <path id="Trazado_1661" data-name="Trazado 1661" d="M1290.058,411.908l4.8,0,.672,4.518,3.948,0-3.962-24.9-5.726,0-4,24.893,3.592,0Zm2.4-15.967,1.874,12.592-3.77,0Z" transform="translate(-1195.206 -391.169)"/>
  <rect id="Rect치ngulo_1577" data-name="Rect치ngulo 1577" width="104.272" height="6.595" transform="translate(0.001 29.122)"/>
  <rect id="Rect치ngulo_1644" data-name="Rect치ngulo 1644" width="104.272" height="6.595" transform="translate(0.001 29.122)"/>
</svg>
