<svg xmlns="http://www.w3.org/2000/svg" xmlns:xlink="http://www.w3.org/1999/xlink" fill="none" stroke="none" stroke-linecap="square" stroke-miterlimit="10" version="1.1" viewBox="0 0 960 150"><clipPath id="gaf27a696d4_0_17.0"><path d="m0 0l960.0 0l0 150.0l-960.0 0l0 -150.0z" clip-rule="nonzero"/></clipPath><g clip-path="url(#gaf27a696d4_0_17.0)"><path fill="#666" fill-rule="evenodd" d="m0 0l960.0 0l0 150.0l-960.0 0z"/><path fill="#000" fill-opacity="0" fill-rule="evenodd" d="m0 0l960.0 0l0 149.98425l-960.0 0z"/><path fill="#fff" fill-rule="nonzero" d="m354.49072 87.39838q-2.375 0 -4.28125 -0.75q-1.890625 -0.75 -3.21875 -2.234375q-1.328125 -1.484375 -2.0625 -3.703125q-0.734375 -2.21875 -0.734375 -5.1875q0 -2.921875 0.734375 -5.203125q0.734375 -2.296875 2.0625 -3.84375q1.328125 -1.546875 3.21875 -2.34375q1.90625 -0.796875 4.28125 -0.796875q3.234375 0 5.328125 1.3125q2.09375 1.3125 3.359375 4.140625l-4.359375 2.265625q-0.46875 -1.453125 -1.453125 -2.328125q-0.984375 -0.890625 -2.875 -0.890625q-2.234375 0 -3.59375 1.453125q-1.34375 1.4375 -1.34375 4.203125l0 3.734375q0 2.765625 1.34375 4.21875q1.359375 1.453125 3.59375 1.453125q1.859375 0 2.96875 -1.015625q1.125 -1.015625 1.65625 -2.453125l4.140625 2.390625q-1.296875 2.671875 -3.421875 4.125q-2.109375 1.453125 -5.34375 1.453125zm21.18512 0q-2.296875 0 -4.203125 -0.765625q-1.890625 -0.78125 -3.21875 -2.296875q-1.328125 -1.515625 -2.0625 -3.765625q-0.734375 -2.25 -0.734375 -5.203125q0 -2.96875 0.734375 -5.21875q0.734375 -2.25 2.0625 -3.765625q1.328125 -1.515625 3.21875 -2.28125q1.90625 -0.765625 4.203125 -0.765625q2.3125 0 4.203125 0.765625q1.90625 0.765625 3.234375 2.28125q1.328125 1.515625 2.0625 3.765625q0.734375 2.25 0.734375 5.21875q0 2.953125 -0.734375 5.203125q-0.734375 2.25 -2.0625 3.765625q-1.328125 1.515625 -3.234375 2.296875q-1.890625 0.765625 -4.203125 0.765625zm0 -4.5q2.3125 0 3.59375 -1.5q1.28125 -1.5 1.28125 -4.296875l0 -3.46875q0 -2.8125 -1.28125 -4.296875q-1.28125 -1.5 -3.59375 -1.5q-2.296875 0 -3.578125 1.5q-1.28125 1.484375 -1.28125 4.296875l0 3.46875q0 2.796875 1.28125 4.296875q1.28125 1.5 3.578125 1.5zm21.577454 -6.90625l-2.234375 -4.671875l-0.109375 0l0 15.671875l-4.765625 0l0 -23.265625l5.53125 0l6.375 11.0l2.234375 4.671875l0.09375 0l0 -15.671875l4.765625 0l0 23.265625l-5.53125 0l-6.359375 -11.0zm17.020142 11.0l0 -23.265625l15.4375 0l0 4.5l-10.375 0l0 4.765625l8.84375 0l0 4.46875l-8.84375 0l0 9.53125l-5.0625 0zm18.606323 0l0 -4.03125l3.0 0l0 -15.203125l-3.0 0l0 -4.03125l11.0625 0l0 4.03125l-3.0 0l0 15.203125l3.0 0l0 4.03125l-11.0625 0zm30.053955 -3.703125l-0.171875 0q-0.265625 1.765625 -1.796875 2.9375q-1.53125 1.171875 -4.15625 1.171875q-2.0 0 -3.734375 -0.765625q-1.734375 -0.78125 -3.03125 -2.265625q-1.296875 -1.5 -2.03125 -3.734375q-0.734375 -2.234375 -0.734375 -5.171875q0 -2.9375 0.765625 -5.203125q0.765625 -2.265625 2.140625 -3.796875q1.390625 -1.53125 3.3125 -2.328125q1.9375 -0.796875 4.3125 -0.796875q3.125 0 5.390625 1.34375q2.265625 1.34375 3.5625 4.046875l-4.125 2.375q-0.53125 -1.375 -1.671875 -2.3125q-1.125 -0.953125 -3.15625 -0.953125q-2.375 0 -3.78125 1.359375q-1.390625 1.359375 -1.390625 4.296875l0 3.734375q0 2.90625 1.390625 4.296875q1.40625 1.375 3.78125 1.375q0.921875 0 1.75 -0.21875q0.84375 -0.21875 1.46875 -0.671875q0.640625 -0.453125 0.984375 -1.078125q0.359375 -0.640625 0.359375 -1.5l0 -1.171875l-4.328125 0l0 -4.234375l9.15625 0l0 12.96875l-4.265625 0l0 -3.703125zm13.994141 -19.5625l0 14.265625q0 2.46875 0.96875 3.6875q0.96875 1.21875 3.234375 1.21875q2.265625 0 3.234375 -1.21875q0.96875 -1.21875 0.96875 -3.6875l0 -14.265625l4.9375 0l0 13.734375q0 2.5625 -0.484375 4.453125q-0.484375 1.875 -1.59375 3.09375q-1.09375 1.21875 -2.828125 1.8125q-1.734375 0.578125 -4.234375 0.578125q-2.5 0 -4.234375 -0.578125q-1.734375 -0.59375 -2.828125 -1.8125q-1.09375 -1.21875 -1.578125 -3.09375q-0.484375 -1.890625 -0.484375 -4.453125l0 -13.734375l4.921875 0zm23.395264 23.265625l-5.0625 0l0 -23.265625l11.03125 0q1.609375 0 2.90625 0.53125q1.296875 0.53125 2.203125 1.515625q0.921875 0.984375 1.421875 2.359375q0.5 1.359375 0.5 3.03125q0 2.359375 -1.046875 4.125q-1.046875 1.765625 -3.1875 2.578125l4.578125 9.125l-5.640625 0l-4.0625 -8.53125l-3.640625 0l0 8.53125zm5.34375 -12.796875q1.125 0 1.765625 -0.578125q0.65625 -0.59375 0.65625 -1.71875l0 -1.46875q0 -1.140625 -0.65625 -1.71875q-0.640625 -0.578125 -1.765625 -0.578125l-5.34375 0l0 6.0625l5.34375 0zm26.38501 12.796875l-1.65625 -5.53125l-7.765625 0l-1.671875 5.53125l-5.125 0l7.65625 -23.265625l6.265625 0l7.5625 23.265625l-5.265625 0zm-5.5 -18.65625l-0.15625 0l-2.5625 8.828125l5.328125 0l-2.609375 -8.828125zm21.538025 -0.109375l0 18.765625l-5.0625 0l0 -18.765625l-6.296875 0l0 -4.5l17.65625 0l0 4.5l-6.296875 0zm8.736511 18.765625l0 -4.03125l3.0 0l0 -15.203125l-3.0 0l0 -4.03125l11.0625 0l0 4.03125l-3.0 0l0 15.203125l3.0 0l0 4.03125l-11.0625 0zm24.616455 0.40625q-2.296875 0 -4.203125 -0.765625q-1.890625 -0.78125 -3.21875 -2.296875q-1.328125 -1.515625 -2.0625 -3.765625q-0.734375 -2.25 -0.734375 -5.203125q0 -2.96875 0.734375 -5.21875q0.734375 -2.25 2.0625 -3.765625q1.328125 -1.515625 3.21875 -2.28125q1.90625 -0.765625 4.203125 -0.765625q2.3125 0 4.203125 0.765625q1.90625 0.765625 3.234375 2.28125q1.328125 1.515625 2.0625 3.765625q0.734375 2.25 0.734375 5.21875q0 2.953125 -0.734375 5.203125q-0.734375 2.25 -2.0625 3.765625q-1.328125 1.515625 -3.234375 2.296875q-1.890625 0.765625 -4.203125 0.765625zm0 -4.5q2.3125 0 3.59375 -1.5q1.28125 -1.5 1.28125 -4.296875l0 -3.46875q0 -2.8125 -1.28125 -4.296875q-1.28125 -1.5 -3.59375 -1.5q-2.296875 0 -3.578125 1.5q-1.28125 1.484375 -1.28125 4.296875l0 3.46875q0 2.796875 1.28125 4.296875q1.28125 1.5 3.578125 1.5zm21.577515 -6.90625l-2.234375 -4.671875l-0.109375 0l0 15.671875l-4.765625 0l0 -23.265625l5.53125 0l6.375 11.0l2.234375 4.671875l0.09375 0l0 -15.671875l4.765625 0l0 23.265625l-5.53125 0l-6.359375 -11.0z"/></g></svg>