<svg xmlns="http://www.w3.org/2000/svg" xmlns:xlink="http://www.w3.org/1999/xlink" fill="none" stroke="none" stroke-linecap="square" stroke-miterlimit="10" version="1.1" viewBox="0 0 960 150"><clipPath id="gaf27a696d4_0_21.0"><path d="m0 0l960.0 0l0 150.0l-960.0 0l0 -150.0z" clip-rule="nonzero"/></clipPath><g clip-path="url(#gaf27a696d4_0_21.0)"><path fill="#666" fill-rule="evenodd" d="m0 0l960.0 0l0 150.0l-960.0 0z"/><path fill="#000" fill-opacity="0" fill-rule="evenodd" d="m0 0l960.0 0l0 149.98425l-960.0 0z"/><path fill="#fff" fill-rule="nonzero" d="m234.5611 71.7265l-0.109375 0l-1.703125 3.40625l-4.53125 8.234375l-4.421875 -8.203125l-1.765625 -3.671875l-0.109375 0l0 15.5l-4.765625 0l0 -23.265625l5.375 0l5.6875 10.90625l0.078125 0l5.625 -10.90625l5.40625 0l0 23.265625l-4.765625 0l0 -15.265625zm24.21756 15.265625l-1.65625 -5.53125l-7.765625 0l-1.671875 5.53125l-5.125 0l7.65625 -23.265625l6.265625 0l7.5625 23.265625l-5.265625 0zm-5.5 -18.65625l-0.15625 0l-2.5625 8.828125l5.328125 0l-2.609375 -8.828125zm19.064087 18.65625l-5.0625 0l0 -23.265625l11.03125 0q1.609375 0 2.90625 0.53125q1.296875 0.53125 2.203125 1.515625q0.921875 0.984375 1.421875 2.359375q0.5 1.359375 0.5 3.03125q0 2.359375 -1.046875 4.125q-1.046875 1.765625 -3.1875 2.578125l4.578125 9.125l-5.640625 0l-4.0625 -8.53125l-3.640625 0l0 8.53125zm5.34375 -12.796875q1.125 0 1.765625 -0.578125q0.65625 -0.59375 0.65625 -1.71875l0 -1.46875q0 -1.140625 -0.65625 -1.71875q-0.640625 -0.578125 -1.765625 -0.578125l-5.34375 0l0 6.0625l5.34375 0zm20.16623 2.671875l-3.046875 3.65625l0 6.46875l-5.0625 0l0 -23.265625l5.0625 0l0 11.0625l0.203125 0l3.296875 -4.5l5.234375 -6.5625l5.734375 0l-7.828125 9.5625l8.53125 13.703125l-5.96875 0l-6.15625 -10.125zm15.086975 -13.140625l8.765625 0q2.296875 0 4.203125 0.734375q1.90625 0.734375 3.234375 2.1875q1.328125 1.453125 2.0625 3.640625q0.734375 2.171875 0.734375 5.078125q0 2.890625 -0.734375 5.078125q-0.734375 2.1875 -2.0625 3.640625q-1.328125 1.4375 -3.234375 2.171875q-1.90625 0.734375 -4.203125 0.734375l-8.765625 0l0 -23.265625zm8.765625 18.765625q2.265625 0 3.5625 -1.265625q1.3125 -1.265625 1.3125 -4.0625l0 -3.609375q0 -2.796875 -1.3125 -4.0625q-1.296875 -1.265625 -3.5625 -1.265625l-3.703125 0l0 14.265625l3.703125 0zm23.792145 4.90625q-2.296875 0 -4.203125 -0.765625q-1.890625 -0.78125 -3.21875 -2.296875q-1.328125 -1.515625 -2.0625 -3.765625q-0.734375 -2.25 -0.734375 -5.203125q0 -2.96875 0.734375 -5.21875q0.734375 -2.25 2.0625 -3.765625q1.328125 -1.515625 3.21875 -2.28125q1.90625 -0.765625 4.203125 -0.765625q2.3125 0 4.203125 0.765625q1.90625 0.765625 3.234375 2.28125q1.328125 1.515625 2.0625 3.765625q0.734375 2.25 0.734375 5.21875q0 2.953125 -0.734375 5.203125q-0.734375 2.25 -2.0625 3.765625q-1.328125 1.515625 -3.234375 2.296875q-1.890625 0.765625 -4.203125 0.765625zm0 -4.5q2.3125 0 3.59375 -1.5q1.28125 -1.5 1.28125 -4.296875l0 -3.46875q0 -2.8125 -1.28125 -4.296875q-1.28125 -1.5 -3.59375 -1.5q-2.296875 0 -3.578125 1.5q-1.28125 1.484375 -1.28125 4.296875l0 3.46875q0 2.796875 1.28125 4.296875q1.28125 1.5 3.578125 1.5zm17.373322 4.09375l-5.265625 -23.265625l5.0 0l2.203125 11.171875l1.234375 6.46875l0.09375 0l1.46875 -6.46875l2.5625 -11.171875l5.53125 0l2.59375 11.171875l1.4375 6.46875l0.109375 0l1.21875 -6.46875l2.234375 -11.171875l4.8125 0l-5.40625 23.265625l-5.765625 0l-2.9375 -12.59375l-1.125 -5.109375l-0.109375 0l-1.15625 5.109375l-2.9375 12.59375l-5.796875 0zm35.865692 -11.0l-2.234375 -4.671875l-0.109375 0l0 15.671875l-4.765625 0l0 -23.265625l5.53125 0l6.375 11.0l2.234375 4.671875l0.09375 0l0 -15.671875l4.765625 0l0 23.265625l-5.53125 0l-6.359375 -11.0zm39.213684 11.0l-1.65625 -5.53125l-7.765625 0l-1.671875 5.53125l-5.125 0l7.65625 -23.265625l6.265625 0l7.5625 23.265625l-5.265625 0zm-5.5 -18.65625l-0.15625 0l-2.5625 8.828125l5.328125 0l-2.609375 -8.828125zm21.110962 7.65625l-2.234375 -4.671875l-0.109375 0l0 15.671875l-4.765625 0l0 -23.265625l5.53125 0l6.375 11.0l2.234375 4.671875l0.09375 0l0 -15.671875l4.765625 0l0 23.265625l-5.53125 0l-6.359375 -11.0zm17.020142 -12.265625l8.765625 0q2.296875 0 4.203125 0.734375q1.90625 0.734375 3.234375 2.1875q1.328125 1.453125 2.0625 3.640625q0.734375 2.171875 0.734375 5.078125q0 2.890625 -0.734375 5.078125q-0.734375 2.1875 -2.0625 3.640625q-1.328125 1.4375 -3.234375 2.171875q-1.90625 0.734375 -4.203125 0.734375l-8.765625 0l0 -23.265625zm8.765625 18.765625q2.265625 0 3.5625 -1.265625q1.3125 -1.265625 1.3125 -4.0625l0 -3.609375q0 -2.796875 -1.3125 -4.0625q-1.296875 -1.265625 -3.5625 -1.265625l-3.703125 0l0 14.265625l3.703125 0zm39.735687 -10.765625l-0.109375 0l-1.703125 3.40625l-4.53125 8.234375l-4.421875 -8.203125l-1.765625 -3.671875l-0.109375 0l0 15.5l-4.765625 0l0 -23.265625l5.375 0l5.6875 10.90625l0.078125 0l5.625 -10.90625l5.40625 0l0 23.265625l-4.765625 0l0 -15.265625zm9.889465 -8.0l8.765625 0q2.296875 0 4.203125 0.734375q1.90625 0.734375 3.234375 2.1875q1.328125 1.453125 2.0625 3.640625q0.734375 2.171875 0.734375 5.078125q0 2.890625 -0.734375 5.078125q-0.734375 2.1875 -2.0625 3.640625q-1.328125 1.4375 -3.234375 2.171875q-1.90625 0.734375 -4.203125 0.734375l-8.765625 0l0 -23.265625zm8.765625 18.765625q2.265625 0 3.5625 -1.265625q1.3125 -1.265625 1.3125 -4.0625l0 -3.609375q0 -2.796875 -1.3125 -4.0625q-1.296875 -1.265625 -3.5625 -1.265625l-3.703125 0l0 14.265625l3.703125 0zm32.792114 4.5l-5.859375 0l-5.03125 -8.5625l-0.109375 0l-4.890625 8.5625l-5.46875 0l7.46875 -12.03125l-7.09375 -11.234375l5.890625 0l4.53125 7.875l0.109375 0l4.59375 -7.875l5.46875 0l-7.171875 11.328125l7.5625 11.9375zm10.967041 0l0 -23.265625l15.4375 0l0 4.5l-10.375 0l0 4.765625l8.84375 0l0 4.46875l-8.84375 0l0 9.53125l-5.0625 0zm19.496948 0l0 -23.265625l15.828125 0l0 4.5l-10.765625 0l0 4.765625l9.234375 0l0 4.46875l-9.234375 0l0 5.03125l10.765625 0l0 4.5l-15.828125 0zm34.558228 0l-1.65625 -5.53125l-7.765625 0l-1.671875 5.53125l-5.125 0l7.65625 -23.265625l6.265625 0l7.5625 23.265625l-5.265625 0zm-5.5 -18.65625l-0.15625 0l-2.5625 8.828125l5.328125 0l-2.609375 -8.828125zm21.538086 -0.109375l0 18.765625l-5.0625 0l0 -18.765625l-6.296875 0l0 -4.5l17.65625 0l0 4.5l-6.296875 0zm14.557373 -4.5l0 14.265625q0 2.46875 0.96875 3.6875q0.96875 1.21875 3.234375 1.21875q2.265625 0 3.234375 -1.21875q0.96875 -1.21875 0.96875 -3.6875l0 -14.265625l4.9375 0l0 13.734375q0 2.5625 -0.484375 4.453125q-0.484375 1.875 -1.59375 3.09375q-1.09375 1.21875 -2.828125 1.8125q-1.734375 0.578125 -4.234375 0.578125q-2.5 0 -4.234375 -0.578125q-1.734375 -0.59375 -2.828125 -1.8125q-1.09375 -1.21875 -1.578125 -3.09375q-0.484375 -1.890625 -0.484375 -4.453125l0 -13.734375l4.921875 0zm23.395264 23.265625l-5.0625 0l0 -23.265625l11.03125 0q1.609375 0 2.90625 0.53125q1.296875 0.53125 2.203125 1.515625q0.921875 0.984375 1.421875 2.359375q0.5 1.359375 0.5 3.03125q0 2.359375 -1.046875 4.125q-1.046875 1.765625 -3.1875 2.578125l4.578125 9.125l-5.640625 0l-4.0625 -8.53125l-3.640625 0l0 8.53125zm5.34375 -12.796875q1.125 0 1.765625 -0.578125q0.65625 -0.59375 0.65625 -1.71875l0 -1.46875q0 -1.140625 -0.65625 -1.71875q-0.640625 -0.578125 -1.765625 -0.578125l-5.34375 0l0 6.0625l5.34375 0zm12.056885 12.796875l0 -23.265625l15.828125 0l0 4.5l-10.765625 0l0 4.765625l9.234375 0l0 4.46875l-9.234375 0l0 5.03125l10.765625 0l0 4.5l-15.828125 0zm27.761353 0.40625q-3.0625 0 -5.203125 -1.046875q-2.125 -1.0625 -3.625 -2.71875l3.328125 -3.375q2.375 2.671875 5.84375 2.671875q1.859375 0 2.75 -0.765625q0.90625 -0.765625 0.90625 -2.03125q0 -0.96875 -0.53125 -1.609375q-0.53125 -0.65625 -2.171875 -0.890625l-2.296875 -0.3125q-3.6875 -0.453125 -5.40625 -2.21875q-1.71875 -1.78125 -1.71875 -4.703125q0 -1.5625 0.59375 -2.859375q0.609375 -1.3125 1.71875 -2.234375q1.125 -0.9375 2.734375 -1.453125q1.609375 -0.515625 3.6875 -0.515625q2.625 0 4.625 0.828125q2.0 0.828125 3.4375 2.4375l-3.375 3.390625q-0.828125 -0.96875 -2.015625 -1.578125q-1.171875 -0.625 -2.984375 -0.625q-1.6875 0 -2.53125 0.609375q-0.828125 0.59375 -0.828125 1.65625q0 1.203125 0.640625 1.734375q0.65625 0.53125 2.125 0.765625l2.296875 0.375q3.609375 0.5625 5.328125 2.21875q1.734375 1.640625 1.734375 4.671875q0 1.671875 -0.59375 3.078125q-0.59375 1.390625 -1.75 2.390625q-1.140625 1.0 -2.84375 1.5625q-1.703125 0.546875 -3.875 0.546875z"/></g></svg>