<svg xmlns="http://www.w3.org/2000/svg" xmlns:xlink="http://www.w3.org/1999/xlink" fill="none" stroke="none" stroke-linecap="square" stroke-miterlimit="10" version="1.1" viewBox="0 0 960 150"><clipPath id="gaf27a696d4_0_13.0"><path d="m0 0l960.0 0l0 150.0l-960.0 0l0 -150.0z" clip-rule="nonzero"/></clipPath><g clip-path="url(#gaf27a696d4_0_13.0)"><path fill="#666" fill-rule="evenodd" d="m0 0l960.0 0l0 150.0l-960.0 0z"/><path fill="#000" fill-opacity="0" fill-rule="evenodd" d="m0 0l960.0 0l0 149.98425l-960.0 0z"/><path fill="#fff" fill-rule="nonzero" d="m437.3521 87.39838q-3.0625 0 -5.203125 -1.046875q-2.125 -1.0625 -3.625 -2.71875l3.328125 -3.375q2.375 2.671875 5.84375 2.671875q1.859375 0 2.75 -0.765625q0.90625 -0.765625 0.90625 -2.03125q0 -0.96875 -0.53125 -1.609375q-0.53125 -0.65625 -2.171875 -0.890625l-2.296875 -0.3125q-3.6875 -0.453125 -5.40625 -2.21875q-1.71875 -1.78125 -1.71875 -4.703125q0 -1.5625 0.59375 -2.859375q0.609375 -1.3125 1.71875 -2.234375q1.125 -0.9375 2.734375 -1.453125q1.609375 -0.515625 3.6875 -0.515625q2.625 0 4.625 0.828125q2.0 0.828125 3.4375 2.4375l-3.375 3.390625q-0.828125 -0.96875 -2.015625 -1.578125q-1.171875 -0.625 -2.984375 -0.625q-1.6875 0 -2.53125 0.609375q-0.828125 0.59375 -0.828125 1.65625q0 1.203125 0.640625 1.734375q0.65625 0.53125 2.125 0.765625l2.296875 0.375q3.609375 0.5625 5.328125 2.21875q1.734375 1.640625 1.734375 4.671875q0 1.671875 -0.59375 3.078125q-0.59375 1.390625 -1.75 2.390625q-1.140625 1.0 -2.84375 1.5625q-1.703125 0.546875 -3.875 0.546875zm13.265442 -0.40625l0 -23.265625l15.828125 0l0 4.5l-10.765625 0l0 4.765625l9.234375 0l0 4.46875l-9.234375 0l0 5.03125l10.765625 0l0 4.5l-15.828125 0zm29.933289 -18.765625l0 18.765625l-5.0625 0l0 -18.765625l-6.296875 0l0 -4.5l17.65625 0l0 4.5l-6.296875 0zm14.557312 -4.5l0 14.265625q0 2.46875 0.96875 3.6875q0.96875 1.21875 3.234375 1.21875q2.265625 0 3.234375 -1.21875q0.96875 -1.21875 0.96875 -3.6875l0 -14.265625l4.9375 0l0 13.734375q0 2.5625 -0.484375 4.453125q-0.484375 1.875 -1.59375 3.09375q-1.09375 1.21875 -2.828125 1.8125q-1.734375 0.578125 -4.234375 0.578125q-2.5 0 -4.234375 -0.578125q-1.734375 -0.59375 -2.828125 -1.8125q-1.09375 -1.21875 -1.578125 -3.09375q-0.484375 -1.890625 -0.484375 -4.453125l0 -13.734375l4.921875 0zm18.332825 23.265625l0 -23.265625l11.0 0q1.640625 0 2.9375 0.5625q1.296875 0.546875 2.203125 1.515625q0.921875 0.953125 1.421875 2.34375q0.5 1.375 0.5 3.015625q0 1.65625 -0.5 3.03125q-0.5 1.359375 -1.421875 2.328125q-0.90625 0.96875 -2.203125 1.515625q-1.296875 0.546875 -2.9375 0.546875l-5.9375 0l0 8.40625l-5.0625 0zm5.0625 -12.796875l5.34375 0q1.125 0 1.765625 -0.578125q0.65625 -0.59375 0.65625 -1.71875l0 -1.46875q0 -1.140625 -0.65625 -1.71875q-0.640625 -0.578125 -1.765625 -0.578125l-5.34375 0l0 6.0625z"/></g></svg>