<svg version="1.1" viewBox="0.0 0.0 960.0 150.0" fill="none" stroke="none" stroke-linecap="square" stroke-miterlimit="10" xmlns:xlink="http://www.w3.org/1999/xlink" xmlns="http://www.w3.org/2000/svg"><clipPath id="gaf27a696d4_0_1.0"><path d="m0 0l960.0 0l0 150.0l-960.0 0l0 -150.0z" clip-rule="nonzero"/></clipPath><g clip-path="url(#gaf27a696d4_0_1.0)"><path fill="#fc7d0d" d="m0 0l960.0 0l0 150.0l-960.0 0z" fill-rule="evenodd"/><path fill="#000000" fill-opacity="0.0" d="m0 0l960.0 0l0 149.98425l-960.0 0z" fill-rule="evenodd"/><path fill="#ffffff" d="m210.61047 68.2265l0 18.765625l-5.0625 0l0 -18.765625l-6.296875 0l0 -4.5l17.65625 0l0 4.5l-6.296875 0zm9.760468 18.765625l0 -23.265625l15.828125 0l0 4.5l-10.765625 0l0 4.765625l9.234375 0l0 4.46875l-9.234375 0l0 5.03125l10.765625 0l0 4.5l-15.828125 0zm29.636383 0.40625q-2.375 0 -4.28125 -0.75q-1.890625 -0.75 -3.21875 -2.234375q-1.328125 -1.484375 -2.0625 -3.703125q-0.734375 -2.21875 -0.734375 -5.1875q0 -2.921875 0.734375 -5.203125q0.734375 -2.296875 2.0625 -3.84375q1.328125 -1.546875 3.21875 -2.34375q1.90625 -0.796875 4.28125 -0.796875q3.234375 0 5.328125 1.3125q2.09375 1.3125 3.359375 4.140625l-4.359375 2.265625q-0.46875 -1.453125 -1.453125 -2.328125q-0.984375 -0.890625 -2.875 -0.890625q-2.234375 0 -3.59375 1.453125q-1.34375 1.4375 -1.34375 4.203125l0 3.734375q0 2.765625 1.34375 4.21875q1.359375 1.453125 3.59375 1.453125q1.859375 0 2.96875 -1.015625q1.125 -1.015625 1.65625 -2.453125l4.140625 2.390625q-1.296875 2.671875 -3.421875 4.125q-2.109375 1.453125 -5.34375 1.453125zm26.227814 -9.9375l-8.875 0l0 9.53125l-5.0625 0l0 -23.265625l5.0625 0l0 9.265625l8.875 0l0 -9.265625l5.0625 0l0 23.265625l-5.0625 0l0 -9.53125zm17.301392 -1.46875l-2.234375 -4.671875l-0.109375 0l0 15.671875l-4.765625 0l0 -23.265625l5.53125 0l6.375 11.0l2.234375 4.671875l0.09375 0l0 -15.671875l4.765625 0l0 23.265625l-5.53125 0l-6.359375 -11.0zm16.129517 11.0l0 -4.03125l3.0 0l0 -15.203125l-3.0 0l0 -4.03125l11.0625 0l0 4.03125l-3.0 0l0 15.203125l3.0 0l0 4.03125l-11.0625 0zm24.69461 0.40625q-2.375 0 -4.28125 -0.75q-1.890625 -0.75 -3.21875 -2.234375q-1.328125 -1.484375 -2.0625 -3.703125q-0.734375 -2.21875 -0.734375 -5.1875q0 -2.921875 0.734375 -5.203125q0.734375 -2.296875 2.0625 -3.84375q1.328125 -1.546875 3.21875 -2.34375q1.90625 -0.796875 4.28125 -0.796875q3.234375 0 5.328125 1.3125q2.09375 1.3125 3.359375 4.140625l-4.359375 2.265625q-0.46875 -1.453125 -1.453125 -2.328125q-0.984375 -0.890625 -2.875 -0.890625q-2.234375 0 -3.59375 1.453125q-1.34375 1.4375 -1.34375 4.203125l0 3.734375q0 2.765625 1.34375 4.21875q1.359375 1.453125 3.59375 1.453125q1.859375 0 2.96875 -1.015625q1.125 -1.015625 1.65625 -2.453125l4.140625 2.390625q-1.296875 2.671875 -3.421875 4.125q-2.109375 1.453125 -5.34375 1.453125zm26.351746 -0.40625l-1.65625 -5.53125l-7.765625 0l-1.671875 5.53125l-5.125 0l7.65625 -23.265625l6.265625 0l7.5625 23.265625l-5.265625 0zm-5.5 -18.65625l-0.15625 0l-2.5625 8.828125l5.328125 0l-2.609375 -8.828125zm14.001587 18.65625l0 -23.265625l5.0625 0l0 18.765625l8.875 0l0 4.5l-13.9375 0zm29.201172 0l-5.265625 -23.265625l5.0 0l2.203125 11.171875l1.234375 6.46875l0.09375 0l1.46875 -6.46875l2.5625 -11.171875l5.53125 0l2.59375 11.171875l1.4375 6.46875l0.109375 0l1.21875 -6.46875l2.234375 -11.171875l4.8125 0l-5.40625 23.265625l-5.765625 0l-2.9375 -12.59375l-1.125 -5.109375l-0.109375 0l-1.15625 5.109375l-2.9375 12.59375l-5.796875 0zm33.818817 0l-5.0625 0l0 -23.265625l11.03125 0q1.609375 0 2.90625 0.53125q1.296875 0.53125 2.203125 1.515625q0.921875 0.984375 1.421875 2.359375q0.5 1.359375 0.5 3.03125q0 2.359375 -1.046875 4.125q-1.046875 1.765625 -3.1875 2.578125l4.578125 9.125l-5.640625 0l-4.0625 -8.53125l-3.640625 0l0 8.53125zm5.34375 -12.796875q1.125 0 1.765625 -0.578125q0.65625 -0.59375 0.65625 -1.71875l0 -1.46875q0 -1.140625 -0.65625 -1.71875q-0.640625 -0.578125 -1.765625 -0.578125l-5.34375 0l0 6.0625l5.34375 0zm11.166229 12.796875l0 -4.03125l3.0 0l0 -15.203125l-3.0 0l0 -4.03125l11.0625 0l0 4.03125l-3.0 0l0 15.203125l3.0 0l0 4.03125l-11.0625 0zm24.858154 -18.765625l0 18.765625l-5.0625 0l0 -18.765625l-6.296875 0l0 -4.5l17.65625 0l0 4.5l-6.296875 0zm8.736511 18.765625l0 -4.03125l3.0 0l0 -15.203125l-3.0 0l0 -4.03125l11.0625 0l0 4.03125l-3.0 0l0 15.203125l3.0 0l0 4.03125l-11.0625 0zm22.397705 -11.0l-2.234375 -4.671875l-0.109375 0l0 15.671875l-4.765625 0l0 -23.265625l5.53125 0l6.375 11.0l2.234375 4.671875l0.09375 0l0 -15.671875l4.765625 0l0 23.265625l-5.53125 0l-6.359375 -11.0zm31.785767 7.296875l-0.171875 0q-0.265625 1.765625 -1.796875 2.9375q-1.53125 1.171875 -4.15625 1.171875q-2.0 0 -3.734375 -0.765625q-1.734375 -0.78125 -3.03125 -2.265625q-1.296875 -1.5 -2.03125 -3.734375q-0.734375 -2.234375 -0.734375 -5.171875q0 -2.9375 0.765625 -5.203125q0.765625 -2.265625 2.140625 -3.796875q1.390625 -1.53125 3.3125 -2.328125q1.9375 -0.796875 4.3125 -0.796875q3.125 0 5.390625 1.34375q2.265625 1.34375 3.5625 4.046875l-4.125 2.375q-0.53125 -1.375 -1.671875 -2.3125q-1.125 -0.953125 -3.15625 -0.953125q-2.375 0 -3.78125 1.359375q-1.390625 1.359375 -1.390625 4.296875l0 3.734375q0 2.90625 1.390625 4.296875q1.40625 1.375 3.78125 1.375q0.921875 0 1.75 -0.21875q0.84375 -0.21875 1.46875 -0.671875q0.640625 -0.453125 0.984375 -1.078125q0.359375 -0.640625 0.359375 -1.5l0 -1.171875l-4.328125 0l0 -4.234375l9.15625 0l0 12.96875l-4.265625 0l0 -3.703125zm26.468933 4.109375q-2.375 0 -4.28125 -0.75q-1.890625 -0.75 -3.21875 -2.234375q-1.328125 -1.484375 -2.0625 -3.703125q-0.734375 -2.21875 -0.734375 -5.1875q0 -2.921875 0.734375 -5.203125q0.734375 -2.296875 2.0625 -3.84375q1.328125 -1.546875 3.21875 -2.34375q1.90625 -0.796875 4.28125 -0.796875q3.234375 0 5.328125 1.3125q2.09375 1.3125 3.359375 4.140625l-4.359375 2.265625q-0.46875 -1.453125 -1.453125 -2.328125q-0.984375 -0.890625 -2.875 -0.890625q-2.234375 0 -3.59375 1.453125q-1.34375 1.4375 -1.34375 4.203125l0 3.734375q0 2.765625 1.34375 4.21875q1.359375 1.453125 3.59375 1.453125q1.859375 0 2.96875 -1.015625q1.125 -1.015625 1.65625 -2.453125l4.140625 2.390625q-1.296875 2.671875 -3.421875 4.125q-2.109375 1.453125 -5.34375 1.453125zm26.227844 -9.9375l-8.875 0l0 9.53125l-5.0625 0l0 -23.265625l5.0625 0l0 9.265625l8.875 0l0 -9.265625l5.0625 0l0 23.265625l-5.0625 0l0 -9.53125zm10.192017 9.53125l0 -23.265625l15.828125 0l0 4.5l-10.765625 0l0 4.765625l9.234375 0l0 4.46875l-9.234375 0l0 5.03125l10.765625 0l0 4.5l-15.828125 0zm34.558228 0l-1.65625 -5.53125l-7.765625 0l-1.671875 5.53125l-5.125 0l7.65625 -23.265625l6.265625 0l7.5625 23.265625l-5.265625 0zm-5.5 -18.65625l-0.15625 0l-2.5625 8.828125l5.328125 0l-2.609375 -8.828125zm21.538025 -0.109375l0 18.765625l-5.0625 0l0 -18.765625l-6.296875 0l0 -4.5l17.65625 0l0 4.5l-6.296875 0zm16.891724 19.171875q-3.0625 0 -5.203125 -1.046875q-2.125 -1.0625 -3.625 -2.71875l3.328125 -3.375q2.375 2.671875 5.84375 2.671875q1.859375 0 2.75 -0.765625q0.90625 -0.765625 0.90625 -2.03125q0 -0.96875 -0.53125 -1.609375q-0.53125 -0.65625 -2.171875 -0.890625l-2.296875 -0.3125q-3.6875 -0.453125 -5.40625 -2.21875q-1.71875 -1.78125 -1.71875 -4.703125q0 -1.5625 0.59375 -2.859375q0.609375 -1.3125 1.71875 -2.234375q1.125 -0.9375 2.734375 -1.453125q1.609375 -0.515625 3.6875 -0.515625q2.625 0 4.625 0.828125q2.0 0.828125 3.4375 2.4375l-3.375 3.390625q-0.828125 -0.96875 -2.015625 -1.578125q-1.171875 -0.625 -2.984375 -0.625q-1.6875 0 -2.53125 0.609375q-0.828125 0.59375 -0.828125 1.65625q0 1.203125 0.640625 1.734375q0.65625 0.53125 2.125 0.765625l2.296875 0.375q3.609375 0.5625 5.328125 2.21875q1.734375 1.640625 1.734375 4.671875q0 1.671875 -0.59375 3.078125q-0.59375 1.390625 -1.75 2.390625q-1.140625 1.0 -2.84375 1.5625q-1.703125 0.546875 -3.875 0.546875zm27.202942 -9.9375l-8.875 0l0 9.53125l-5.0625 0l0 -23.265625l5.0625 0l0 9.265625l8.875 0l0 -9.265625l5.0625 0l0 23.265625l-5.0625 0l0 -9.53125zm10.192017 9.53125l0 -23.265625l15.828125 0l0 4.5l-10.765625 0l0 4.765625l9.234375 0l0 4.46875l-9.234375 0l0 5.03125l10.765625 0l0 4.5l-15.828125 0zm20.230103 0l0 -23.265625l15.828125 0l0 4.5l-10.765625 0l0 4.765625l9.234375 0l0 4.46875l-9.234375 0l0 5.03125l10.765625 0l0 4.5l-15.828125 0zm29.933228 -18.765625l0 18.765625l-5.0625 0l0 -18.765625l-6.296875 0l0 -4.5l17.65625 0l0 4.5l-6.296875 0z" fill-rule="nonzero"/></g></svg>