<svg xmlns="http://www.w3.org/2000/svg" xmlns:xlink="http://www.w3.org/1999/xlink" fill="none" stroke="none" stroke-linecap="square" stroke-miterlimit="10" version="1.1" viewBox="0 0 960 150"><clipPath id="gaf27a696d4_0_25.0"><path d="m0 0l960.0 0l0 150.0l-960.0 0l0 -150.0z" clip-rule="nonzero"/></clipPath><g clip-path="url(#gaf27a696d4_0_25.0)"><path fill="#666" fill-rule="evenodd" d="m0 0l960.0 0l0 150.0l-960.0 0z"/><path fill="#000" fill-opacity="0" fill-rule="evenodd" d="m0 0l960.0 0l0 149.98425l-960.0 0z"/><path fill="#fff" fill-rule="nonzero" d="m382.98535 86.99213l-7.5 -23.265625l5.125 0l3.46875 11.171875l1.828125 7.296875l0.109375 0l1.765625 -7.296875l3.46875 -11.171875l4.96875 0l-7.578125 23.265625l-5.65625 0zm16.256989 0l0 -23.265625l15.828125 0l0 4.5l-10.765625 0l0 4.765625l9.234375 0l0 4.46875l-9.234375 0l0 5.03125l10.765625 0l0 4.5l-15.828125 0zm25.292633 0l-5.0625 0l0 -23.265625l11.03125 0q1.609375 0 2.90625 0.53125q1.296875 0.53125 2.203125 1.515625q0.921875 0.984375 1.421875 2.359375q0.5 1.359375 0.5 3.03125q0 2.359375 -1.046875 4.125q-1.046875 1.765625 -3.1875 2.578125l4.578125 9.125l-5.640625 0l-4.0625 -8.53125l-3.640625 0l0 8.53125zm5.34375 -12.796875q1.125 0 1.765625 -0.578125q0.65625 -0.59375 0.65625 -1.71875l0 -1.46875q0 -1.140625 -0.65625 -1.71875q-0.640625 -0.578125 -1.765625 -0.578125l-5.34375 0l0 6.0625l5.34375 0zm19.588104 13.203125q-3.0625 0 -5.203125 -1.046875q-2.125 -1.0625 -3.625 -2.71875l3.328125 -3.375q2.375 2.671875 5.84375 2.671875q1.859375 0 2.75 -0.765625q0.90625 -0.765625 0.90625 -2.03125q0 -0.96875 -0.53125 -1.609375q-0.53125 -0.65625 -2.171875 -0.890625l-2.296875 -0.3125q-3.6875 -0.453125 -5.40625 -2.21875q-1.71875 -1.78125 -1.71875 -4.703125q0 -1.5625 0.59375 -2.859375q0.609375 -1.3125 1.71875 -2.234375q1.125 -0.9375 2.734375 -1.453125q1.609375 -0.515625 3.6875 -0.515625q2.625 0 4.625 0.828125q2.0 0.828125 3.4375 2.4375l-3.375 3.390625q-0.828125 -0.96875 -2.015625 -1.578125q-1.171875 -0.625 -2.984375 -0.625q-1.6875 0 -2.53125 0.609375q-0.828125 0.59375 -0.828125 1.65625q0 1.203125 0.640625 1.734375q0.65625 0.53125 2.125 0.765625l2.296875 0.375q3.609375 0.5625 5.328125 2.21875q1.734375 1.640625 1.734375 4.671875q0 1.671875 -0.59375 3.078125q-0.59375 1.390625 -1.75 2.390625q-1.140625 1.0 -2.84375 1.5625q-1.703125 0.546875 -3.875 0.546875zm12.374847 -0.40625l0 -4.03125l3.0 0l0 -15.203125l-3.0 0l0 -4.03125l11.0625 0l0 4.03125l-3.0 0l0 15.203125l3.0 0l0 4.03125l-11.0625 0zm24.616455 0.40625q-2.296875 0 -4.203125 -0.765625q-1.890625 -0.78125 -3.21875 -2.296875q-1.328125 -1.515625 -2.0625 -3.765625q-0.734375 -2.25 -0.734375 -5.203125q0 -2.96875 0.734375 -5.21875q0.734375 -2.25 2.0625 -3.765625q1.328125 -1.515625 3.21875 -2.28125q1.90625 -0.765625 4.203125 -0.765625q2.3125 0 4.203125 0.765625q1.90625 0.765625 3.234375 2.28125q1.328125 1.515625 2.0625 3.765625q0.734375 2.25 0.734375 5.21875q0 2.953125 -0.734375 5.203125q-0.734375 2.25 -2.0625 3.765625q-1.328125 1.515625 -3.234375 2.296875q-1.890625 0.765625 -4.203125 0.765625zm0 -4.5q2.3125 0 3.59375 -1.5q1.28125 -1.5 1.28125 -4.296875l0 -3.46875q0 -2.8125 -1.28125 -4.296875q-1.28125 -1.5 -3.59375 -1.5q-2.296875 0 -3.578125 1.5q-1.28125 1.484375 -1.28125 4.296875l0 3.46875q0 2.796875 1.28125 4.296875q1.28125 1.5 3.578125 1.5zm21.577484 -6.90625l-2.234375 -4.671875l-0.109375 0l0 15.671875l-4.765625 0l0 -23.265625l5.53125 0l6.3750305 11.0l2.234375 4.671875l0.09375 0l0 -15.671875l4.765625 0l0 23.265625l-5.53125 0l-6.3594055 -11.0zm16.129547 11.0l0 -4.03125l3.0 0l0 -15.203125l-3.0 0l0 -4.03125l11.0625 0l0 4.03125l-3.0 0l0 15.203125l3.0 0l0 4.03125l-11.0625 0zm22.397705 -11.0l-2.234375 -4.671875l-0.109375 0l0 15.671875l-4.765625 0l0 -23.265625l5.53125 0l6.375 11.0l2.234375 4.671875l0.09375 0l0 -15.671875l4.765625 0l0 23.265625l-5.53125 0l-6.359375 -11.0zm31.785767 7.296875l-0.171875 0q-0.265625 1.765625 -1.796875 2.9375q-1.53125 1.171875 -4.15625 1.171875q-2.0 0 -3.734375 -0.765625q-1.734375 -0.78125 -3.03125 -2.265625q-1.296875 -1.5 -2.03125 -3.734375q-0.734375 -2.234375 -0.734375 -5.171875q0 -2.9375 0.765625 -5.203125q0.765625 -2.265625 2.140625 -3.796875q1.390625 -1.53125 3.3125 -2.328125q1.9375 -0.796875 4.3125 -0.796875q3.125 0 5.390625 1.34375q2.265625 1.34375 3.5625 4.046875l-4.125 2.375q-0.53125 -1.375 -1.671875 -2.3125q-1.125 -0.953125 -3.15625 -0.953125q-2.375 0 -3.78125 1.359375q-1.390625 1.359375 -1.390625 4.296875l0 3.734375q0 2.90625 1.390625 4.296875q1.40625 1.375 3.78125 1.375q0.921875 0 1.75 -0.21875q0.84375 -0.21875 1.46875 -0.671875q0.640625 -0.453125 0.984375 -1.078125q0.359375 -0.640625 0.359375 -1.5l0 -1.171875l-4.328125 0l0 -4.234375l9.15625 0l0 12.96875l-4.265625 0l0 -3.703125z"/></g></svg>