<svg version="1.1" xmlns="http://www.w3.org/2000/svg" viewBox="0 0 960 876.8"><!--svg-source:excalidraw--><metadata/><defs/><rect x="0" y="0" width="960" height="876.8" fill="#ffffff"/><g transform="translate(10 10) rotate(0 218.4 18.200000000000003)"><text x="0" y="27.213671875" font-family="ui-monospace, SFMono-Regular, Menlo, Consolas, monospace" font-size="26px" fill="#00847f" text-anchor="start" style="white-space: pre" direction="ltr" dominant-baseline="alphabetic">What a region loss costs you</text></g><g transform="translate(10 50) rotate(0 373.5 21)"><text x="0" y="15.7001953125" font-family="ui-monospace, SFMono-Regular, Menlo, Consolas, monospace" font-size="15px" fill="#5a5a5a" text-anchor="start" style="white-space: pre" direction="ltr" dominant-baseline="alphabetic">The same event, in a two-zone and in a three-zone cluster. Time runs downward.</text><text x="0" y="36.7001953125" font-family="ui-monospace, SFMono-Regular, Menlo, Consolas, monospace" font-size="15px" fill="#5a5a5a" text-anchor="start" style="white-space: pre" direction="ltr" dominant-baseline="alphabetic">Triangle: incident. Play: operator action. Check: healthy. Dash: no such step here.</text></g><g transform="translate(10 136) rotate(0 118.80000000000001 12.599999999999994)"><text x="0" y="18.840234375" font-family="ui-monospace, SFMono-Regular, Menlo, Consolas, monospace" font-size="18px" fill="#1a1a1a" text-anchor="start" style="white-space: pre" direction="ltr" dominant-baseline="alphabetic">Dual-region, two zones</text></g><g transform="translate(510 136) rotate(0 167.39999999999998 12.599999999999994)"><text x="0" y="18.840234375" font-family="ui-monospace, SFMono-Regular, Menlo, Consolas, monospace" font-size="18px" fill="#17803d" text-anchor="start" style="white-space: pre" direction="ltr" dominant-baseline="alphabetic">Multi-Region RDBMS, three zones</text></g><g stroke-linecap="round" transform="translate(50 164) rotate(0 200 21)"><path d="M10.5 0 C159.78 0, 309.07 0, 389.5 0 C396.5 0, 400 3.5, 400 10.5 C400 18.83, 400 27.16, 400 31.5 C400 38.5, 396.5 42, 389.5 42 C258.61 42, 127.72 42, 10.5 42 C3.5 42, 0 38.5, 0 31.5 C0 26.15, 0 20.79, 0 10.5 C0 3.5, 3.5 0, 10.5 0" stroke="none" stroke-width="0" fill="#f7f7f7"/><path d="M10.5 0 C161.45 0, 312.4 0, 389.5 0 M10.5 0 C103.86 0, 197.22 0, 389.5 0 M389.5 0 C396.5 0, 400 3.5, 400 10.5 M389.5 0 C396.5 0, 400 3.5, 400 10.5 M400 10.5 C400 16.75, 400 23, 400 31.5 M400 10.5 C400 16.96, 400 23.42, 400 31.5 M400 31.5 C400 38.5, 396.5 42, 389.5 42 M400 31.5 C400 38.5, 396.5 42, 389.5 42 M389.5 42 C257.86 42, 126.23 42, 10.5 42 M389.5 42 C279.44 42, 169.38 42, 10.5 42 M10.5 42 C3.5 42, 0 38.5, 0 31.5 M10.5 42 C3.5 42, 0 38.5, 0 31.5 M0 31.5 C0 23.2, 0 14.9, 0 10.5 M0 31.5 C0 26.64, 0 21.78, 0 10.5 M0 10.5 C0 3.5, 3.5 0, 10.5 0 M0 10.5 C0 3.5, 3.5 0, 10.5 0" stroke="#5a5a5a" stroke-width="1" fill="none"/></g><g transform="translate(66 173.35) rotate(0 63 10.5)"><text x="0" y="15.7001953125" font-family="ui-monospace, SFMono-Regular, Menlo, Consolas, monospace" font-size="15px" fill="#5a5a5a" text-anchor="start" style="white-space: pre" direction="ltr" dominant-baseline="alphabetic">Zone B is lost</text></g><g stroke-linecap="round" transform="translate(50 218.4) rotate(0 200 30.999999999999986)"><path d="M15.5 0 C131.29 0, 247.08 0, 384.5 0 C394.83 0, 400 5.17, 400 15.5 C400 26.31, 400 37.12, 400 46.5 C400 56.83, 394.83 62, 384.5 62 C252.44 62, 120.38 62, 15.5 62 C5.17 62, 0 56.83, 0 46.5 C0 36.76, 0 27.01, 0 15.5 C0 5.17, 5.17 0, 15.5 0" stroke="none" stroke-width="0" fill="#ffffff"/><path d="M15.5 0 C162.48 0, 309.45 0, 384.5 0 M15.5 0 C118.19 0, 220.88 0, 384.5 0 M384.5 0 C394.83 0, 400 5.17, 400 15.5 M384.5 0 C394.83 0, 400 5.17, 400 15.5 M400 15.5 C400 21.78, 400 28.06, 400 46.5 M400 15.5 C400 23.09, 400 30.68, 400 46.5 M400 46.5 C400 56.83, 394.83 62, 384.5 62 M400 46.5 C400 56.83, 394.83 62, 384.5 62 M384.5 62 C295.44 62, 206.38 62, 15.5 62 M384.5 62 C242.32 62, 100.14 62, 15.5 62 M15.5 62 C5.17 62, 0 56.83, 0 46.5 M15.5 62 C5.17 62, 0 56.83, 0 46.5 M0 46.5 C0 36.7, 0 26.91, 0 15.5 M0 46.5 C0 37.51, 0 28.52, 0 15.5 M0 15.5 C0 5.17, 5.17 0, 15.5 0 M0 15.5 C0 5.17, 5.17 0, 15.5 0" stroke="#a67c00" stroke-width="1" fill="none"/></g><g transform="translate(66 227.75) rotate(0 162 10.5)"><text x="0" y="15.7001953125" font-family="ui-monospace, SFMono-Regular, Menlo, Consolas, monospace" font-size="15px" fill="#1a1a1a" text-anchor="start" style="white-space: pre" direction="ltr" dominant-baseline="alphabetic">Zeebe loses quorum, processing STOPS</text></g><g transform="translate(66 246.45) rotate(0 159.9 9.099999999999994)"><text x="0" y="13.6068359375" font-family="ui-monospace, SFMono-Regular, Menlo, Consolas, monospace" font-size="13px" fill="#5a5a5a" text-anchor="start" style="white-space: pre" direction="ltr" dominant-baseline="alphabetic">every partition is down to 1 replica of 2</text></g><g stroke-linecap="round" transform="translate(50 289.8) rotate(0 200 31)"><path d="M15.5 0 C116.49 0, 217.47 0, 384.5 0 C394.83 0, 400 5.17, 400 15.5 C400 26.4, 400 37.3, 400 46.5 C400 56.83, 394.83 62, 384.5 62 C295.47 62, 206.45 62, 15.5 62 C5.17 62, 0 56.83, 0 46.5 C0 38.43, 0 30.36, 0 15.5 C0 5.17, 5.17 0, 15.5 0" stroke="none" stroke-width="0" fill="#ffffff"/><path d="M15.5 0 C162.49 0, 309.48 0, 384.5 0 M15.5 0 C109.32 0, 203.14 0, 384.5 0 M384.5 0 C394.83 0, 400 5.17, 400 15.5 M384.5 0 C394.83 0, 400 5.17, 400 15.5 M400 15.5 C400 26.12, 400 36.74, 400 46.5 M400 15.5 C400 26.69, 400 37.88, 400 46.5 M400 46.5 C400 56.83, 394.83 62, 384.5 62 M400 46.5 C400 56.83, 394.83 62, 384.5 62 M384.5 62 C249.17 62, 113.85 62, 15.5 62 M384.5 62 C269.42 62, 154.33 62, 15.5 62 M15.5 62 C5.17 62, 0 56.83, 0 46.5 M15.5 62 C5.17 62, 0 56.83, 0 46.5 M0 46.5 C0 39.97, 0 33.45, 0 15.5 M0 46.5 C0 37.16, 0 27.82, 0 15.5 M0 15.5 C0 5.17, 5.17 0, 15.5 0 M0 15.5 C0 5.17, 5.17 0, 15.5 0" stroke="#9b7ede" stroke-width="1" fill="none"/></g><g transform="translate(66 299.15) rotate(0 130.5 10.5)"><text x="0" y="15.7001953125" font-family="ui-monospace, SFMono-Regular, Menlo, Consolas, monospace" font-size="15px" fill="#1a1a1a" text-anchor="start" style="white-space: pre" direction="ltr" dominant-baseline="alphabetic">Force-remove the lost brokers</text></g><g transform="translate(66 317.85) rotate(0 132.6 9.099999999999994)"><text x="0" y="13.6068359375" font-family="ui-monospace, SFMono-Regular, Menlo, Consolas, monospace" font-size="13px" fill="#5a5a5a" text-anchor="start" style="white-space: pre" direction="ltr" dominant-baseline="alphabetic">processing only resumes after this</text></g><g stroke-linecap="round" transform="translate(50 361.2) rotate(0 200 21)"><path d="M10.5 0 C99.02 0, 187.53 0, 389.5 0 C396.5 0, 400 3.5, 400 10.5 C400 17.94, 400 25.39, 400 31.5 C400 38.5, 396.5 42, 389.5 42 C266.46 42, 143.42 42, 10.5 42 C3.5 42, 0 38.5, 0 31.5 C0 27.17, 0 22.84, 0 10.5 C0 3.5, 3.5 0, 10.5 0" stroke="none" stroke-width="0" fill="#ffffff"/><path d="M10.5 0 C161.49 0, 312.47 0, 389.5 0 M10.5 0 C97.75 0, 184.99 0, 389.5 0 M389.5 0 C396.5 0, 400 3.5, 400 10.5 M389.5 0 C396.5 0, 400 3.5, 400 10.5 M400 10.5 C400 16.43, 400 22.37, 400 31.5 M400 10.5 C400 16.32, 400 22.14, 400 31.5 M400 31.5 C400 38.5, 396.5 42, 389.5 42 M400 31.5 C400 38.5, 396.5 42, 389.5 42 M389.5 42 C278.79 42, 168.07 42, 10.5 42 M389.5 42 C299.13 42, 208.76 42, 10.5 42 M10.5 42 C3.5 42, 0 38.5, 0 31.5 M10.5 42 C3.5 42, 0 38.5, 0 31.5 M0 31.5 C0 25.1, 0 18.69, 0 10.5 M0 31.5 C0 24.93, 0 18.37, 0 10.5 M0 10.5 C0 3.5, 3.5 0, 10.5 0 M0 10.5 C0 3.5, 3.5 0, 10.5 0" stroke="#9b7ede" stroke-width="1" fill="none"/></g><g transform="translate(66 370.54999999999995) rotate(0 135 10.5)"><text x="0" y="15.7001953125" font-family="ui-monospace, SFMono-Regular, Menlo, Consolas, monospace" font-size="15px" fill="#1a1a1a" text-anchor="start" style="white-space: pre" direction="ltr" dominant-baseline="alphabetic">Disable the exporter to zone B</text></g><g stroke-linecap="round" transform="translate(50 415.6) rotate(0 200 21)"><path d="M10.5 0 C144.46 0, 278.42 0, 389.5 0 C396.5 0, 400 3.5, 400 10.5 C400 16.94, 400 23.38, 400 31.5 C400 38.5, 396.5 42, 389.5 42 C261.71 42, 133.92 42, 10.5 42 C3.5 42, 0 38.5, 0 31.5 C0 25.92, 0 20.34, 0 10.5 C0 3.5, 3.5 0, 10.5 0" stroke="none" stroke-width="0" fill="#ffffff"/><path d="M10.5 0 C161.5 0, 312.49 0, 389.5 0 M10.5 0 C109.86 0, 209.22 0, 389.5 0 M389.5 0 C396.5 0, 400 3.5, 400 10.5 M389.5 0 C396.5 0, 400 3.5, 400 10.5 M400 10.5 C400 18.64, 400 26.78, 400 31.5 M400 10.5 C400 15, 400 19.5, 400 31.5 M400 31.5 C400 38.5, 396.5 42, 389.5 42 M400 31.5 C400 38.5, 396.5 42, 389.5 42 M389.5 42 C243.15 42, 96.8 42, 10.5 42 M389.5 42 C263.16 42, 136.81 42, 10.5 42 M10.5 42 C3.5 42, 0 38.5, 0 31.5 M10.5 42 C3.5 42, 0 38.5, 0 31.5 M0 31.5 C0 26.76, 0 22.02, 0 10.5 M0 31.5 C0 23.71, 0 15.91, 0 10.5 M0 10.5 C0 3.5, 3.5 0, 10.5 0 M0 10.5 C0 3.5, 3.5 0, 10.5 0" stroke="#1d9e4b" stroke-width="1" fill="none"/></g><g transform="translate(66 424.95) rotate(0 81 10.5)"><text x="0" y="15.7001953125" font-family="ui-monospace, SFMono-Regular, Menlo, Consolas, monospace" font-size="15px" fill="#17803d" text-anchor="start" style="white-space: pre" direction="ltr" dominant-baseline="alphabetic">Processing resumes</text></g><g stroke-linecap="round" transform="translate(50 470) rotate(0 200 21)"><path d="M10.5 0 C114.1 0, 217.71 0, 389.5 0 C396.5 0, 400 3.5, 400 10.5 C400 15.93, 400 21.37, 400 31.5 C400 38.5, 396.5 42, 389.5 42 C256.96 42, 124.42 42, 10.5 42 C3.5 42, 0 38.5, 0 31.5 C0 24.67, 0 17.85, 0 10.5 C0 3.5, 3.5 0, 10.5 0" stroke="none" stroke-width="0" fill="#ffffff"/><path d="M10.5 0 C161.51 0, 312.51 0, 389.5 0 M10.5 0 C121.97 0, 233.45 0, 389.5 0 M389.5 0 C396.5 0, 400 3.5, 400 10.5 M389.5 0 C396.5 0, 400 3.5, 400 10.5 M400 10.5 C400 16.65, 400 22.79, 400 31.5 M400 10.5 C400 17.88, 400 25.26, 400 31.5 M400 31.5 C400 38.5, 396.5 42, 389.5 42 M400 31.5 C400 38.5, 396.5 42, 389.5 42 M389.5 42 C283.31 42, 177.12 42, 10.5 42 M389.5 42 C302.98 42, 216.46 42, 10.5 42 M10.5 42 C3.5 42, 0 38.5, 0 31.5 M10.5 42 C3.5 42, 0 38.5, 0 31.5 M0 31.5 C0 24.22, 0 16.94, 0 10.5 M0 31.5 C0 26.68, 0 21.85, 0 10.5 M0 10.5 C0 3.5, 3.5 0, 10.5 0 M0 10.5 C0 3.5, 3.5 0, 10.5 0" stroke="#9b7ede" stroke-width="1" fill="none"/></g><g transform="translate(66 479.34999999999997) rotate(0 112.5 10.499999999999972)"><text x="0" y="15.7001953125" font-family="ui-monospace, SFMono-Regular, Menlo, Consolas, monospace" font-size="15px" fill="#1a1a1a" text-anchor="start" style="white-space: pre" direction="ltr" dominant-baseline="alphabetic">Failback: redeploy zone B</text></g><g stroke-linecap="round" transform="translate(50 524.4) rotate(0 200 31)"><path d="M15.5 0 C160.62 0, 305.73 0, 384.5 0 C394.83 0, 400 5.17, 400 15.5 C400 22.04, 400 28.57, 400 46.5 C400 56.83, 394.83 62, 384.5 62 C250.83 62, 117.17 62, 15.5 62 C5.17 62, 0 56.83, 0 46.5 C0 34.58, 0 22.66, 0 15.5 C0 5.17, 5.17 0, 15.5 0" stroke="none" stroke-width="0" fill="#ffffff"/><path d="M15.5 0 C162.53 0, 309.56 0, 384.5 0 M15.5 0 C135.83 0, 256.15 0, 384.5 0 M384.5 0 C394.83 0, 400 5.17, 400 15.5 M384.5 0 C394.83 0, 400 5.17, 400 15.5 M400 15.5 C400 27.83, 400 40.15, 400 46.5 M400 15.5 C400 24.44, 400 33.39, 400 46.5 M400 46.5 C400 56.83, 394.83 62, 384.5 62 M400 46.5 C400 56.83, 394.83 62, 384.5 62 M384.5 62 C246.41 62, 108.32 62, 15.5 62 M384.5 62 C265.24 62, 145.97 62, 15.5 62 M15.5 62 C5.17 62, 0 56.83, 0 46.5 M15.5 62 C5.17 62, 0 56.83, 0 46.5 M0 46.5 C0 38.21, 0 29.91, 0 15.5 M0 46.5 C0 37.57, 0 28.63, 0 15.5 M0 15.5 C0 5.17, 5.17 0, 15.5 0 M0 15.5 C0 5.17, 5.17 0, 15.5 0" stroke="#9b7ede" stroke-width="1" fill="none"/></g><g transform="translate(66 533.75) rotate(0 189 10.5)"><text x="0" y="15.7001953125" font-family="ui-monospace, SFMono-Regular, Menlo, Consolas, monospace" font-size="15px" fill="#1a1a1a" text-anchor="start" style="white-space: pre" direction="ltr" dominant-baseline="alphabetic">Snapshot and restore the secondary storage</text></g><g transform="translate(66 552.45) rotate(0 152.1 9.100000000000023)"><text x="0" y="13.6068359375" font-family="ui-monospace, SFMono-Regular, Menlo, Consolas, monospace" font-size="13px" fill="#5a5a5a" text-anchor="start" style="white-space: pre" direction="ltr" dominant-baseline="alphabetic">zone B has no copy of the exported data</text></g><g stroke-linecap="round" transform="translate(50 595.8) rotate(0 200 21)"><path d="M10.5 0 C144.34 0, 278.19 0, 389.5 0 C396.5 0, 400 3.5, 400 10.5 C400 14.99, 400 19.48, 400 31.5 C400 38.5, 396.5 42, 389.5 42 C296.41 42, 203.33 42, 10.5 42 C3.5 42, 0 38.5, 0 31.5 C0 24.56, 0 17.62, 0 10.5 C0 3.5, 3.5 0, 10.5 0" stroke="none" stroke-width="0" fill="#ffffff"/><path d="M10.5 0 C161.53 0, 312.56 0, 389.5 0 M10.5 0 C124.97 0, 239.44 0, 389.5 0 M389.5 0 C396.5 0, 400 3.5, 400 10.5 M389.5 0 C396.5 0, 400 3.5, 400 10.5 M400 10.5 C400 17.59, 400 24.68, 400 31.5 M400 10.5 C400 14.8, 400 19.1, 400 31.5 M400 31.5 C400 38.5, 396.5 42, 389.5 42 M400 31.5 C400 38.5, 396.5 42, 389.5 42 M389.5 42 C275.95 42, 162.4 42, 10.5 42 M389.5 42 C294.84 42, 200.18 42, 10.5 42 M10.5 42 C3.5 42, 0 38.5, 0 31.5 M10.5 42 C3.5 42, 0 38.5, 0 31.5 M0 31.5 C0 23.9, 0 16.3, 0 10.5 M0 31.5 C0 25.21, 0 18.92, 0 10.5 M0 10.5 C0 3.5, 3.5 0, 10.5 0 M0 10.5 C0 3.5, 3.5 0, 10.5 0" stroke="#1d9e4b" stroke-width="1" fill="none"/></g><g transform="translate(66 605.15) rotate(0 99 10.5)"><text x="0" y="15.7001953125" font-family="ui-monospace, SFMono-Regular, Menlo, Consolas, monospace" font-size="15px" fill="#17803d" text-anchor="start" style="white-space: pre" direction="ltr" dominant-baseline="alphabetic">Cluster is whole again</text></g><g stroke-linecap="round"><g transform="translate(26 175.9) rotate(0 0 221.85000000000002)"><path d="M0 0 C0 176.82, 0 353.64, 0 443.7 M0 0 C0 173.05, 0 346.1, 0 443.7" stroke="#9b7ede" stroke-width="2" fill="none"/></g></g><mask/><g stroke-linecap="round" transform="translate(550 164) rotate(0 200 21)"><path d="M10.5 0 C129.14 0, 247.77 0, 389.5 0 C396.5 0, 400 3.5, 400 10.5 C400 15.05, 400 19.6, 400 31.5 C400 38.5, 396.5 42, 389.5 42 C264.81 42, 140.13 42, 10.5 42 C3.5 42, 0 38.5, 0 31.5 C0 25.7, 0 19.89, 0 10.5 C0 3.5, 3.5 0, 10.5 0" stroke="none" stroke-width="0" fill="#f7f7f7"/><path d="M10.5 0 C161.54 0, 312.59 0, 389.5 0 M10.5 0 C115.86 0, 221.22 0, 389.5 0 M389.5 0 C396.5 0, 400 3.5, 400 10.5 M389.5 0 C396.5 0, 400 3.5, 400 10.5 M400 10.5 C400 16.33, 400 22.16, 400 31.5 M400 10.5 C400 17.24, 400 23.98, 400 31.5 M400 31.5 C400 38.5, 396.5 42, 389.5 42 M400 31.5 C400 38.5, 396.5 42, 389.5 42 M389.5 42 C304.23 42, 218.96 42, 10.5 42 M389.5 42 C246.87 42, 104.24 42, 10.5 42 M10.5 42 C3.5 42, 0 38.5, 0 31.5 M10.5 42 C3.5 42, 0 38.5, 0 31.5 M0 31.5 C0 26.11, 0 20.73, 0 10.5 M0 31.5 C0 24.97, 0 18.44, 0 10.5 M0 10.5 C0 3.5, 3.5 0, 10.5 0 M0 10.5 C0 3.5, 3.5 0, 10.5 0" stroke="#5a5a5a" stroke-width="1" fill="none"/></g><g transform="translate(566 173.35) rotate(0 63 10.5)"><text x="0" y="15.7001953125" font-family="ui-monospace, SFMono-Regular, Menlo, Consolas, monospace" font-size="15px" fill="#5a5a5a" text-anchor="start" style="white-space: pre" direction="ltr" dominant-baseline="alphabetic">Zone C is lost</text></g><g stroke-linecap="round" transform="translate(550 218.4) rotate(0 200 30.999999999999986)"><path d="M15.5 0 C101.45 0, 187.4 0, 384.5 0 C394.83 0, 400 5.17, 400 15.5 C400 26.93, 400 38.36, 400 46.5 C400 56.83, 394.83 62, 384.5 62 C258.48 62, 132.46 62, 15.5 62 C5.17 62, 0 56.83, 0 46.5 C0 36.09, 0 25.68, 0 15.5 C0 5.17, 5.17 0, 15.5 0" stroke="none" stroke-width="0" fill="#ffffff"/><path d="M15.5 0 C162.57 0, 309.64 0, 384.5 0 M15.5 0 C129.87 0, 244.24 0, 384.5 0 M384.5 0 C394.83 0, 400 5.17, 400 15.5 M384.5 0 C394.83 0, 400 5.17, 400 15.5 M400 15.5 C400 27.36, 400 39.23, 400 46.5 M400 15.5 C400 23.5, 400 31.5, 400 46.5 M400 46.5 C400 56.83, 394.83 62, 384.5 62 M400 46.5 C400 56.83, 394.83 62, 384.5 62 M384.5 62 C266.78 62, 149.07 62, 15.5 62 M384.5 62 C284.41 62, 184.31 62, 15.5 62 M15.5 62 C5.17 62, 0 56.83, 0 46.5 M15.5 62 C5.17 62, 0 56.83, 0 46.5 M0 46.5 C0 34.8, 0 23.1, 0 15.5 M0 46.5 C0 35.05, 0 23.6, 0 15.5 M0 15.5 C0 5.17, 5.17 0, 15.5 0 M0 15.5 C0 5.17, 5.17 0, 15.5 0" stroke="#1d9e4b" stroke-width="1" fill="none"/></g><g transform="translate(566 224.4) rotate(0 162 10.5)"><text x="0" y="15.7001953125" font-family="ui-monospace, SFMono-Regular, Menlo, Consolas, monospace" font-size="15px" fill="#17803d" text-anchor="start" style="white-space: pre" direction="ltr" dominant-baseline="alphabetic">Quorum holds: 3 of 5 replicas survive</text></g><g transform="translate(566 244.4) rotate(0 165.6 16.8)"><text x="0" y="12.56015625" font-family="ui-monospace, SFMono-Regular, Menlo, Consolas, monospace" font-size="12px" fill="#5a5a5a" text-anchor="start" style="white-space: pre" direction="ltr" dominant-baseline="alphabetic">Lost leaders are re-elected automatically.</text><text x="0" y="29.36015625" font-family="ui-monospace, SFMono-Regular, Menlo, Consolas, monospace" font-size="12px" fill="#5a5a5a" text-anchor="start" direction="ltr" dominant-baseline="alphabetic">Affected partitions briefly pause, then resume.</text></g><g stroke-linecap="round" transform="translate(550 289.8) rotate(0 200 31)"><path d="M15.5 0 C160.45 0, 305.39 0, 384.5 0 C394.83 0, 400 5.17, 400 15.5 C400 27.02, 400 38.54, 400 46.5 C400 56.83, 394.83 62, 384.5 62 C301.51 62, 218.53 62, 15.5 62 C5.17 62, 0 56.83, 0 46.5 C0 37.77, 0 29.03, 0 15.5 C0 5.17, 5.17 0, 15.5 0" stroke="none" stroke-width="0" fill="#ffffff"/><path d="M15.5 0 C162.58 0, 309.66 0, 384.5 0 M15.5 0 C121 0, 226.5 0, 384.5 0 M384.5 0 C394.83 0, 400 5.17, 400 15.5 M384.5 0 C394.83 0, 400 5.17, 400 15.5 M400 15.5 C400 25.5, 400 35.51, 400 46.5 M400 15.5 C400 27.1, 400 38.7, 400 46.5 M400 46.5 C400 56.83, 394.83 62, 384.5 62 M400 46.5 C400 56.83, 394.83 62, 384.5 62 M384.5 62 C294.32 62, 204.14 62, 15.5 62 M384.5 62 C237.71 62, 90.91 62, 15.5 62 M15.5 62 C5.17 62, 0 56.83, 0 46.5 M15.5 62 C5.17 62, 0 56.83, 0 46.5 M0 46.5 C0 38.07, 0 29.65, 0 15.5 M0 46.5 C0 34.7, 0 22.9, 0 15.5 M0 15.5 C0 5.17, 5.17 0, 15.5 0 M0 15.5 C0 5.17, 5.17 0, 15.5 0" stroke="#9b7ede" stroke-width="1" fill="none"/></g><g transform="translate(566 299.15) rotate(0 121.5 10.5)"><text x="0" y="15.7001953125" font-family="ui-monospace, SFMono-Regular, Menlo, Consolas, monospace" font-size="15px" fill="#1a1a1a" text-anchor="start" style="white-space: pre" direction="ltr" dominant-baseline="alphabetic">Promote the database writer</text></g><g transform="translate(566 317.85) rotate(0 124.80000000000001 9.099999999999994)"><text x="0" y="13.6068359375" font-family="ui-monospace, SFMono-Regular, Menlo, Consolas, monospace" font-size="13px" fill="#5a5a5a" text-anchor="start" style="white-space: pre" direction="ltr" dominant-baseline="alphabetic">only if the writer was in zone C</text></g><g stroke-linecap="round" transform="translate(550 361.2) rotate(0 200 31)"><path d="M15.5 0 C145.64 0, 275.78 0, 384.5 0 C394.83 0, 400 5.17, 400 15.5 C400 27.11, 400 38.71, 400 46.5 C400 56.83, 394.83 62, 384.5 62 C270.75 62, 157 62, 15.5 62 C5.17 62, 0 56.83, 0 46.5 C0 39.44, 0 32.39, 0 15.5 C0 5.17, 5.17 0, 15.5 0" stroke="none" stroke-width="0" fill="#ffffff"/><path d="M15.5 0 C162.59 0, 309.69 0, 384.5 0 M15.5 0 C112.12 0, 208.75 0, 384.5 0 M384.5 0 C394.83 0, 400 5.17, 400 15.5 M384.5 0 C394.83 0, 400 5.17, 400 15.5 M400 15.5 C400 23.64, 400 31.79, 400 46.5 M400 15.5 C400 24.5, 400 33.5, 400 46.5 M400 46.5 C400 56.83, 394.83 62, 384.5 62 M400 46.5 C400 56.83, 394.83 62, 384.5 62 M384.5 62 C248.05 62, 111.6 62, 15.5 62 M384.5 62 C264.8 62, 145.11 62, 15.5 62 M15.5 62 C5.17 62, 0 56.83, 0 46.5 M15.5 62 C5.17 62, 0 56.83, 0 46.5 M0 46.5 C0 35.15, 0 23.79, 0 15.5 M0 46.5 C0 34.35, 0 22.19, 0 15.5 M0 15.5 C0 5.17, 5.17 0, 15.5 0 M0 15.5 C0 5.17, 5.17 0, 15.5 0" stroke="#9b7ede" stroke-width="1" fill="none"/></g><g transform="translate(566 370.54999999999995) rotate(0 90 10.5)"><text x="0" y="15.7001953125" font-family="ui-monospace, SFMono-Regular, Menlo, Consolas, monospace" font-size="15px" fill="#1a1a1a" text-anchor="start" style="white-space: pre" direction="ltr" dominant-baseline="alphabetic">Remove the lost zone</text></g><g transform="translate(566 389.25) rotate(0 132.60000000000002 9.099999999999994)"><text x="0" y="13.6068359375" font-family="ui-monospace, SFMono-Regular, Menlo, Consolas, monospace" font-size="13px" fill="#5a5a5a" text-anchor="start" style="white-space: pre" direction="ltr" dominant-baseline="alphabetic">recommended, not needed for quorum</text></g><g stroke-linecap="round" transform="translate(550 432.59999999999997) rotate(0 200 30.99999999999997)"><path d="M15.5 0 C130.83 0, 246.17 0, 384.5 0 C394.83 0, 400 5.17, 400 15.5 C400 27.19, 400 38.89, 400 46.5 C400 56.83, 394.83 62, 384.5 62 C239.98 62, 95.46 62, 15.5 62 C5.17 62, 0 56.83, 0 46.5 C0 34.92, 0 23.34, 0 15.5 C0 5.17, 5.17 0, 15.5 0" stroke="none" stroke-width="0" fill="#f7f7f7"/><path d="M15.5 0 C162.61 0, 309.72 0, 384.5 0 M15.5 0 C103.25 0, 191 0, 384.5 0 M384.5 0 C394.83 0, 400 5.17, 400 15.5 M384.5 0 C394.83 0, 400 5.17, 400 15.5 M400 15.5 C400 21.79, 400 28.07, 400 46.5 M400 15.5 C400 21.9, 400 28.3, 400 46.5 M400 46.5 C400 56.83, 394.83 62, 384.5 62 M400 46.5 C400 56.83, 394.83 62, 384.5 62 M384.5 62 C275.59 62, 166.67 62, 15.5 62 M384.5 62 C291.9 62, 199.31 62, 15.5 62 M15.5 62 C5.17 62, 0 56.83, 0 46.5 M15.5 62 C5.17 62, 0 56.83, 0 46.5 M0 46.5 C0 38.42, 0 30.33, 0 15.5 M0 46.5 C0 40.2, 0 33.89, 0 15.5 M0 15.5 C0 5.17, 5.17 0, 15.5 0 M0 15.5 C0 5.17, 5.17 0, 15.5 0" stroke="#5a5a5a" stroke-width="1" fill="none"/></g><g transform="translate(566 441.95) rotate(0 81 10.5)"><text x="0" y="15.7001953125" font-family="ui-monospace, SFMono-Regular, Menlo, Consolas, monospace" font-size="15px" fill="#5a5a5a" text-anchor="start" style="white-space: pre" direction="ltr" dominant-baseline="alphabetic">Nothing to disable</text></g><g transform="translate(566 460.65) rotate(0 152.10000000000002 9.099999999999994)"><text x="0" y="13.6068359375" font-family="ui-monospace, SFMono-Regular, Menlo, Consolas, monospace" font-size="13px" fill="#5a5a5a" text-anchor="start" style="white-space: pre" direction="ltr" dominant-baseline="alphabetic">there is one exporter, and one database</text></g><g stroke-linecap="round" transform="translate(550 504) rotate(0 200 21)"><path d="M10.5 0 C113.75 0, 217 0, 389.5 0 C396.5 0, 400 3.5, 400 10.5 C400 18.48, 400 26.46, 400 31.5 C400 38.5, 396.5 42, 389.5 42 C285.27 42, 181.03 42, 10.5 42 C3.5 42, 0 38.5, 0 31.5 C0 24.79, 0 18.08, 0 10.5 C0 3.5, 3.5 0, 10.5 0" stroke="none" stroke-width="0" fill="#ffffff"/><path d="M10.5 0 C161.61 0, 312.72 0, 389.5 0 M10.5 0 C91.51 0, 172.53 0, 389.5 0 M389.5 0 C396.5 0, 400 3.5, 400 10.5 M389.5 0 C396.5 0, 400 3.5, 400 10.5 M400 10.5 C400 17.7, 400 24.9, 400 31.5 M400 10.5 C400 17.28, 400 24.05, 400 31.5 M400 31.5 C400 38.5, 396.5 42, 389.5 42 M400 31.5 C400 38.5, 396.5 42, 389.5 42 M389.5 42 C305.92 42, 222.33 42, 10.5 42 M389.5 42 C246.43 42, 103.35 42, 10.5 42 M10.5 42 C3.5 42, 0 38.5, 0 31.5 M10.5 42 C3.5 42, 0 38.5, 0 31.5 M0 31.5 C0 24.04, 0 16.58, 0 10.5 M0 31.5 C0 26.99, 0 22.48, 0 10.5 M0 10.5 C0 3.5, 3.5 0, 10.5 0 M0 10.5 C0 3.5, 3.5 0, 10.5 0" stroke="#9b7ede" stroke-width="1" fill="none"/></g><g transform="translate(566 513.3499999999999) rotate(0 112.5 10.5)"><text x="0" y="15.7001953125" font-family="ui-monospace, SFMono-Regular, Menlo, Consolas, monospace" font-size="15px" fill="#1a1a1a" text-anchor="start" style="white-space: pre" direction="ltr" dominant-baseline="alphabetic">Failback: redeploy zone C</text></g><g stroke-linecap="round" transform="translate(550 558.4) rotate(0 200 31)"><path d="M15.5 0 C160.27 0, 305.05 0, 384.5 0 C394.83 0, 400 5.17, 400 15.5 C400 25.8, 400 36.1, 400 46.5 C400 56.83, 394.83 62, 384.5 62 C278.39 62, 172.28 62, 15.5 62 C5.17 62, 0 56.83, 0 46.5 C0 34.75, 0 23.01, 0 15.5 C0 5.17, 5.17 0, 15.5 0" stroke="none" stroke-width="0" fill="#f7f7f7"/><path d="M15.5 0 C162.63 0, 309.76 0, 384.5 0 M15.5 0 C106.17 0, 196.84 0, 384.5 0 M384.5 0 C394.83 0, 400 5.17, 400 15.5 M384.5 0 C394.83 0, 400 5.17, 400 15.5 M400 15.5 C400 23.18, 400 30.86, 400 46.5 M400 15.5 C400 23.56, 400 31.61, 400 46.5 M400 46.5 C400 56.83, 394.83 62, 384.5 62 M400 46.5 C400 56.83, 394.83 62, 384.5 62 M384.5 62 C268.42 62, 152.35 62, 15.5 62 M384.5 62 C283.97 62, 183.45 62, 15.5 62 M15.5 62 C5.17 62, 0 56.83, 0 46.5 M15.5 62 C5.17 62, 0 56.83, 0 46.5 M0 46.5 C0 37.94, 0 29.38, 0 15.5 M0 46.5 C0 38.03, 0 29.56, 0 15.5 M0 15.5 C0 5.17, 5.17 0, 15.5 0 M0 15.5 C0 5.17, 5.17 0, 15.5 0" stroke="#5a5a5a" stroke-width="1" fill="none"/></g><g transform="translate(566 567.75) rotate(0 81 10.5)"><text x="0" y="15.7001953125" font-family="ui-monospace, SFMono-Regular, Menlo, Consolas, monospace" font-size="15px" fill="#5a5a5a" text-anchor="start" style="white-space: pre" direction="ltr" dominant-baseline="alphabetic">Nothing to restore</text></g><g transform="translate(566 586.45) rotate(0 171.60000000000002 9.100000000000023)"><text x="0" y="13.6068359375" font-family="ui-monospace, SFMono-Regular, Menlo, Consolas, monospace" font-size="13px" fill="#5a5a5a" text-anchor="start" style="white-space: pre" direction="ltr" dominant-baseline="alphabetic">the database already holds the exported data</text></g><g stroke-linecap="round" transform="translate(550 629.8) rotate(0 200 21)"><path d="M10.5 0 C143.99 0, 277.48 0, 389.5 0 C396.5 0, 400 3.5, 400 10.5 C400 17.54, 400 24.57, 400 31.5 C400 38.5, 396.5 42, 389.5 42 C248.92 42, 108.33 42, 10.5 42 C3.5 42, 0 38.5, 0 31.5 C0 24.68, 0 17.86, 0 10.5 C0 3.5, 3.5 0, 10.5 0" stroke="none" stroke-width="0" fill="#ffffff"/><path d="M10.5 0 C161.63 0, 312.76 0, 389.5 0 M10.5 0 C94.51 0, 178.52 0, 389.5 0 M389.5 0 C396.5 0, 400 3.5, 400 10.5 M389.5 0 C396.5 0, 400 3.5, 400 10.5 M400 10.5 C400 18.64, 400 26.79, 400 31.5 M400 10.5 C400 18.4, 400 26.29, 400 31.5 M400 31.5 C400 38.5, 396.5 42, 389.5 42 M400 31.5 C400 38.5, 396.5 42, 389.5 42 M389.5 42 C298.56 42, 207.62 42, 10.5 42 M389.5 42 C238.28 42, 87.07 42, 10.5 42 M10.5 42 C3.5 42, 0 38.5, 0 31.5 M10.5 42 C3.5 42, 0 38.5, 0 31.5 M0 31.5 C0 23.72, 0 15.94, 0 10.5 M0 31.5 C0 25.53, 0 19.55, 0 10.5 M0 10.5 C0 3.5, 3.5 0, 10.5 0 M0 10.5 C0 3.5, 3.5 0, 10.5 0" stroke="#1d9e4b" stroke-width="1" fill="none"/></g><g transform="translate(566 639.15) rotate(0 99 10.5)"><text x="0" y="15.7001953125" font-family="ui-monospace, SFMono-Regular, Menlo, Consolas, monospace" font-size="15px" fill="#17803d" text-anchor="start" style="white-space: pre" direction="ltr" dominant-baseline="alphabetic">Cluster is whole again</text></g><g stroke-linecap="round"><g transform="translate(526 175.9) rotate(0 0 238.85000000000002)"><path d="M0 0 C0 190.5, 0 381, 0 477.7 M0 0 C0 147.92, 0 295.83, 0 477.7" stroke="#1d9e4b" stroke-width="2" fill="none"/></g></g><mask/><g stroke-linecap="round" transform="translate(10 689.3) rotate(0 220 29)"><path d="M14.5 0 C126.34 0, 238.18 0, 425.5 0 C435.17 0, 440 4.83, 440 14.5 C440 22.83, 440 31.16, 440 43.5 C440 53.17, 435.17 58, 425.5 58 C267.9 58, 110.29 58, 14.5 58 C4.83 58, 0 53.17, 0 43.5 C0 32.35, 0 21.21, 0 14.5 C0 4.83, 4.83 0, 14.5 0" stroke="none" stroke-width="0" fill="#ffffff"/><path d="M14.5 0 C178.4 0, 342.31 0, 425.5 0 M14.5 0 C118.74 0, 222.98 0, 425.5 0 M425.5 0 C435.17 0, 440 4.83, 440 14.5 M425.5 0 C435.17 0, 440 4.83, 440 14.5 M440 14.5 C440 22.99, 440 31.48, 440 43.5 M440 14.5 C440 23.58, 440 32.66, 440 43.5 M440 43.5 C440 53.17, 435.17 58, 425.5 58 M440 43.5 C440 53.17, 435.17 58, 425.5 58 M425.5 58 C288.23 58, 150.96 58, 14.5 58 M425.5 58 C304.7 58, 183.91 58, 14.5 58 M14.5 58 C4.83 58, 0 53.17, 0 43.5 M14.5 58 C4.83 58, 0 53.17, 0 43.5 M0 43.5 C0 35.05, 0 26.6, 0 14.5 M0 43.5 C0 33.55, 0 23.6, 0 14.5 M0 14.5 C0 4.83, 4.83 0, 14.5 0 M0 14.5 C0 4.83, 4.83 0, 14.5 0" stroke="#9b7ede" stroke-width="2" fill="none"/></g><g transform="translate(50 697.8) rotate(0 180 21)"><text x="180" y="15.7001953125" font-family="ui-monospace, SFMono-Regular, Menlo, Consolas, monospace" font-size="15px" fill="#1a1a1a" text-anchor="middle" style="white-space: pre" direction="ltr" dominant-baseline="alphabetic">4 operator steps.</text><text x="180" y="36.7001953125" font-family="ui-monospace, SFMono-Regular, Menlo, Consolas, monospace" font-size="15px" fill="#1a1a1a" text-anchor="middle" style="white-space: pre" direction="ltr" dominant-baseline="alphabetic">Processing stays down for the first two.</text></g><g stroke-linecap="round" transform="translate(510 689.3) rotate(0 220 40) scale(1 1.3793103448275863)"><path d="M14.5 0 C159.2 0, 303.89 0, 425.5 0 C435.17 0, 440 4.83, 440 14.5 C440 25.77, 440 37.04, 440 43.5 C440 53.17, 435.17 58, 425.5 58 C291.86 58, 158.23 58, 14.5 58 C4.83 58, 0 53.17, 0 43.5 C0 33.14, 0 22.78, 0 14.5 C0 4.83, 4.83 0, 14.5 0" stroke="none" stroke-width="0" fill="#ffffff"/><path d="M14.5 0 C178.41 0, 342.32 0, 425.5 0 M14.5 0 C154.9 0, 295.3 0, 425.5 0 M425.5 0 C435.17 0, 440 4.83, 440 14.5 M425.5 0 C435.17 0, 440 4.83, 440 14.5 M440 14.5 C440 25.02, 440 35.54, 440 43.5 M440 14.5 C440 22.37, 440 30.23, 440 43.5 M440 43.5 C440 53.17, 435.17 58, 425.5 58 M440 43.5 C440 53.17, 435.17 58, 425.5 58 M425.5 58 C262.47 58, 99.43 58, 14.5 58 M425.5 58 C278.69 58, 131.89 58, 14.5 58 M14.5 58 C4.83 58, 0 53.17, 0 43.5 M14.5 58 C4.83 58, 0 53.17, 0 43.5 M0 43.5 C0 36.58, 0 29.66, 0 14.5 M0 43.5 C0 36.29, 0 29.08, 0 14.5 M0 14.5 C0 4.83, 4.83 0, 14.5 0 M0 14.5 C0 4.83, 4.83 0, 14.5 0" stroke="#1d9e4b" stroke-width="2" fill="none"/></g><g transform="translate(617.5 697.8) rotate(0 112.5 31.5)"><text x="112.5" y="15.7001953125" font-family="ui-monospace, SFMono-Regular, Menlo, Consolas, monospace" font-size="15px" fill="#17803d" text-anchor="middle" style="white-space: pre" direction="ltr" dominant-baseline="alphabetic">3 operator steps.</text><text x="112.5" y="36.7001953125" font-family="ui-monospace, SFMono-Regular, Menlo, Consolas, monospace" font-size="15px" fill="#17803d" text-anchor="middle" style="white-space: pre" direction="ltr" dominant-baseline="alphabetic">No operator action needed</text><text x="112.5" y="57.7001953125" font-family="ui-monospace, SFMono-Regular, Menlo, Consolas, monospace" font-size="15px" fill="#17803d" text-anchor="middle" direction="ltr" dominant-baseline="alphabetic">to restore Zeebe quorum.</text></g><g stroke-linecap="round" transform="translate(18 175.9) rotate(0 8 9.5)"><path d="M0 0 L16 0 L16 19 L0 19" stroke="none" stroke-width="0" fill="#ffffff"/><path d="M0 0 C3.27 0, 6.55 0, 16 0 M0 0 C5.56 0, 11.12 0, 16 0 M16 0 C16 4.86, 16 9.72, 16 19 M16 0 C16 7.03, 16 14.05, 16 19 M16 19 C11.32 19, 6.65 19, 0 19 M16 19 C10.92 19, 5.83 19, 0 19 M0 19 C0 13.75, 0 8.5, 0 0 M0 19 C0 11.62, 0 4.25, 0 0" stroke="transparent" stroke-width="1" fill="none"/></g><g stroke-linecap="round"><g transform="translate(26 169.9) rotate(0 0 13)" fill-rule="evenodd"><path d="M0 0 L13 26 L-13 26 L0 0" stroke="none" stroke-width="0" fill="#ffffff" fill-rule="evenodd"/><path d="M0 0 C2.66 5.32, 5.32 10.64, 13 26 M0 0 C3.16 6.33, 6.33 12.66, 13 26 M13 26 C7.54 26, 2.08 26, -13 26 M13 26 C4.09 26, -4.83 26, -13 26 M-13 26 C-8.3 16.6, -3.6 7.2, 0 0 M-13 26 C-9.99 19.99, -6.99 13.97, 0 0 M0 0 C0 0, 0 0, 0 0 M0 0 C0 0, 0 0, 0 0" stroke="#a67c00" stroke-width="2" fill="none"/></g></g><mask/><g transform="translate(22.700000000000003 180.9) rotate(0 3.3000000000000007 6.875)"><text x="3.3" y="10.6884765625" font-family="ui-monospace, SFMono-Regular, Menlo, Consolas, monospace" font-size="11px" fill="#1a1a1a" text-anchor="middle" style="white-space: pre" direction="ltr" dominant-baseline="alphabetic">!</text></g><g stroke-linecap="round" transform="translate(18 238.8) rotate(0 8 9.5)"><path d="M0 0 L16 0 L16 19 L0 19" stroke="none" stroke-width="0" fill="#ffffff"/><path d="M0 0 C3.27 0, 6.55 0, 16 0 M0 0 C6.07 0, 12.14 0, 16 0 M16 0 C16 5.07, 16 10.13, 16 19 M16 0 C16 4.21, 16 8.42, 16 19 M16 19 C11.82 19, 7.64 19, 0 19 M16 19 C10.19 19, 4.38 19, 0 19 M0 19 C0 12.91, 0 6.82, 0 0 M0 19 C0 13.35, 0 7.7, 0 0" stroke="transparent" stroke-width="1" fill="none"/></g><g stroke-linecap="round"><g transform="translate(26 232.8) rotate(0 0 13)" fill-rule="evenodd"><path d="M0 0 L13 26 L-13 26 L0 0" stroke="none" stroke-width="0" fill="#ffffff" fill-rule="evenodd"/><path d="M0 0 C2.66 5.32, 5.32 10.64, 13 26 M0 0 C3.58 7.16, 7.16 14.32, 13 26 M13 26 C7.26 26, 1.52 26, -13 26 M13 26 C2.74 26, -7.52 26, -13 26 M-13 26 C-8.7 17.4, -4.4 8.8, 0 0 M-13 26 C-9.4 18.8, -5.8 11.61, 0 0 M0 0 C0 0, 0 0, 0 0 M0 0 C0 0, 0 0, 0 0" stroke="#a67c00" stroke-width="2" fill="none"/></g></g><mask/><g transform="translate(22.700000000000003 243.8) rotate(0 3.3000000000000007 6.875)"><text x="3.3" y="10.6884765625" font-family="ui-monospace, SFMono-Regular, Menlo, Consolas, monospace" font-size="11px" fill="#1a1a1a" text-anchor="middle" style="white-space: pre" direction="ltr" dominant-baseline="alphabetic">!</text></g><g stroke-linecap="round" transform="translate(15 306.2) rotate(0 11 11)"><path d="M22 11 C22 11.64, 21.94 12.28, 21.83 12.91 C21.72 13.54, 21.55 14.16, 21.34 14.76 C21.12 15.36, 20.84 15.95, 20.53 16.5 C20.21 17.05, 19.84 17.58, 19.43 18.07 C19.02 18.56, 18.56 19.02, 18.07 19.43 C17.58 19.84, 17.05 20.21, 16.5 20.53 C15.95 20.84, 15.36 21.12, 14.76 21.34 C14.16 21.55, 13.54 21.72, 12.91 21.83 C12.28 21.94, 11.64 22, 11 22 C10.36 22, 9.72 21.94, 9.09 21.83 C8.46 21.72, 7.84 21.55, 7.24 21.34 C6.64 21.12, 6.05 20.84, 5.5 20.53 C4.95 20.21, 4.42 19.84, 3.93 19.43 C3.44 19.02, 2.98 18.56, 2.57 18.07 C2.16 17.58, 1.79 17.05, 1.47 16.5 C1.16 15.95, 0.88 15.36, 0.66 14.76 C0.45 14.16, 0.28 13.54, 0.17 12.91 C0.06 12.28, 0 11.64, 0 11 C0 10.36, 0.06 9.72, 0.17 9.09 C0.28 8.46, 0.45 7.84, 0.66 7.24 C0.88 6.64, 1.16 6.05, 1.47 5.5 C1.79 4.95, 2.16 4.42, 2.57 3.93 C2.98 3.44, 3.44 2.98, 3.93 2.57 C4.42 2.16, 4.95 1.79, 5.5 1.47 C6.05 1.16, 6.64 0.88, 7.24 0.66 C7.84 0.45, 8.46 0.28, 9.09 0.17 C9.72 0.06, 10.36 0, 11 0 C11.64 0, 12.28 0.06, 12.91 0.17 C13.54 0.28, 14.16 0.45, 14.76 0.66 C15.36 0.88, 15.95 1.16, 16.5 1.47 C17.05 1.79, 17.58 2.16, 18.07 2.57 C18.56 2.98, 19.02 3.44, 19.43 3.93 C19.84 4.42, 20.21 4.95, 20.53 5.5 C20.84 6.05, 21.12 6.64, 21.34 7.24 C21.55 7.84, 21.72 8.46, 21.83 9.09 C21.94 9.72, 21.97 10.68, 22 11 C22.03 11.32, 22.03 10.68, 22 11" stroke="none" stroke-width="0" fill="#ffffff"/><path d="M22 11 C22 11.64, 21.94 12.28, 21.83 12.91 C21.72 13.54, 21.55 14.16, 21.34 14.76 C21.12 15.36, 20.84 15.95, 20.53 16.5 C20.21 17.05, 19.84 17.58, 19.43 18.07 C19.02 18.56, 18.56 19.02, 18.07 19.43 C17.58 19.84, 17.05 20.21, 16.5 20.53 C15.95 20.84, 15.36 21.12, 14.76 21.34 C14.16 21.55, 13.54 21.72, 12.91 21.83 C12.28 21.94, 11.64 22, 11 22 C10.36 22, 9.72 21.94, 9.09 21.83 C8.46 21.72, 7.84 21.55, 7.24 21.34 C6.64 21.12, 6.05 20.84, 5.5 20.53 C4.95 20.21, 4.42 19.84, 3.93 19.43 C3.44 19.02, 2.98 18.56, 2.57 18.07 C2.16 17.58, 1.79 17.05, 1.47 16.5 C1.16 15.95, 0.88 15.36, 0.66 14.76 C0.45 14.16, 0.28 13.54, 0.17 12.91 C0.06 12.28, 0 11.64, 0 11 C0 10.36, 0.06 9.72, 0.17 9.09 C0.28 8.46, 0.45 7.84, 0.66 7.24 C0.88 6.64, 1.16 6.05, 1.47 5.5 C1.79 4.95, 2.16 4.42, 2.57 3.93 C2.98 3.44, 3.44 2.98, 3.93 2.57 C4.42 2.16, 4.95 1.79, 5.5 1.47 C6.05 1.16, 6.64 0.88, 7.24 0.66 C7.84 0.45, 8.46 0.28, 9.09 0.17 C9.72 0.06, 10.36 0, 11 0 C11.64 0, 12.28 0.06, 12.91 0.17 C13.54 0.28, 14.16 0.45, 14.76 0.66 C15.36 0.88, 15.95 1.16, 16.5 1.47 C17.05 1.79, 17.58 2.16, 18.07 2.57 C18.56 2.98, 19.02 3.44, 19.43 3.93 C19.84 4.42, 20.21 4.95, 20.53 5.5 C20.84 6.05, 21.12 6.64, 21.34 7.24 C21.55 7.84, 21.72 8.46, 21.83 9.09 C21.94 9.72, 21.97 10.68, 22 11 C22.03 11.32, 22.03 10.68, 22 11" stroke="#9b7ede" stroke-width="2" fill="none"/></g><g stroke-linecap="round"><g transform="translate(23 311.2) rotate(0 4 6)" fill-rule="evenodd"><path d="M0 0 L8 6 L0 12 L0 0" stroke="none" stroke-width="0" fill="#9b7ede" fill-rule="evenodd"/><path d="M0 0 C1.64 1.23, 3.27 2.46, 8 6 M0 0 C2.01 1.51, 4.02 3.02, 8 6 M8 6 C5.59 7.81, 3.17 9.62, 0 12 M8 6 C4.83 8.38, 1.65 10.76, 0 12 M0 12 C0 9.33, 0 6.65, 0 0 M0 12 C0 9.55, 0 7.1, 0 0 M0 0 C0 0, 0 0, 0 0 M0 0 C0 0, 0 0, 0 0" stroke="#9b7ede" stroke-width="2" fill="none"/></g></g><mask/><g stroke-linecap="round" transform="translate(15 369.1) rotate(0 11 11)"><path d="M22 11 C22 11.64, 21.94 12.28, 21.83 12.91 C21.72 13.54, 21.55 14.16, 21.34 14.76 C21.12 15.36, 20.84 15.95, 20.53 16.5 C20.21 17.05, 19.84 17.58, 19.43 18.07 C19.02 18.56, 18.56 19.02, 18.07 19.43 C17.58 19.84, 17.05 20.21, 16.5 20.53 C15.95 20.84, 15.36 21.12, 14.76 21.34 C14.16 21.55, 13.54 21.72, 12.91 21.83 C12.28 21.94, 11.64 22, 11 22 C10.36 22, 9.72 21.94, 9.09 21.83 C8.46 21.72, 7.84 21.55, 7.24 21.34 C6.64 21.12, 6.05 20.84, 5.5 20.53 C4.95 20.21, 4.42 19.84, 3.93 19.43 C3.44 19.02, 2.98 18.56, 2.57 18.07 C2.16 17.58, 1.79 17.05, 1.47 16.5 C1.16 15.95, 0.88 15.36, 0.66 14.76 C0.45 14.16, 0.28 13.54, 0.17 12.91 C0.06 12.28, 0 11.64, 0 11 C0 10.36, 0.06 9.72, 0.17 9.09 C0.28 8.46, 0.45 7.84, 0.66 7.24 C0.88 6.64, 1.16 6.05, 1.47 5.5 C1.79 4.95, 2.16 4.42, 2.57 3.93 C2.98 3.44, 3.44 2.98, 3.93 2.57 C4.42 2.16, 4.95 1.79, 5.5 1.47 C6.05 1.16, 6.64 0.88, 7.24 0.66 C7.84 0.45, 8.46 0.28, 9.09 0.17 C9.72 0.06, 10.36 0, 11 0 C11.64 0, 12.28 0.06, 12.91 0.17 C13.54 0.28, 14.16 0.45, 14.76 0.66 C15.36 0.88, 15.95 1.16, 16.5 1.47 C17.05 1.79, 17.58 2.16, 18.07 2.57 C18.56 2.98, 19.02 3.44, 19.43 3.93 C19.84 4.42, 20.21 4.95, 20.53 5.5 C20.84 6.05, 21.12 6.64, 21.34 7.24 C21.55 7.84, 21.72 8.46, 21.83 9.09 C21.94 9.72, 21.97 10.68, 22 11 C22.03 11.32, 22.03 10.68, 22 11" stroke="none" stroke-width="0" fill="#ffffff"/><path d="M22 11 C22 11.64, 21.94 12.28, 21.83 12.91 C21.72 13.54, 21.55 14.16, 21.34 14.76 C21.12 15.36, 20.84 15.95, 20.53 16.5 C20.21 17.05, 19.84 17.58, 19.43 18.07 C19.02 18.56, 18.56 19.02, 18.07 19.43 C17.58 19.84, 17.05 20.21, 16.5 20.53 C15.95 20.84, 15.36 21.12, 14.76 21.34 C14.16 21.55, 13.54 21.72, 12.91 21.83 C12.28 21.94, 11.64 22, 11 22 C10.36 22, 9.72 21.94, 9.09 21.83 C8.46 21.72, 7.84 21.55, 7.24 21.34 C6.64 21.12, 6.05 20.84, 5.5 20.53 C4.95 20.21, 4.42 19.84, 3.93 19.43 C3.44 19.02, 2.98 18.56, 2.57 18.07 C2.16 17.58, 1.79 17.05, 1.47 16.5 C1.16 15.95, 0.88 15.36, 0.66 14.76 C0.45 14.16, 0.28 13.54, 0.17 12.91 C0.06 12.28, 0 11.64, 0 11 C0 10.36, 0.06 9.72, 0.17 9.09 C0.28 8.46, 0.45 7.84, 0.66 7.24 C0.88 6.64, 1.16 6.05, 1.47 5.5 C1.79 4.95, 2.16 4.42, 2.57 3.93 C2.98 3.44, 3.44 2.98, 3.93 2.57 C4.42 2.16, 4.95 1.79, 5.5 1.47 C6.05 1.16, 6.64 0.88, 7.24 0.66 C7.84 0.45, 8.46 0.28, 9.09 0.17 C9.72 0.06, 10.36 0, 11 0 C11.64 0, 12.28 0.06, 12.91 0.17 C13.54 0.28, 14.16 0.45, 14.76 0.66 C15.36 0.88, 15.95 1.16, 16.5 1.47 C17.05 1.79, 17.58 2.16, 18.07 2.57 C18.56 2.98, 19.02 3.44, 19.43 3.93 C19.84 4.42, 20.21 4.95, 20.53 5.5 C20.84 6.05, 21.12 6.64, 21.34 7.24 C21.55 7.84, 21.72 8.46, 21.83 9.09 C21.94 9.72, 21.97 10.68, 22 11 C22.03 11.32, 22.03 10.68, 22 11" stroke="#9b7ede" stroke-width="2" fill="none"/></g><g stroke-linecap="round"><g transform="translate(23 374.1) rotate(0 4 6)" fill-rule="evenodd"><path d="M0 0 L8 6 L0 12 L0 0" stroke="none" stroke-width="0" fill="#9b7ede" fill-rule="evenodd"/><path d="M0 0 C1.64 1.23, 3.27 2.46, 8 6 M0 0 C2.71 2.04, 5.43 4.07, 8 6 M8 6 C6.06 7.45, 4.12 8.91, 0 12 M8 6 C5.62 7.79, 3.23 9.58, 0 12 M0 12 C0 8.77, 0 5.55, 0 0 M0 12 C0 7.59, 0 3.18, 0 0 M0 0 C0 0, 0 0, 0 0 M0 0 C0 0, 0 0, 0 0" stroke="#9b7ede" stroke-width="2" fill="none"/></g></g><mask/><g stroke-linecap="round" transform="translate(15 423.5) rotate(0 11 11)"><path d="M22 11 C22 11.64, 21.94 12.28, 21.83 12.91 C21.72 13.54, 21.55 14.16, 21.34 14.76 C21.12 15.36, 20.84 15.95, 20.53 16.5 C20.21 17.05, 19.84 17.58, 19.43 18.07 C19.02 18.56, 18.56 19.02, 18.07 19.43 C17.58 19.84, 17.05 20.21, 16.5 20.53 C15.95 20.84, 15.36 21.12, 14.76 21.34 C14.16 21.55, 13.54 21.72, 12.91 21.83 C12.28 21.94, 11.64 22, 11 22 C10.36 22, 9.72 21.94, 9.09 21.83 C8.46 21.72, 7.84 21.55, 7.24 21.34 C6.64 21.12, 6.05 20.84, 5.5 20.53 C4.95 20.21, 4.42 19.84, 3.93 19.43 C3.44 19.02, 2.98 18.56, 2.57 18.07 C2.16 17.58, 1.79 17.05, 1.47 16.5 C1.16 15.95, 0.88 15.36, 0.66 14.76 C0.45 14.16, 0.28 13.54, 0.17 12.91 C0.06 12.28, 0 11.64, 0 11 C0 10.36, 0.06 9.72, 0.17 9.09 C0.28 8.46, 0.45 7.84, 0.66 7.24 C0.88 6.64, 1.16 6.05, 1.47 5.5 C1.79 4.95, 2.16 4.42, 2.57 3.93 C2.98 3.44, 3.44 2.98, 3.93 2.57 C4.42 2.16, 4.95 1.79, 5.5 1.47 C6.05 1.16, 6.64 0.88, 7.24 0.66 C7.84 0.45, 8.46 0.28, 9.09 0.17 C9.72 0.06, 10.36 0, 11 0 C11.64 0, 12.28 0.06, 12.91 0.17 C13.54 0.28, 14.16 0.45, 14.76 0.66 C15.36 0.88, 15.95 1.16, 16.5 1.47 C17.05 1.79, 17.58 2.16, 18.07 2.57 C18.56 2.98, 19.02 3.44, 19.43 3.93 C19.84 4.42, 20.21 4.95, 20.53 5.5 C20.84 6.05, 21.12 6.64, 21.34 7.24 C21.55 7.84, 21.72 8.46, 21.83 9.09 C21.94 9.72, 21.97 10.68, 22 11 C22.03 11.32, 22.03 10.68, 22 11" stroke="none" stroke-width="0" fill="#1d9e4b"/><path d="M22 11 C22 11.64, 21.94 12.28, 21.83 12.91 C21.72 13.54, 21.55 14.16, 21.34 14.76 C21.12 15.36, 20.84 15.95, 20.53 16.5 C20.21 17.05, 19.84 17.58, 19.43 18.07 C19.02 18.56, 18.56 19.02, 18.07 19.43 C17.58 19.84, 17.05 20.21, 16.5 20.53 C15.95 20.84, 15.36 21.12, 14.76 21.34 C14.16 21.55, 13.54 21.72, 12.91 21.83 C12.28 21.94, 11.64 22, 11 22 C10.36 22, 9.72 21.94, 9.09 21.83 C8.46 21.72, 7.84 21.55, 7.24 21.34 C6.64 21.12, 6.05 20.84, 5.5 20.53 C4.95 20.21, 4.42 19.84, 3.93 19.43 C3.44 19.02, 2.98 18.56, 2.57 18.07 C2.16 17.58, 1.79 17.05, 1.47 16.5 C1.16 15.95, 0.88 15.36, 0.66 14.76 C0.45 14.16, 0.28 13.54, 0.17 12.91 C0.06 12.28, 0 11.64, 0 11 C0 10.36, 0.06 9.72, 0.17 9.09 C0.28 8.46, 0.45 7.84, 0.66 7.24 C0.88 6.64, 1.16 6.05, 1.47 5.5 C1.79 4.95, 2.16 4.42, 2.57 3.93 C2.98 3.44, 3.44 2.98, 3.93 2.57 C4.42 2.16, 4.95 1.79, 5.5 1.47 C6.05 1.16, 6.64 0.88, 7.24 0.66 C7.84 0.45, 8.46 0.28, 9.09 0.17 C9.72 0.06, 10.36 0, 11 0 C11.64 0, 12.28 0.06, 12.91 0.17 C13.54 0.28, 14.16 0.45, 14.76 0.66 C15.36 0.88, 15.95 1.16, 16.5 1.47 C17.05 1.79, 17.58 2.16, 18.07 2.57 C18.56 2.98, 19.02 3.44, 19.43 3.93 C19.84 4.42, 20.21 4.95, 20.53 5.5 C20.84 6.05, 21.12 6.64, 21.34 7.24 C21.55 7.84, 21.72 8.46, 21.83 9.09 C21.94 9.72, 21.97 10.68, 22 11 C22.03 11.32, 22.03 10.68, 22 11" stroke="#1d9e4b" stroke-width="2" fill="none"/></g><g stroke-linecap="round"><g transform="translate(20 434.5) rotate(0 6 0)"><path d="M0 0 C0.82 1.02, 1.64 2.05, 4 5 M0 0 C0.91 1.14, 1.82 2.27, 4 5 M4 5 C7.06 1.17, 10.13 -2.66, 12 -5 M4 5 C7.19 1.01, 10.38 -2.98, 12 -5" stroke="#ffffff" stroke-width="2" fill="none"/></g></g><mask/><g stroke-linecap="round" transform="translate(15 477.9) rotate(0 11 11)"><path d="M22 11 C22 11.64, 21.94 12.28, 21.83 12.91 C21.72 13.54, 21.55 14.16, 21.34 14.76 C21.12 15.36, 20.84 15.95, 20.53 16.5 C20.21 17.05, 19.84 17.58, 19.43 18.07 C19.02 18.56, 18.56 19.02, 18.07 19.43 C17.58 19.84, 17.05 20.21, 16.5 20.53 C15.95 20.84, 15.36 21.12, 14.76 21.34 C14.16 21.55, 13.54 21.72, 12.91 21.83 C12.28 21.94, 11.64 22, 11 22 C10.36 22, 9.72 21.94, 9.09 21.83 C8.46 21.72, 7.84 21.55, 7.24 21.34 C6.64 21.12, 6.05 20.84, 5.5 20.53 C4.95 20.21, 4.42 19.84, 3.93 19.43 C3.44 19.02, 2.98 18.56, 2.57 18.07 C2.16 17.58, 1.79 17.05, 1.47 16.5 C1.16 15.95, 0.88 15.36, 0.66 14.76 C0.45 14.16, 0.28 13.54, 0.17 12.91 C0.06 12.28, 0 11.64, 0 11 C0 10.36, 0.06 9.72, 0.17 9.09 C0.28 8.46, 0.45 7.84, 0.66 7.24 C0.88 6.64, 1.16 6.05, 1.47 5.5 C1.79 4.95, 2.16 4.42, 2.57 3.93 C2.98 3.44, 3.44 2.98, 3.93 2.57 C4.42 2.16, 4.95 1.79, 5.5 1.47 C6.05 1.16, 6.64 0.88, 7.24 0.66 C7.84 0.45, 8.46 0.28, 9.09 0.17 C9.72 0.06, 10.36 0, 11 0 C11.64 0, 12.28 0.06, 12.91 0.17 C13.54 0.28, 14.16 0.45, 14.76 0.66 C15.36 0.88, 15.95 1.16, 16.5 1.47 C17.05 1.79, 17.58 2.16, 18.07 2.57 C18.56 2.98, 19.02 3.44, 19.43 3.93 C19.84 4.42, 20.21 4.95, 20.53 5.5 C20.84 6.05, 21.12 6.64, 21.34 7.24 C21.55 7.84, 21.72 8.46, 21.83 9.09 C21.94 9.72, 21.97 10.68, 22 11 C22.03 11.32, 22.03 10.68, 22 11" stroke="none" stroke-width="0" fill="#ffffff"/><path d="M22 11 C22 11.64, 21.94 12.28, 21.83 12.91 C21.72 13.54, 21.55 14.16, 21.34 14.76 C21.12 15.36, 20.84 15.95, 20.53 16.5 C20.21 17.05, 19.84 17.58, 19.43 18.07 C19.02 18.56, 18.56 19.02, 18.07 19.43 C17.58 19.84, 17.05 20.21, 16.5 20.53 C15.95 20.84, 15.36 21.12, 14.76 21.34 C14.16 21.55, 13.54 21.72, 12.91 21.83 C12.28 21.94, 11.64 22, 11 22 C10.36 22, 9.72 21.94, 9.09 21.83 C8.46 21.72, 7.84 21.55, 7.24 21.34 C6.64 21.12, 6.05 20.84, 5.5 20.53 C4.95 20.21, 4.42 19.84, 3.93 19.43 C3.44 19.02, 2.98 18.56, 2.57 18.07 C2.16 17.58, 1.79 17.05, 1.47 16.5 C1.16 15.95, 0.88 15.36, 0.66 14.76 C0.45 14.16, 0.28 13.54, 0.17 12.91 C0.06 12.28, 0 11.64, 0 11 C0 10.36, 0.06 9.72, 0.17 9.09 C0.28 8.46, 0.45 7.84, 0.66 7.24 C0.88 6.64, 1.16 6.05, 1.47 5.5 C1.79 4.95, 2.16 4.42, 2.57 3.93 C2.98 3.44, 3.44 2.98, 3.93 2.57 C4.42 2.16, 4.95 1.79, 5.5 1.47 C6.05 1.16, 6.64 0.88, 7.24 0.66 C7.84 0.45, 8.46 0.28, 9.09 0.17 C9.72 0.06, 10.36 0, 11 0 C11.64 0, 12.28 0.06, 12.91 0.17 C13.54 0.28, 14.16 0.45, 14.76 0.66 C15.36 0.88, 15.95 1.16, 16.5 1.47 C17.05 1.79, 17.58 2.16, 18.07 2.57 C18.56 2.98, 19.02 3.44, 19.43 3.93 C19.84 4.42, 20.21 4.95, 20.53 5.5 C20.84 6.05, 21.12 6.64, 21.34 7.24 C21.55 7.84, 21.72 8.46, 21.83 9.09 C21.94 9.72, 21.97 10.68, 22 11 C22.03 11.32, 22.03 10.68, 22 11" stroke="#9b7ede" stroke-width="2" fill="none"/></g><g stroke-linecap="round"><g transform="translate(23 482.9) rotate(0 4 6)" fill-rule="evenodd"><path d="M0 0 L8 6 L0 12 L0 0" stroke="none" stroke-width="0" fill="#9b7ede" fill-rule="evenodd"/><path d="M0 0 C1.64 1.23, 3.28 2.46, 8 6 M0 0 C2.52 1.89, 5.04 3.78, 8 6 M8 6 C5.41 7.94, 2.83 9.88, 0 12 M8 6 C5.6 7.8, 3.2 9.6, 0 12 M0 12 C0 7.67, 0 3.34, 0 0 M0 12 C0 8.46, 0 4.92, 0 0 M0 0 C0 0, 0 0, 0 0 M0 0 C0 0, 0 0, 0 0" stroke="#9b7ede" stroke-width="2" fill="none"/></g></g><mask/><g stroke-linecap="round" transform="translate(15 540.8) rotate(0 11 11)"><path d="M22 11 C22 11.64, 21.94 12.28, 21.83 12.91 C21.72 13.54, 21.55 14.16, 21.34 14.76 C21.12 15.36, 20.84 15.95, 20.53 16.5 C20.21 17.05, 19.84 17.58, 19.43 18.07 C19.02 18.56, 18.56 19.02, 18.07 19.43 C17.58 19.84, 17.05 20.21, 16.5 20.53 C15.95 20.84, 15.36 21.12, 14.76 21.34 C14.16 21.55, 13.54 21.72, 12.91 21.83 C12.28 21.94, 11.64 22, 11 22 C10.36 22, 9.72 21.94, 9.09 21.83 C8.46 21.72, 7.84 21.55, 7.24 21.34 C6.64 21.12, 6.05 20.84, 5.5 20.53 C4.95 20.21, 4.42 19.84, 3.93 19.43 C3.44 19.02, 2.98 18.56, 2.57 18.07 C2.16 17.58, 1.79 17.05, 1.47 16.5 C1.16 15.95, 0.88 15.36, 0.66 14.76 C0.45 14.16, 0.28 13.54, 0.17 12.91 C0.06 12.28, 0 11.64, 0 11 C0 10.36, 0.06 9.72, 0.17 9.09 C0.28 8.46, 0.45 7.84, 0.66 7.24 C0.88 6.64, 1.16 6.05, 1.47 5.5 C1.79 4.95, 2.16 4.42, 2.57 3.93 C2.98 3.44, 3.44 2.98, 3.93 2.57 C4.42 2.16, 4.95 1.79, 5.5 1.47 C6.05 1.16, 6.64 0.88, 7.24 0.66 C7.84 0.45, 8.46 0.28, 9.09 0.17 C9.72 0.06, 10.36 0, 11 0 C11.64 0, 12.28 0.06, 12.91 0.17 C13.54 0.28, 14.16 0.45, 14.76 0.66 C15.36 0.88, 15.95 1.16, 16.5 1.47 C17.05 1.79, 17.58 2.16, 18.07 2.57 C18.56 2.98, 19.02 3.44, 19.43 3.93 C19.84 4.42, 20.21 4.95, 20.53 5.5 C20.84 6.05, 21.12 6.64, 21.34 7.24 C21.55 7.84, 21.72 8.46, 21.83 9.09 C21.94 9.72, 21.97 10.68, 22 11 C22.03 11.32, 22.03 10.68, 22 11" stroke="none" stroke-width="0" fill="#ffffff"/><path d="M22 11 C22 11.64, 21.94 12.28, 21.83 12.91 C21.72 13.54, 21.55 14.16, 21.34 14.76 C21.12 15.36, 20.84 15.95, 20.53 16.5 C20.21 17.05, 19.84 17.58, 19.43 18.07 C19.02 18.56, 18.56 19.02, 18.07 19.43 C17.58 19.84, 17.05 20.21, 16.5 20.53 C15.95 20.84, 15.36 21.12, 14.76 21.34 C14.16 21.55, 13.54 21.72, 12.91 21.83 C12.28 21.94, 11.64 22, 11 22 C10.36 22, 9.72 21.94, 9.09 21.83 C8.46 21.72, 7.84 21.55, 7.24 21.34 C6.64 21.12, 6.05 20.84, 5.5 20.53 C4.95 20.21, 4.42 19.84, 3.93 19.43 C3.44 19.02, 2.98 18.56, 2.57 18.07 C2.16 17.58, 1.79 17.05, 1.47 16.5 C1.16 15.95, 0.88 15.36, 0.66 14.76 C0.45 14.16, 0.28 13.54, 0.17 12.91 C0.06 12.28, 0 11.64, 0 11 C0 10.36, 0.06 9.72, 0.17 9.09 C0.28 8.46, 0.45 7.84, 0.66 7.24 C0.88 6.64, 1.16 6.05, 1.47 5.5 C1.79 4.95, 2.16 4.42, 2.57 3.93 C2.98 3.44, 3.44 2.98, 3.93 2.57 C4.42 2.16, 4.95 1.79, 5.5 1.47 C6.05 1.16, 6.64 0.88, 7.24 0.66 C7.84 0.45, 8.46 0.28, 9.09 0.17 C9.72 0.06, 10.36 0, 11 0 C11.64 0, 12.28 0.06, 12.91 0.17 C13.54 0.28, 14.16 0.45, 14.76 0.66 C15.36 0.88, 15.95 1.16, 16.5 1.47 C17.05 1.79, 17.58 2.16, 18.07 2.57 C18.56 2.98, 19.02 3.44, 19.43 3.93 C19.84 4.42, 20.21 4.95, 20.53 5.5 C20.84 6.05, 21.12 6.64, 21.34 7.24 C21.55 7.84, 21.72 8.46, 21.83 9.09 C21.94 9.72, 21.97 10.68, 22 11 C22.03 11.32, 22.03 10.68, 22 11" stroke="#9b7ede" stroke-width="2" fill="none"/></g><g stroke-linecap="round"><g transform="translate(23 545.8) rotate(0 4 6)" fill-rule="evenodd"><path d="M0 0 L8 6 L0 12 L0 0" stroke="none" stroke-width="0" fill="#9b7ede" fill-rule="evenodd"/><path d="M0 0 C1.64 1.23, 3.28 2.46, 8 6 M0 0 C1.63 1.22, 3.25 2.44, 8 6 M8 6 C5.89 7.58, 3.78 9.17, 0 12 M8 6 C6.39 7.21, 4.78 8.42, 0 12 M0 12 C0 9.52, 0 7.03, 0 0 M0 12 C0 8.9, 0 5.79, 0 0 M0 0 C0 0, 0 0, 0 0 M0 0 C0 0, 0 0, 0 0" stroke="#9b7ede" stroke-width="2" fill="none"/></g></g><mask/><g stroke-linecap="round" transform="translate(15 603.7) rotate(0 11 11)"><path d="M22 11 C22 11.64, 21.94 12.28, 21.83 12.91 C21.72 13.54, 21.55 14.16, 21.34 14.76 C21.12 15.36, 20.84 15.95, 20.53 16.5 C20.21 17.05, 19.84 17.58, 19.43 18.07 C19.02 18.56, 18.56 19.02, 18.07 19.43 C17.58 19.84, 17.05 20.21, 16.5 20.53 C15.95 20.84, 15.36 21.12, 14.76 21.34 C14.16 21.55, 13.54 21.72, 12.91 21.83 C12.28 21.94, 11.64 22, 11 22 C10.36 22, 9.72 21.94, 9.09 21.83 C8.46 21.72, 7.84 21.55, 7.24 21.34 C6.64 21.12, 6.05 20.84, 5.5 20.53 C4.95 20.21, 4.42 19.84, 3.93 19.43 C3.44 19.02, 2.98 18.56, 2.57 18.07 C2.16 17.58, 1.79 17.05, 1.47 16.5 C1.16 15.95, 0.88 15.36, 0.66 14.76 C0.45 14.16, 0.28 13.54, 0.17 12.91 C0.06 12.28, 0 11.64, 0 11 C0 10.36, 0.06 9.72, 0.17 9.09 C0.28 8.46, 0.45 7.84, 0.66 7.24 C0.88 6.64, 1.16 6.05, 1.47 5.5 C1.79 4.95, 2.16 4.42, 2.57 3.93 C2.98 3.44, 3.44 2.98, 3.93 2.57 C4.42 2.16, 4.95 1.79, 5.5 1.47 C6.05 1.16, 6.64 0.88, 7.24 0.66 C7.84 0.45, 8.46 0.28, 9.09 0.17 C9.72 0.06, 10.36 0, 11 0 C11.64 0, 12.28 0.06, 12.91 0.17 C13.54 0.28, 14.16 0.45, 14.76 0.66 C15.36 0.88, 15.95 1.16, 16.5 1.47 C17.05 1.79, 17.58 2.16, 18.07 2.57 C18.56 2.98, 19.02 3.44, 19.43 3.93 C19.84 4.42, 20.21 4.95, 20.53 5.5 C20.84 6.05, 21.12 6.64, 21.34 7.24 C21.55 7.84, 21.72 8.46, 21.83 9.09 C21.94 9.72, 21.97 10.68, 22 11 C22.03 11.32, 22.03 10.68, 22 11" stroke="none" stroke-width="0" fill="#1d9e4b"/><path d="M22 11 C22 11.64, 21.94 12.28, 21.83 12.91 C21.72 13.54, 21.55 14.16, 21.34 14.76 C21.12 15.36, 20.84 15.95, 20.53 16.5 C20.21 17.05, 19.84 17.58, 19.43 18.07 C19.02 18.56, 18.56 19.02, 18.07 19.43 C17.58 19.84, 17.05 20.21, 16.5 20.53 C15.95 20.84, 15.36 21.12, 14.76 21.34 C14.16 21.55, 13.54 21.72, 12.91 21.83 C12.28 21.94, 11.64 22, 11 22 C10.36 22, 9.72 21.94, 9.09 21.83 C8.46 21.72, 7.84 21.55, 7.24 21.34 C6.64 21.12, 6.05 20.84, 5.5 20.53 C4.95 20.21, 4.42 19.84, 3.93 19.43 C3.44 19.02, 2.98 18.56, 2.57 18.07 C2.16 17.58, 1.79 17.05, 1.47 16.5 C1.16 15.95, 0.88 15.36, 0.66 14.76 C0.45 14.16, 0.28 13.54, 0.17 12.91 C0.06 12.28, 0 11.64, 0 11 C0 10.36, 0.06 9.72, 0.17 9.09 C0.28 8.46, 0.45 7.84, 0.66 7.24 C0.88 6.64, 1.16 6.05, 1.47 5.5 C1.79 4.95, 2.16 4.42, 2.57 3.93 C2.98 3.44, 3.44 2.98, 3.93 2.57 C4.42 2.16, 4.95 1.79, 5.5 1.47 C6.05 1.16, 6.64 0.88, 7.24 0.66 C7.84 0.45, 8.46 0.28, 9.09 0.17 C9.72 0.06, 10.36 0, 11 0 C11.64 0, 12.28 0.06, 12.91 0.17 C13.54 0.28, 14.16 0.45, 14.76 0.66 C15.36 0.88, 15.95 1.16, 16.5 1.47 C17.05 1.79, 17.58 2.16, 18.07 2.57 C18.56 2.98, 19.02 3.44, 19.43 3.93 C19.84 4.42, 20.21 4.95, 20.53 5.5 C20.84 6.05, 21.12 6.64, 21.34 7.24 C21.55 7.84, 21.72 8.46, 21.83 9.09 C21.94 9.72, 21.97 10.68, 22 11 C22.03 11.32, 22.03 10.68, 22 11" stroke="#1d9e4b" stroke-width="2" fill="none"/></g><g stroke-linecap="round"><g transform="translate(20 614.7) rotate(0 6 0)"><path d="M0 0 C0.82 1.02, 1.64 2.05, 4 5 M0 0 C1.16 1.46, 2.33 2.91, 4 5 M4 5 C5.64 2.96, 7.27 0.91, 12 -5 M4 5 C6.42 1.98, 8.84 -1.05, 12 -5" stroke="#ffffff" stroke-width="2" fill="none"/></g></g><mask/><g stroke-linecap="round" transform="translate(518 175.9) rotate(0 8 9.5)"><path d="M0 0 L16 0 L16 19 L0 19" stroke="none" stroke-width="0" fill="#ffffff"/><path d="M0 0 C3.28 0, 6.55 0, 16 0 M0 0 C5.43 0, 10.85 0, 16 0 M16 0 C16 6.09, 16 12.19, 16 19 M16 0 C16 5.32, 16 10.64, 16 19 M16 19 C11.09 19, 6.19 19, 0 19 M16 19 C9.75 19, 3.51 19, 0 19 M0 19 C0 12.52, 0 6.03, 0 0 M0 19 C0 14.38, 0 9.77, 0 0" stroke="transparent" stroke-width="1" fill="none"/></g><g stroke-linecap="round"><g transform="translate(526 169.9) rotate(0 0 13)" fill-rule="evenodd"><path d="M0 0 L13 26 L-13 26 L0 0" stroke="none" stroke-width="0" fill="#ffffff" fill-rule="evenodd"/><path d="M0 0 C2.66 5.32, 5.32 10.65, 13 26 M0 0 C3.06 6.12, 6.12 12.23, 13 26 M13 26 C5.86 26, -1.29 26, -13 26 M13 26 C6.42 26, -0.16 26, -13 26 M-13 26 C-8.11 16.22, -3.22 6.44, 0 0 M-13 26 C-9.05 18.09, -5.09 10.19, 0 0 M0 0 C0 0, 0 0, 0 0 M0 0 C0 0, 0 0, 0 0" stroke="#a67c00" stroke-width="2" fill="none"/></g></g><mask/><g transform="translate(522.7 180.9) rotate(0 3.3000000000000114 6.875)"><text x="3.3" y="10.6884765625" font-family="ui-monospace, SFMono-Regular, Menlo, Consolas, monospace" font-size="11px" fill="#1a1a1a" text-anchor="middle" style="white-space: pre" direction="ltr" dominant-baseline="alphabetic">!</text></g><g stroke-linecap="round" transform="translate(515 234.8) rotate(0 11 11)"><path d="M22 11 C22 11.64, 21.94 12.28, 21.83 12.91 C21.72 13.54, 21.55 14.16, 21.34 14.76 C21.12 15.36, 20.84 15.95, 20.53 16.5 C20.21 17.05, 19.84 17.58, 19.43 18.07 C19.02 18.56, 18.56 19.02, 18.07 19.43 C17.58 19.84, 17.05 20.21, 16.5 20.53 C15.95 20.84, 15.36 21.12, 14.76 21.34 C14.16 21.55, 13.54 21.72, 12.91 21.83 C12.28 21.94, 11.64 22, 11 22 C10.36 22, 9.72 21.94, 9.09 21.83 C8.46 21.72, 7.84 21.55, 7.24 21.34 C6.64 21.12, 6.05 20.84, 5.5 20.53 C4.95 20.21, 4.42 19.84, 3.93 19.43 C3.44 19.02, 2.98 18.56, 2.57 18.07 C2.16 17.58, 1.79 17.05, 1.47 16.5 C1.16 15.95, 0.88 15.36, 0.66 14.76 C0.45 14.16, 0.28 13.54, 0.17 12.91 C0.06 12.28, 0 11.64, 0 11 C0 10.36, 0.06 9.72, 0.17 9.09 C0.28 8.46, 0.45 7.84, 0.66 7.24 C0.88 6.64, 1.16 6.05, 1.47 5.5 C1.79 4.95, 2.16 4.42, 2.57 3.93 C2.98 3.44, 3.44 2.98, 3.93 2.57 C4.42 2.16, 4.95 1.79, 5.5 1.47 C6.05 1.16, 6.64 0.88, 7.24 0.66 C7.84 0.45, 8.46 0.28, 9.09 0.17 C9.72 0.06, 10.36 0, 11 0 C11.64 0, 12.28 0.06, 12.91 0.17 C13.54 0.28, 14.16 0.45, 14.76 0.66 C15.36 0.88, 15.95 1.16, 16.5 1.47 C17.05 1.79, 17.58 2.16, 18.07 2.57 C18.56 2.98, 19.02 3.44, 19.43 3.93 C19.84 4.42, 20.21 4.95, 20.53 5.5 C20.84 6.05, 21.12 6.64, 21.34 7.24 C21.55 7.84, 21.72 8.46, 21.83 9.09 C21.94 9.72, 21.97 10.68, 22 11 C22.03 11.32, 22.03 10.68, 22 11" stroke="none" stroke-width="0" fill="#1d9e4b"/><path d="M22 11 C22 11.64, 21.94 12.28, 21.83 12.91 C21.72 13.54, 21.55 14.16, 21.34 14.76 C21.12 15.36, 20.84 15.95, 20.53 16.5 C20.21 17.05, 19.84 17.58, 19.43 18.07 C19.02 18.56, 18.56 19.02, 18.07 19.43 C17.58 19.84, 17.05 20.21, 16.5 20.53 C15.95 20.84, 15.36 21.12, 14.76 21.34 C14.16 21.55, 13.54 21.72, 12.91 21.83 C12.28 21.94, 11.64 22, 11 22 C10.36 22, 9.72 21.94, 9.09 21.83 C8.46 21.72, 7.84 21.55, 7.24 21.34 C6.64 21.12, 6.05 20.84, 5.5 20.53 C4.95 20.21, 4.42 19.84, 3.93 19.43 C3.44 19.02, 2.98 18.56, 2.57 18.07 C2.16 17.58, 1.79 17.05, 1.47 16.5 C1.16 15.95, 0.88 15.36, 0.66 14.76 C0.45 14.16, 0.28 13.54, 0.17 12.91 C0.06 12.28, 0 11.64, 0 11 C0 10.36, 0.06 9.72, 0.17 9.09 C0.28 8.46, 0.45 7.84, 0.66 7.24 C0.88 6.64, 1.16 6.05, 1.47 5.5 C1.79 4.95, 2.16 4.42, 2.57 3.93 C2.98 3.44, 3.44 2.98, 3.93 2.57 C4.42 2.16, 4.95 1.79, 5.5 1.47 C6.05 1.16, 6.64 0.88, 7.24 0.66 C7.84 0.45, 8.46 0.28, 9.09 0.17 C9.72 0.06, 10.36 0, 11 0 C11.64 0, 12.28 0.06, 12.91 0.17 C13.54 0.28, 14.16 0.45, 14.76 0.66 C15.36 0.88, 15.95 1.16, 16.5 1.47 C17.05 1.79, 17.58 2.16, 18.07 2.57 C18.56 2.98, 19.02 3.44, 19.43 3.93 C19.84 4.42, 20.21 4.95, 20.53 5.5 C20.84 6.05, 21.12 6.64, 21.34 7.24 C21.55 7.84, 21.72 8.46, 21.83 9.09 C21.94 9.72, 21.97 10.68, 22 11 C22.03 11.32, 22.03 10.68, 22 11" stroke="#1d9e4b" stroke-width="2" fill="none"/></g><g stroke-linecap="round"><g transform="translate(520 245.8) rotate(0 6 0)"><path d="M0 0 C0.82 1.02, 1.64 2.05, 4 5 M0 0 C0.84 1.06, 1.69 2.11, 4 5 M4 5 C6.85 1.44, 9.69 -2.12, 12 -5 M4 5 C6.04 2.45, 8.08 -0.11, 12 -5" stroke="#ffffff" stroke-width="2" fill="none"/></g></g><mask/><g stroke-linecap="round" transform="translate(515 306.2) rotate(0 11 11)"><path d="M22 11 C22 11.64, 21.94 12.28, 21.83 12.91 C21.72 13.54, 21.55 14.16, 21.34 14.76 C21.12 15.36, 20.84 15.95, 20.53 16.5 C20.21 17.05, 19.84 17.58, 19.43 18.07 C19.02 18.56, 18.56 19.02, 18.07 19.43 C17.58 19.84, 17.05 20.21, 16.5 20.53 C15.95 20.84, 15.36 21.12, 14.76 21.34 C14.16 21.55, 13.54 21.72, 12.91 21.83 C12.28 21.94, 11.64 22, 11 22 C10.36 22, 9.72 21.94, 9.09 21.83 C8.46 21.72, 7.84 21.55, 7.24 21.34 C6.64 21.12, 6.05 20.84, 5.5 20.53 C4.95 20.21, 4.42 19.84, 3.93 19.43 C3.44 19.02, 2.98 18.56, 2.57 18.07 C2.16 17.58, 1.79 17.05, 1.47 16.5 C1.16 15.95, 0.88 15.36, 0.66 14.76 C0.45 14.16, 0.28 13.54, 0.17 12.91 C0.06 12.28, 0 11.64, 0 11 C0 10.36, 0.06 9.72, 0.17 9.09 C0.28 8.46, 0.45 7.84, 0.66 7.24 C0.88 6.64, 1.16 6.05, 1.47 5.5 C1.79 4.95, 2.16 4.42, 2.57 3.93 C2.98 3.44, 3.44 2.98, 3.93 2.57 C4.42 2.16, 4.95 1.79, 5.5 1.47 C6.05 1.16, 6.64 0.88, 7.24 0.66 C7.84 0.45, 8.46 0.28, 9.09 0.17 C9.72 0.06, 10.36 0, 11 0 C11.64 0, 12.28 0.06, 12.91 0.17 C13.54 0.28, 14.16 0.45, 14.76 0.66 C15.36 0.88, 15.95 1.16, 16.5 1.47 C17.05 1.79, 17.58 2.16, 18.07 2.57 C18.56 2.98, 19.02 3.44, 19.43 3.93 C19.84 4.42, 20.21 4.95, 20.53 5.5 C20.84 6.05, 21.12 6.64, 21.34 7.24 C21.55 7.84, 21.72 8.46, 21.83 9.09 C21.94 9.72, 21.97 10.68, 22 11 C22.03 11.32, 22.03 10.68, 22 11" stroke="none" stroke-width="0" fill="#ffffff"/><path d="M22 11 C22 11.64, 21.94 12.28, 21.83 12.91 C21.72 13.54, 21.55 14.16, 21.34 14.76 C21.12 15.36, 20.84 15.95, 20.53 16.5 C20.21 17.05, 19.84 17.58, 19.43 18.07 C19.02 18.56, 18.56 19.02, 18.07 19.43 C17.58 19.84, 17.05 20.21, 16.5 20.53 C15.95 20.84, 15.36 21.12, 14.76 21.34 C14.16 21.55, 13.54 21.72, 12.91 21.83 C12.28 21.94, 11.64 22, 11 22 C10.36 22, 9.72 21.94, 9.09 21.83 C8.46 21.72, 7.84 21.55, 7.24 21.34 C6.64 21.12, 6.05 20.84, 5.5 20.53 C4.95 20.21, 4.42 19.84, 3.93 19.43 C3.44 19.02, 2.98 18.56, 2.57 18.07 C2.16 17.58, 1.79 17.05, 1.47 16.5 C1.16 15.95, 0.88 15.36, 0.66 14.76 C0.45 14.16, 0.28 13.54, 0.17 12.91 C0.06 12.28, 0 11.64, 0 11 C0 10.36, 0.06 9.72, 0.17 9.09 C0.28 8.46, 0.45 7.84, 0.66 7.24 C0.88 6.64, 1.16 6.05, 1.47 5.5 C1.79 4.95, 2.16 4.42, 2.57 3.93 C2.98 3.44, 3.44 2.98, 3.93 2.57 C4.42 2.16, 4.95 1.79, 5.5 1.47 C6.05 1.16, 6.64 0.88, 7.24 0.66 C7.84 0.45, 8.46 0.28, 9.09 0.17 C9.72 0.06, 10.36 0, 11 0 C11.64 0, 12.28 0.06, 12.91 0.17 C13.54 0.28, 14.16 0.45, 14.76 0.66 C15.36 0.88, 15.95 1.16, 16.5 1.47 C17.05 1.79, 17.58 2.16, 18.07 2.57 C18.56 2.98, 19.02 3.44, 19.43 3.93 C19.84 4.42, 20.21 4.95, 20.53 5.5 C20.84 6.05, 21.12 6.64, 21.34 7.24 C21.55 7.84, 21.72 8.46, 21.83 9.09 C21.94 9.72, 21.97 10.68, 22 11 C22.03 11.32, 22.03 10.68, 22 11" stroke="#9b7ede" stroke-width="2" fill="none"/></g><g stroke-linecap="round"><g transform="translate(523 311.2) rotate(0 4 6)" fill-rule="evenodd"><path d="M0 0 L8 6 L0 12 L0 0" stroke="none" stroke-width="0" fill="#9b7ede" fill-rule="evenodd"/><path d="M0 0 C1.64 1.23, 3.28 2.46, 8 6 M0 0 C2.39 1.79, 4.79 3.59, 8 6 M8 6 C5.63 7.78, 3.26 9.56, 0 12 M8 6 C5.15 8.14, 2.3 10.28, 0 12 M0 12 C0 8.23, 0 4.46, 0 0 M0 12 C0 7.26, 0 2.52, 0 0 M0 0 C0 0, 0 0, 0 0 M0 0 C0 0, 0 0, 0 0" stroke="#9b7ede" stroke-width="2" fill="none"/></g></g><mask/><g stroke-linecap="round" transform="translate(515 377.6) rotate(0 11 11)"><path d="M22 11 C22 11.64, 21.94 12.28, 21.83 12.91 C21.72 13.54, 21.55 14.16, 21.34 14.76 C21.12 15.36, 20.84 15.95, 20.53 16.5 C20.21 17.05, 19.84 17.58, 19.43 18.07 C19.02 18.56, 18.56 19.02, 18.07 19.43 C17.58 19.84, 17.05 20.21, 16.5 20.53 C15.95 20.84, 15.36 21.12, 14.76 21.34 C14.16 21.55, 13.54 21.72, 12.91 21.83 C12.28 21.94, 11.64 22, 11 22 C10.36 22, 9.72 21.94, 9.09 21.83 C8.46 21.72, 7.84 21.55, 7.24 21.34 C6.64 21.12, 6.05 20.84, 5.5 20.53 C4.95 20.21, 4.42 19.84, 3.93 19.43 C3.44 19.02, 2.98 18.56, 2.57 18.07 C2.16 17.58, 1.79 17.05, 1.47 16.5 C1.16 15.95, 0.88 15.36, 0.66 14.76 C0.45 14.16, 0.28 13.54, 0.17 12.91 C0.06 12.28, 0 11.64, 0 11 C0 10.36, 0.06 9.72, 0.17 9.09 C0.28 8.46, 0.45 7.84, 0.66 7.24 C0.88 6.64, 1.16 6.05, 1.47 5.5 C1.79 4.95, 2.16 4.42, 2.57 3.93 C2.98 3.44, 3.44 2.98, 3.93 2.57 C4.42 2.16, 4.95 1.79, 5.5 1.47 C6.05 1.16, 6.64 0.88, 7.24 0.66 C7.84 0.45, 8.46 0.28, 9.09 0.17 C9.72 0.06, 10.36 0, 11 0 C11.64 0, 12.28 0.06, 12.91 0.17 C13.54 0.28, 14.16 0.45, 14.76 0.66 C15.36 0.88, 15.95 1.16, 16.5 1.47 C17.05 1.79, 17.58 2.16, 18.07 2.57 C18.56 2.98, 19.02 3.44, 19.43 3.93 C19.84 4.42, 20.21 4.95, 20.53 5.5 C20.84 6.05, 21.12 6.64, 21.34 7.24 C21.55 7.84, 21.72 8.46, 21.83 9.09 C21.94 9.72, 21.97 10.68, 22 11 C22.03 11.32, 22.03 10.68, 22 11" stroke="none" stroke-width="0" fill="#ffffff"/><path d="M22 11 C22 11.64, 21.94 12.28, 21.83 12.91 C21.72 13.54, 21.55 14.16, 21.34 14.76 C21.12 15.36, 20.84 15.95, 20.53 16.5 C20.21 17.05, 19.84 17.58, 19.43 18.07 C19.02 18.56, 18.56 19.02, 18.07 19.43 C17.58 19.84, 17.05 20.21, 16.5 20.53 C15.95 20.84, 15.36 21.12, 14.76 21.34 C14.16 21.55, 13.54 21.72, 12.91 21.83 C12.28 21.94, 11.64 22, 11 22 C10.36 22, 9.72 21.94, 9.09 21.83 C8.46 21.72, 7.84 21.55, 7.24 21.34 C6.64 21.12, 6.05 20.84, 5.5 20.53 C4.95 20.21, 4.42 19.84, 3.93 19.43 C3.44 19.02, 2.98 18.56, 2.57 18.07 C2.16 17.58, 1.79 17.05, 1.47 16.5 C1.16 15.95, 0.88 15.36, 0.66 14.76 C0.45 14.16, 0.28 13.54, 0.17 12.91 C0.06 12.28, 0 11.64, 0 11 C0 10.36, 0.06 9.72, 0.17 9.09 C0.28 8.46, 0.45 7.84, 0.66 7.24 C0.88 6.64, 1.16 6.05, 1.47 5.5 C1.79 4.95, 2.16 4.42, 2.57 3.93 C2.98 3.44, 3.44 2.98, 3.93 2.57 C4.42 2.16, 4.95 1.79, 5.5 1.47 C6.05 1.16, 6.64 0.88, 7.24 0.66 C7.84 0.45, 8.46 0.28, 9.09 0.17 C9.72 0.06, 10.36 0, 11 0 C11.64 0, 12.28 0.06, 12.91 0.17 C13.54 0.28, 14.16 0.45, 14.76 0.66 C15.36 0.88, 15.95 1.16, 16.5 1.47 C17.05 1.79, 17.58 2.16, 18.07 2.57 C18.56 2.98, 19.02 3.44, 19.43 3.93 C19.84 4.42, 20.21 4.95, 20.53 5.5 C20.84 6.05, 21.12 6.64, 21.34 7.24 C21.55 7.84, 21.72 8.46, 21.83 9.09 C21.94 9.72, 21.97 10.68, 22 11 C22.03 11.32, 22.03 10.68, 22 11" stroke="#9b7ede" stroke-width="2" fill="none"/></g><g stroke-linecap="round"><g transform="translate(523 382.6) rotate(0 4 6)" fill-rule="evenodd"><path d="M0 0 L8 6 L0 12 L0 0" stroke="none" stroke-width="0" fill="#9b7ede" fill-rule="evenodd"/><path d="M0 0 C1.64 1.23, 3.28 2.46, 8 6 M0 0 C3.1 2.32, 6.19 4.65, 8 6 M8 6 C6.11 7.42, 4.21 8.84, 0 12 M8 6 C5.94 7.55, 3.88 9.09, 0 12 M0 12 C0 7.68, 0 3.35, 0 0 M0 12 C0 7.7, 0 3.39, 0 0 M0 0 C0 0, 0 0, 0 0 M0 0 C0 0, 0 0, 0 0" stroke="#9b7ede" stroke-width="2" fill="none"/></g></g><mask/><g stroke-linecap="round" transform="translate(515 449) rotate(0 11 11)"><path d="M22 11 C22 11.64, 21.94 12.28, 21.83 12.91 C21.72 13.54, 21.55 14.16, 21.34 14.76 C21.12 15.36, 20.84 15.95, 20.53 16.5 C20.21 17.05, 19.84 17.58, 19.43 18.07 C19.02 18.56, 18.56 19.02, 18.07 19.43 C17.58 19.84, 17.05 20.21, 16.5 20.53 C15.95 20.84, 15.36 21.12, 14.76 21.34 C14.16 21.55, 13.54 21.72, 12.91 21.83 C12.28 21.94, 11.64 22, 11 22 C10.36 22, 9.72 21.94, 9.09 21.83 C8.46 21.72, 7.84 21.55, 7.24 21.34 C6.64 21.12, 6.05 20.84, 5.5 20.53 C4.95 20.21, 4.42 19.84, 3.93 19.43 C3.44 19.02, 2.98 18.56, 2.57 18.07 C2.16 17.58, 1.79 17.05, 1.47 16.5 C1.16 15.95, 0.88 15.36, 0.66 14.76 C0.45 14.16, 0.28 13.54, 0.17 12.91 C0.06 12.28, 0 11.64, 0 11 C0 10.36, 0.06 9.72, 0.17 9.09 C0.28 8.46, 0.45 7.84, 0.66 7.24 C0.88 6.64, 1.16 6.05, 1.47 5.5 C1.79 4.95, 2.16 4.42, 2.57 3.93 C2.98 3.44, 3.44 2.98, 3.93 2.57 C4.42 2.16, 4.95 1.79, 5.5 1.47 C6.05 1.16, 6.64 0.88, 7.24 0.66 C7.84 0.45, 8.46 0.28, 9.09 0.17 C9.72 0.06, 10.36 0, 11 0 C11.64 0, 12.28 0.06, 12.91 0.17 C13.54 0.28, 14.16 0.45, 14.76 0.66 C15.36 0.88, 15.95 1.16, 16.5 1.47 C17.05 1.79, 17.58 2.16, 18.07 2.57 C18.56 2.98, 19.02 3.44, 19.43 3.93 C19.84 4.42, 20.21 4.95, 20.53 5.5 C20.84 6.05, 21.12 6.64, 21.34 7.24 C21.55 7.84, 21.72 8.46, 21.83 9.09 C21.94 9.72, 21.97 10.68, 22 11 C22.03 11.32, 22.03 10.68, 22 11" stroke="none" stroke-width="0" fill="#ffffff"/><path d="M22 11 C22 11.64, 21.94 12.28, 21.83 12.91 C21.72 13.54, 21.55 14.16, 21.34 14.76 C21.12 15.36, 20.84 15.95, 20.53 16.5 C20.21 17.05, 19.84 17.58, 19.43 18.07 C19.02 18.56, 18.56 19.02, 18.07 19.43 C17.58 19.84, 17.05 20.21, 16.5 20.53 C15.95 20.84, 15.36 21.12, 14.76 21.34 C14.16 21.55, 13.54 21.72, 12.91 21.83 C12.28 21.94, 11.64 22, 11 22 C10.36 22, 9.72 21.94, 9.09 21.83 C8.46 21.72, 7.84 21.55, 7.24 21.34 C6.64 21.12, 6.05 20.84, 5.5 20.53 C4.95 20.21, 4.42 19.84, 3.93 19.43 C3.44 19.02, 2.98 18.56, 2.57 18.07 C2.16 17.58, 1.79 17.05, 1.47 16.5 C1.16 15.95, 0.88 15.36, 0.66 14.76 C0.45 14.16, 0.28 13.54, 0.17 12.91 C0.06 12.28, 0 11.64, 0 11 C0 10.36, 0.06 9.72, 0.17 9.09 C0.28 8.46, 0.45 7.84, 0.66 7.24 C0.88 6.64, 1.16 6.05, 1.47 5.5 C1.79 4.95, 2.16 4.42, 2.57 3.93 C2.98 3.44, 3.44 2.98, 3.93 2.57 C4.42 2.16, 4.95 1.79, 5.5 1.47 C6.05 1.16, 6.64 0.88, 7.24 0.66 C7.84 0.45, 8.46 0.28, 9.09 0.17 C9.72 0.06, 10.36 0, 11 0 C11.64 0, 12.28 0.06, 12.91 0.17 C13.54 0.28, 14.16 0.45, 14.76 0.66 C15.36 0.88, 15.95 1.16, 16.5 1.47 C17.05 1.79, 17.58 2.16, 18.07 2.57 C18.56 2.98, 19.02 3.44, 19.43 3.93 C19.84 4.42, 20.21 4.95, 20.53 5.5 C20.84 6.05, 21.12 6.64, 21.34 7.24 C21.55 7.84, 21.72 8.46, 21.83 9.09 C21.94 9.72, 21.97 10.68, 22 11 C22.03 11.32, 22.03 10.68, 22 11" stroke="#5a5a5a" stroke-width="2" fill="none"/></g><g stroke-linecap="round"><g transform="translate(521 460) rotate(0 5 0)"><path d="M0 0 C2.05 0, 4.1 0, 10 0 M0 0 C2.75 0, 5.5 0, 10 0" stroke="#5a5a5a" stroke-width="2" fill="none"/></g></g><mask/><g stroke-linecap="round" transform="translate(515 511.9) rotate(0 11 11)"><path d="M22 11 C22 11.64, 21.94 12.28, 21.83 12.91 C21.72 13.54, 21.55 14.16, 21.34 14.76 C21.12 15.36, 20.84 15.95, 20.53 16.5 C20.21 17.05, 19.84 17.58, 19.43 18.07 C19.02 18.56, 18.56 19.02, 18.07 19.43 C17.58 19.84, 17.05 20.21, 16.5 20.53 C15.95 20.84, 15.36 21.12, 14.76 21.34 C14.16 21.55, 13.54 21.72, 12.91 21.83 C12.28 21.94, 11.64 22, 11 22 C10.36 22, 9.72 21.94, 9.09 21.83 C8.46 21.72, 7.84 21.55, 7.24 21.34 C6.64 21.12, 6.05 20.84, 5.5 20.53 C4.95 20.21, 4.42 19.84, 3.93 19.43 C3.44 19.02, 2.98 18.56, 2.57 18.07 C2.16 17.58, 1.79 17.05, 1.47 16.5 C1.16 15.95, 0.88 15.36, 0.66 14.76 C0.45 14.16, 0.28 13.54, 0.17 12.91 C0.06 12.28, 0 11.64, 0 11 C0 10.36, 0.06 9.72, 0.17 9.09 C0.28 8.46, 0.45 7.84, 0.66 7.24 C0.88 6.64, 1.16 6.05, 1.47 5.5 C1.79 4.95, 2.16 4.42, 2.57 3.93 C2.98 3.44, 3.44 2.98, 3.93 2.57 C4.42 2.16, 4.95 1.79, 5.5 1.47 C6.05 1.16, 6.64 0.88, 7.24 0.66 C7.84 0.45, 8.46 0.28, 9.09 0.17 C9.72 0.06, 10.36 0, 11 0 C11.64 0, 12.28 0.06, 12.91 0.17 C13.54 0.28, 14.16 0.45, 14.76 0.66 C15.36 0.88, 15.95 1.16, 16.5 1.47 C17.05 1.79, 17.58 2.16, 18.07 2.57 C18.56 2.98, 19.02 3.44, 19.43 3.93 C19.84 4.42, 20.21 4.95, 20.53 5.5 C20.84 6.05, 21.12 6.64, 21.34 7.24 C21.55 7.84, 21.72 8.46, 21.83 9.09 C21.94 9.72, 21.97 10.68, 22 11 C22.03 11.32, 22.03 10.68, 22 11" stroke="none" stroke-width="0" fill="#ffffff"/><path d="M22 11 C22 11.64, 21.94 12.28, 21.83 12.91 C21.72 13.54, 21.55 14.16, 21.34 14.76 C21.12 15.36, 20.84 15.95, 20.53 16.5 C20.21 17.05, 19.84 17.58, 19.43 18.07 C19.02 18.56, 18.56 19.02, 18.07 19.43 C17.58 19.84, 17.05 20.21, 16.5 20.53 C15.95 20.84, 15.36 21.12, 14.76 21.34 C14.16 21.55, 13.54 21.72, 12.91 21.83 C12.28 21.94, 11.64 22, 11 22 C10.36 22, 9.72 21.94, 9.09 21.83 C8.46 21.72, 7.84 21.55, 7.24 21.34 C6.64 21.12, 6.05 20.84, 5.5 20.53 C4.95 20.21, 4.42 19.84, 3.93 19.43 C3.44 19.02, 2.98 18.56, 2.57 18.07 C2.16 17.58, 1.79 17.05, 1.47 16.5 C1.16 15.95, 0.88 15.36, 0.66 14.76 C0.45 14.16, 0.28 13.54, 0.17 12.91 C0.06 12.28, 0 11.64, 0 11 C0 10.36, 0.06 9.72, 0.17 9.09 C0.28 8.46, 0.45 7.84, 0.66 7.24 C0.88 6.64, 1.16 6.05, 1.47 5.5 C1.79 4.95, 2.16 4.42, 2.57 3.93 C2.98 3.44, 3.44 2.98, 3.93 2.57 C4.42 2.16, 4.95 1.79, 5.5 1.47 C6.05 1.16, 6.64 0.88, 7.24 0.66 C7.84 0.45, 8.46 0.28, 9.09 0.17 C9.72 0.06, 10.36 0, 11 0 C11.64 0, 12.28 0.06, 12.91 0.17 C13.54 0.28, 14.16 0.45, 14.76 0.66 C15.36 0.88, 15.95 1.16, 16.5 1.47 C17.05 1.79, 17.58 2.16, 18.07 2.57 C18.56 2.98, 19.02 3.44, 19.43 3.93 C19.84 4.42, 20.21 4.95, 20.53 5.5 C20.84 6.05, 21.12 6.64, 21.34 7.24 C21.55 7.84, 21.72 8.46, 21.83 9.09 C21.94 9.72, 21.97 10.68, 22 11 C22.03 11.32, 22.03 10.68, 22 11" stroke="#9b7ede" stroke-width="2" fill="none"/></g><g stroke-linecap="round"><g transform="translate(523 516.9) rotate(0 4 6)" fill-rule="evenodd"><path d="M0 0 L8 6 L0 12 L0 0" stroke="none" stroke-width="0" fill="#9b7ede" fill-rule="evenodd"/><path d="M0 0 C1.64 1.23, 3.28 2.46, 8 6 M0 0 C2.9 2.18, 5.81 4.36, 8 6 M8 6 C5.46 7.91, 2.91 9.82, 0 12 M8 6 C5.92 7.56, 3.84 9.12, 0 12 M0 12 C0 8.97, 0 5.94, 0 0 M0 12 C0 8.57, 0 5.14, 0 0 M0 0 C0 0, 0 0, 0 0 M0 0 C0 0, 0 0, 0 0" stroke="#9b7ede" stroke-width="2" fill="none"/></g></g><mask/><g stroke-linecap="round" transform="translate(515 574.8) rotate(0 11 11)"><path d="M22 11 C22 11.64, 21.94 12.28, 21.83 12.91 C21.72 13.54, 21.55 14.16, 21.34 14.76 C21.12 15.36, 20.84 15.95, 20.53 16.5 C20.21 17.05, 19.84 17.58, 19.43 18.07 C19.02 18.56, 18.56 19.02, 18.07 19.43 C17.58 19.84, 17.05 20.21, 16.5 20.53 C15.95 20.84, 15.36 21.12, 14.76 21.34 C14.16 21.55, 13.54 21.72, 12.91 21.83 C12.28 21.94, 11.64 22, 11 22 C10.36 22, 9.72 21.94, 9.09 21.83 C8.46 21.72, 7.84 21.55, 7.24 21.34 C6.64 21.12, 6.05 20.84, 5.5 20.53 C4.95 20.21, 4.42 19.84, 3.93 19.43 C3.44 19.02, 2.98 18.56, 2.57 18.07 C2.16 17.58, 1.79 17.05, 1.47 16.5 C1.16 15.95, 0.88 15.36, 0.66 14.76 C0.45 14.16, 0.28 13.54, 0.17 12.91 C0.06 12.28, 0 11.64, 0 11 C0 10.36, 0.06 9.72, 0.17 9.09 C0.28 8.46, 0.45 7.84, 0.66 7.24 C0.88 6.64, 1.16 6.05, 1.47 5.5 C1.79 4.95, 2.16 4.42, 2.57 3.93 C2.98 3.44, 3.44 2.98, 3.93 2.57 C4.42 2.16, 4.95 1.79, 5.5 1.47 C6.05 1.16, 6.64 0.88, 7.24 0.66 C7.84 0.45, 8.46 0.28, 9.09 0.17 C9.72 0.06, 10.36 0, 11 0 C11.64 0, 12.28 0.06, 12.91 0.17 C13.54 0.28, 14.16 0.45, 14.76 0.66 C15.36 0.88, 15.95 1.16, 16.5 1.47 C17.05 1.79, 17.58 2.16, 18.07 2.57 C18.56 2.98, 19.02 3.44, 19.43 3.93 C19.84 4.42, 20.21 4.95, 20.53 5.5 C20.84 6.05, 21.12 6.64, 21.34 7.24 C21.55 7.84, 21.72 8.46, 21.83 9.09 C21.94 9.72, 21.97 10.68, 22 11 C22.03 11.32, 22.03 10.68, 22 11" stroke="none" stroke-width="0" fill="#ffffff"/><path d="M22 11 C22 11.64, 21.94 12.28, 21.83 12.91 C21.72 13.54, 21.55 14.16, 21.34 14.76 C21.12 15.36, 20.84 15.95, 20.53 16.5 C20.21 17.05, 19.84 17.58, 19.43 18.07 C19.02 18.56, 18.56 19.02, 18.07 19.43 C17.58 19.84, 17.05 20.21, 16.5 20.53 C15.95 20.84, 15.36 21.12, 14.76 21.34 C14.16 21.55, 13.54 21.72, 12.91 21.83 C12.28 21.94, 11.64 22, 11 22 C10.36 22, 9.72 21.94, 9.09 21.83 C8.46 21.72, 7.84 21.55, 7.24 21.34 C6.64 21.12, 6.05 20.84, 5.5 20.53 C4.95 20.21, 4.42 19.84, 3.93 19.43 C3.44 19.02, 2.98 18.56, 2.57 18.07 C2.16 17.58, 1.79 17.05, 1.47 16.5 C1.16 15.95, 0.88 15.36, 0.66 14.76 C0.45 14.16, 0.28 13.54, 0.17 12.91 C0.06 12.28, 0 11.64, 0 11 C0 10.36, 0.06 9.72, 0.17 9.09 C0.28 8.46, 0.45 7.84, 0.66 7.24 C0.88 6.64, 1.16 6.05, 1.47 5.5 C1.79 4.95, 2.16 4.42, 2.57 3.93 C2.98 3.44, 3.44 2.98, 3.93 2.57 C4.42 2.16, 4.95 1.79, 5.5 1.47 C6.05 1.16, 6.64 0.88, 7.24 0.66 C7.84 0.45, 8.46 0.28, 9.09 0.17 C9.72 0.06, 10.36 0, 11 0 C11.64 0, 12.28 0.06, 12.91 0.17 C13.54 0.28, 14.16 0.45, 14.76 0.66 C15.36 0.88, 15.95 1.16, 16.5 1.47 C17.05 1.79, 17.58 2.16, 18.07 2.57 C18.56 2.98, 19.02 3.44, 19.43 3.93 C19.84 4.42, 20.21 4.95, 20.53 5.5 C20.84 6.05, 21.12 6.64, 21.34 7.24 C21.55 7.84, 21.72 8.46, 21.83 9.09 C21.94 9.72, 21.97 10.68, 22 11 C22.03 11.32, 22.03 10.68, 22 11" stroke="#5a5a5a" stroke-width="2" fill="none"/></g><g stroke-linecap="round"><g transform="translate(521 585.8) rotate(0 5 0)"><path d="M0 0 C2.05 0, 4.1 0, 10 0 M0 0 C2.51 0, 5.02 0, 10 0" stroke="#5a5a5a" stroke-width="2" fill="none"/></g></g><mask/><g stroke-linecap="round" transform="translate(515 637.7) rotate(0 11 11)"><path d="M22 11 C22 11.64, 21.94 12.28, 21.83 12.91 C21.72 13.54, 21.55 14.16, 21.34 14.76 C21.12 15.36, 20.84 15.95, 20.53 16.5 C20.21 17.05, 19.84 17.58, 19.43 18.07 C19.02 18.56, 18.56 19.02, 18.07 19.43 C17.58 19.84, 17.05 20.21, 16.5 20.53 C15.95 20.84, 15.36 21.12, 14.76 21.34 C14.16 21.55, 13.54 21.72, 12.91 21.83 C12.28 21.94, 11.64 22, 11 22 C10.36 22, 9.72 21.94, 9.09 21.83 C8.46 21.72, 7.84 21.55, 7.24 21.34 C6.64 21.12, 6.05 20.84, 5.5 20.53 C4.95 20.21, 4.42 19.84, 3.93 19.43 C3.44 19.02, 2.98 18.56, 2.57 18.07 C2.16 17.58, 1.79 17.05, 1.47 16.5 C1.16 15.95, 0.88 15.36, 0.66 14.76 C0.45 14.16, 0.28 13.54, 0.17 12.91 C0.06 12.28, 0 11.64, 0 11 C0 10.36, 0.06 9.72, 0.17 9.09 C0.28 8.46, 0.45 7.84, 0.66 7.24 C0.88 6.64, 1.16 6.05, 1.47 5.5 C1.79 4.95, 2.16 4.42, 2.57 3.93 C2.98 3.44, 3.44 2.98, 3.93 2.57 C4.42 2.16, 4.95 1.79, 5.5 1.47 C6.05 1.16, 6.64 0.88, 7.24 0.66 C7.84 0.45, 8.46 0.28, 9.09 0.17 C9.72 0.06, 10.36 0, 11 0 C11.64 0, 12.28 0.06, 12.91 0.17 C13.54 0.28, 14.16 0.45, 14.76 0.66 C15.36 0.88, 15.95 1.16, 16.5 1.47 C17.05 1.79, 17.58 2.16, 18.07 2.57 C18.56 2.98, 19.02 3.44, 19.43 3.93 C19.84 4.42, 20.21 4.95, 20.53 5.5 C20.84 6.05, 21.12 6.64, 21.34 7.24 C21.55 7.84, 21.72 8.46, 21.83 9.09 C21.94 9.72, 21.97 10.68, 22 11 C22.03 11.32, 22.03 10.68, 22 11" stroke="none" stroke-width="0" fill="#1d9e4b"/><path d="M22 11 C22 11.64, 21.94 12.28, 21.83 12.91 C21.72 13.54, 21.55 14.16, 21.34 14.76 C21.12 15.36, 20.84 15.95, 20.53 16.5 C20.21 17.05, 19.84 17.58, 19.43 18.07 C19.02 18.56, 18.56 19.02, 18.07 19.43 C17.58 19.84, 17.05 20.21, 16.5 20.53 C15.95 20.84, 15.36 21.12, 14.76 21.34 C14.16 21.55, 13.54 21.72, 12.91 21.83 C12.28 21.94, 11.64 22, 11 22 C10.36 22, 9.72 21.94, 9.09 21.83 C8.46 21.72, 7.84 21.55, 7.24 21.34 C6.64 21.12, 6.05 20.84, 5.5 20.53 C4.95 20.21, 4.42 19.84, 3.93 19.43 C3.44 19.02, 2.98 18.56, 2.57 18.07 C2.16 17.58, 1.79 17.05, 1.47 16.5 C1.16 15.95, 0.88 15.36, 0.66 14.76 C0.45 14.16, 0.28 13.54, 0.17 12.91 C0.06 12.28, 0 11.64, 0 11 C0 10.36, 0.06 9.72, 0.17 9.09 C0.28 8.46, 0.45 7.84, 0.66 7.24 C0.88 6.64, 1.16 6.05, 1.47 5.5 C1.79 4.95, 2.16 4.42, 2.57 3.93 C2.98 3.44, 3.44 2.98, 3.93 2.57 C4.42 2.16, 4.95 1.79, 5.5 1.47 C6.05 1.16, 6.64 0.88, 7.24 0.66 C7.84 0.45, 8.46 0.28, 9.09 0.17 C9.72 0.06, 10.36 0, 11 0 C11.64 0, 12.28 0.06, 12.91 0.17 C13.54 0.28, 14.16 0.45, 14.76 0.66 C15.36 0.88, 15.95 1.16, 16.5 1.47 C17.05 1.79, 17.58 2.16, 18.07 2.57 C18.56 2.98, 19.02 3.44, 19.43 3.93 C19.84 4.42, 20.21 4.95, 20.53 5.5 C20.84 6.05, 21.12 6.64, 21.34 7.24 C21.55 7.84, 21.72 8.46, 21.83 9.09 C21.94 9.72, 21.97 10.68, 22 11 C22.03 11.32, 22.03 10.68, 22 11" stroke="#1d9e4b" stroke-width="2" fill="none"/></g><g stroke-linecap="round"><g transform="translate(520 648.7) rotate(0 6 0)"><path d="M0 0 C0.82 1.02, 1.64 2.05, 4 5 M0 0 C1.36 1.7, 2.71 3.39, 4 5 M4 5 C7.19 1.01, 10.38 -2.98, 12 -5 M4 5 C6.1 2.38, 8.19 -0.24, 12 -5" stroke="#ffffff" stroke-width="2" fill="none"/></g></g><mask/><g transform="translate(10 794)" font-family="ui-monospace, SFMono-Regular, Menlo, Consolas, monospace" font-size="13px" fill="#5a5a5a" text-anchor="start" direction="ltr" dominant-baseline="alphabetic"><text x="0" y="13.6068359375">Multi-Region RDBMS recovery</text><text x="0" y="31.8068359375">Partitions whose leaders survive continue processing. Client rerouting takes additional time.</text><text x="0" y="50.0068359375">During database recovery, export backlog can throttle processing if dynamic flow control is enabled.</text><text x="0" y="68.2068359375">Exhausted broker disk capacity can stop processing.</text></g></svg>
