<svg xmlns="http://www.w3.org/2000/svg" width="60" height="60" version="1.1" style="overflow:hidden;position:relative;left:-.875px"><path fill="#fff" stroke="#333" stroke-linecap="round" stroke-linejoin="round" stroke-opacity="1" stroke-width="2" d="M5,25L25,5L45,25L25,45L5,25" style="stroke-linecap:round;stroke-linejoin:round;stroke-opacity:1"/><text x="1" y="55" fill="#333" stroke="none" font="10px &quot;Arial&quot;" font-family="Arial, Helvetica, sans-serif" font-size="12" text-anchor="start" style="text-anchor:start;font-style:normal;font-variant:normal;font-weight:400;font-stretch:normal;font-size:12px;line-height:normal;font-family:Arial,Helvetica,sans-serif"><tspan dy="4">Complex</tspan></text><g><path d="m 23,13 0,7.116788321167883 -5.018248175182482,-5.018248175182482 -3.102189781021898,3.102189781021898 5.018248175182482,5.018248175182482 -7.116788321167883,0 0,4.37956204379562 7.116788321167883,0 -5.018248175182482,5.018248175182482 l 3.102189781021898,3.102189781021898 5.018248175182482,-5.018248175182482 0,7.116788321167883 4.37956204379562,0 0,-7.116788321167883 5.018248175182482,5.018248175182482 3.102189781021898,-3.102189781021898 -5.018248175182482,-5.018248175182482 7.116788321167883,0 0,-4.37956204379562 -7.116788321167883,0 5.018248175182482,-5.018248175182482 -3.102189781021898,-3.102189781021898 -5.018248175182482,5.018248175182482 0,-7.116788321167883 -4.37956204379562,0 z" transform="scale(0.75) translate(7.5, 7.5)" style="fill:#000;stroke-width:1px;stroke:#000"/></g></svg>