<svg xmlns="http://www.w3.org/2000/svg" width="40" height="40" version="1.1"><circle id="svg_1" cx="20" cy="20" r="15" fill="#fff" stroke="#333" stroke-dasharray="3 3" stroke-linecap="round" stroke-linejoin="round" stroke-opacity="1" stroke-width="1.5" style="stroke-linecap:round;stroke-linejoin:round;stroke-opacity:1"/><circle cx="20" cy="20" r="12" fill="none" stroke="#333" stroke-dasharray="3 3" stroke-linecap="round" stroke-linejoin="round" stroke-opacity="1" stroke-width="1.5" style="stroke-linecap:round;stroke-linejoin:round;stroke-opacity:1"/><circle cx="20" cy="20" r="10" fill="#fff" stroke="#333" stroke-linecap="round" stroke-linejoin="round" stroke-opacity="1" stroke-width="1.5" style="stroke-linecap:round;stroke-linejoin:round;stroke-opacity:1"/><path fill="#fff" stroke="#333" stroke-linecap="round" stroke-linejoin="round" stroke-opacity="1" stroke-width="1.5" d="M15,5L15,8M20,6L18.5,9M24,10L21,11.5M25,15L22,15M24,20L21,18.5M20,24L18.5,21M15,25L15,22M10,24L11.5,21M6,20L9,18.5M5,15L8,15M6,10L9,11.5M10,6L11.5,9M17,8L15,15L19,15" transform="matrix(1,0,0,1,5,5)" style="stroke-linecap:round;stroke-linejoin:round;stroke-opacity:1"/></svg>