<svg width="306" height="246" viewBox="0 0 102 82" fill="none" xmlns="http://www.w3.org/2000/svg">
<rect x="1" y="1" width="100" height="80" rx="9" fill="white" stroke="#23242A" stroke-width="2"/>
<path d="M22.3589 45.144C21.2949 45.144 20.4669 44.784 19.8749 44.064C19.2829 43.336 18.9869 42.268 18.9869 40.86C18.9869 39.452 19.2829 38.372 19.8749 37.62C20.4669 36.86 21.2949 36.48 22.3589 36.48C23.0629 36.48 23.6509 36.64 24.1229 36.96C24.6029 37.28 24.9749 37.732 25.2389 38.316L24.4229 38.808C24.2549 38.376 23.9989 38.032 23.6549 37.776C23.3109 37.512 22.8789 37.38 22.3589 37.38C21.9989 37.38 21.6749 37.448 21.3869 37.584C21.1069 37.72 20.8669 37.916 20.6669 38.172C20.4749 38.42 20.3269 38.72 20.2229 39.072C20.1189 39.416 20.0669 39.804 20.0669 40.236V41.484C20.0669 42.348 20.2669 43.024 20.6669 43.512C21.0669 44 21.6309 44.244 22.3589 44.244C22.8949 44.244 23.3429 44.108 23.7029 43.836C24.0629 43.556 24.3269 43.188 24.4949 42.732L25.2989 43.236C25.0349 43.828 24.6549 44.296 24.1589 44.64C23.6629 44.976 23.0629 45.144 22.3589 45.144ZM31.144 45C30.784 45 30.524 44.904 30.364 44.712C30.212 44.52 30.116 44.28 30.076 43.992H30.016C29.88 44.376 29.656 44.664 29.344 44.856C29.032 45.048 28.66 45.144 28.228 45.144C27.572 45.144 27.06 44.976 26.692 44.64C26.332 44.304 26.152 43.848 26.152 43.272C26.152 42.688 26.364 42.24 26.788 41.928C27.22 41.616 27.888 41.46 28.792 41.46H30.016V40.848C30.016 40.408 29.896 40.072 29.656 39.84C29.416 39.608 29.048 39.492 28.552 39.492C28.176 39.492 27.86 39.576 27.604 39.744C27.356 39.912 27.148 40.136 26.98 40.416L26.404 39.876C26.572 39.54 26.84 39.256 27.208 39.024C27.576 38.784 28.04 38.664 28.6 38.664C29.352 38.664 29.936 38.848 30.352 39.216C30.768 39.584 30.976 40.096 30.976 40.752V44.16H31.684V45H31.144ZM28.384 44.328C28.624 44.328 28.844 44.3 29.044 44.244C29.244 44.188 29.416 44.108 29.56 44.004C29.704 43.9 29.816 43.78 29.896 43.644C29.976 43.508 30.016 43.36 30.016 43.2V42.18H28.744C28.192 42.18 27.788 42.26 27.532 42.42C27.284 42.58 27.16 42.812 27.16 43.116V43.368C27.16 43.672 27.268 43.908 27.484 44.076C27.708 44.244 28.008 44.328 28.384 44.328ZM33.9541 45C33.6181 45 33.3621 44.908 33.1861 44.724C33.0181 44.532 32.9341 44.292 32.9341 44.004V36.12H33.8941V44.16H34.8061V45H33.9541ZM37.0451 45C36.7091 45 36.4531 44.908 36.2771 44.724C36.1091 44.532 36.0251 44.292 36.0251 44.004V36.12H36.9851V44.16H37.8971V45H37.0451ZM45.1185 45.144C44.5745 45.144 44.0825 45.052 43.6425 44.868C43.2105 44.676 42.8385 44.4 42.5265 44.04C42.2225 43.672 41.9865 43.22 41.8185 42.684C41.6505 42.14 41.5665 41.516 41.5665 40.812C41.5665 40.108 41.6505 39.488 41.8185 38.952C41.9865 38.416 42.2225 37.964 42.5265 37.596C42.8385 37.228 43.2105 36.952 43.6425 36.768C44.0825 36.576 44.5745 36.48 45.1185 36.48C45.6545 36.48 46.1425 36.576 46.5825 36.768C47.0225 36.952 47.3945 37.228 47.6985 37.596C48.0105 37.964 48.2505 38.416 48.4185 38.952C48.5865 39.488 48.6705 40.108 48.6705 40.812C48.6705 41.516 48.5865 42.14 48.4185 42.684C48.2505 43.22 48.0105 43.672 47.6985 44.04C47.3945 44.4 47.0225 44.676 46.5825 44.868C46.1425 45.052 45.6545 45.144 45.1185 45.144ZM45.1185 44.244C45.4785 44.244 45.8105 44.18 46.1145 44.052C46.4185 43.924 46.6785 43.74 46.8945 43.5C47.1185 43.26 47.2905 42.972 47.4105 42.636C47.5305 42.3 47.5905 41.924 47.5905 41.508V40.116C47.5905 39.7 47.5305 39.324 47.4105 38.988C47.2905 38.652 47.1185 38.364 46.8945 38.124C46.6785 37.884 46.4185 37.7 46.1145 37.572C45.8105 37.444 45.4785 37.38 45.1185 37.38C44.7585 37.38 44.4265 37.444 44.1225 37.572C43.8185 37.7 43.5545 37.884 43.3305 38.124C43.1145 38.364 42.9465 38.652 42.8265 38.988C42.7065 39.324 42.6465 39.7 42.6465 40.116V41.508C42.6465 41.924 42.7065 42.3 42.8265 42.636C42.9465 42.972 43.1145 43.26 43.3305 43.5C43.5545 43.74 43.8185 43.924 44.1225 44.052C44.4265 44.18 44.7585 44.244 45.1185 44.244ZM50.2666 38.808H51.2266V39.816H51.2746C51.4346 39.424 51.6666 39.136 51.9706 38.952C52.2826 38.76 52.6546 38.664 53.0866 38.664C53.4706 38.664 53.8186 38.74 54.1306 38.892C54.4426 39.044 54.7066 39.26 54.9226 39.54C55.1466 39.82 55.3146 40.16 55.4266 40.56C55.5466 40.96 55.6066 41.408 55.6066 41.904C55.6066 42.4 55.5466 42.848 55.4266 43.248C55.3146 43.648 55.1466 43.988 54.9226 44.268C54.7066 44.548 54.4426 44.764 54.1306 44.916C53.8186 45.068 53.4706 45.144 53.0866 45.144C52.2466 45.144 51.6426 44.76 51.2746 43.992H51.2266V47.4H50.2666V38.808ZM52.8226 44.28C53.3666 44.28 53.7946 44.112 54.1066 43.776C54.4186 43.432 54.5746 42.984 54.5746 42.432V41.376C54.5746 40.824 54.4186 40.38 54.1066 40.044C53.7946 39.7 53.3666 39.528 52.8226 39.528C52.6066 39.528 52.3986 39.56 52.1986 39.624C52.0066 39.68 51.8386 39.76 51.6946 39.864C51.5506 39.968 51.4346 40.096 51.3466 40.248C51.2666 40.392 51.2266 40.548 51.2266 40.716V43.02C51.2266 43.22 51.2666 43.4 51.3466 43.56C51.4346 43.712 51.5506 43.844 51.6946 43.956C51.8386 44.06 52.0066 44.14 52.1986 44.196C52.3986 44.252 52.6066 44.28 52.8226 44.28ZM59.4356 45.144C59.0116 45.144 58.6276 45.068 58.2836 44.916C57.9476 44.764 57.6556 44.548 57.4076 44.268C57.1676 43.98 56.9796 43.64 56.8436 43.248C56.7156 42.848 56.6516 42.4 56.6516 41.904C56.6516 41.416 56.7156 40.972 56.8436 40.572C56.9796 40.172 57.1676 39.832 57.4076 39.552C57.6556 39.264 57.9476 39.044 58.2836 38.892C58.6276 38.74 59.0116 38.664 59.4356 38.664C59.8516 38.664 60.2236 38.74 60.5516 38.892C60.8796 39.044 61.1596 39.256 61.3916 39.528C61.6236 39.792 61.7996 40.108 61.9196 40.476C62.0476 40.844 62.1116 41.248 62.1116 41.688V42.144H57.6596V42.432C57.6596 42.696 57.6996 42.944 57.7796 43.176C57.8676 43.4 57.9876 43.596 58.1396 43.764C58.2996 43.932 58.4916 44.064 58.7156 44.16C58.9476 44.256 59.2076 44.304 59.4956 44.304C59.8876 44.304 60.2276 44.212 60.5156 44.028C60.8116 43.844 61.0396 43.58 61.1996 43.236L61.8836 43.728C61.6836 44.152 61.3716 44.496 60.9476 44.76C60.5236 45.016 60.0196 45.144 59.4356 45.144ZM59.4356 39.468C59.1716 39.468 58.9316 39.516 58.7156 39.612C58.4996 39.7 58.3116 39.828 58.1516 39.996C57.9996 40.164 57.8796 40.364 57.7916 40.596C57.7036 40.82 57.6596 41.068 57.6596 41.34V41.424H61.0796V41.292C61.0796 40.74 60.9276 40.3 60.6236 39.972C60.3276 39.636 59.9316 39.468 59.4356 39.468ZM63.5735 45V38.808H64.5335V39.948H64.5935C64.7055 39.652 64.9055 39.388 65.1935 39.156C65.4815 38.924 65.8775 38.808 66.3815 38.808H66.7535V39.768H66.1895C65.6695 39.768 65.2615 39.868 64.9655 40.068C64.6775 40.26 64.5335 40.504 64.5335 40.8V45H63.5735ZM72.3129 45C71.9529 45 71.6929 44.904 71.5329 44.712C71.3809 44.52 71.2849 44.28 71.2449 43.992H71.1849C71.0489 44.376 70.8249 44.664 70.5129 44.856C70.2009 45.048 69.8289 45.144 69.3969 45.144C68.7409 45.144 68.2289 44.976 67.8609 44.64C67.5009 44.304 67.3209 43.848 67.3209 43.272C67.3209 42.688 67.5329 42.24 67.9569 41.928C68.3889 41.616 69.0569 41.46 69.9609 41.46H71.1849V40.848C71.1849 40.408 71.0649 40.072 70.8249 39.84C70.5849 39.608 70.2169 39.492 69.7209 39.492C69.3449 39.492 69.0289 39.576 68.7729 39.744C68.5249 39.912 68.3169 40.136 68.1489 40.416L67.5729 39.876C67.7409 39.54 68.0089 39.256 68.3769 39.024C68.7449 38.784 69.2089 38.664 69.7689 38.664C70.5209 38.664 71.1049 38.848 71.5209 39.216C71.9369 39.584 72.1449 40.096 72.1449 40.752V44.16H72.8529V45H72.3129ZM69.5529 44.328C69.7929 44.328 70.0129 44.3 70.2129 44.244C70.4129 44.188 70.5849 44.108 70.7289 44.004C70.8729 43.9 70.9849 43.78 71.0649 43.644C71.1449 43.508 71.1849 43.36 71.1849 43.2V42.18H69.9129C69.3609 42.18 68.9569 42.26 68.7009 42.42C68.4529 42.58 68.3289 42.812 68.3289 43.116V43.368C68.3289 43.672 68.4369 43.908 68.6529 44.076C68.8769 44.244 69.1769 44.328 69.5529 44.328ZM75.471 45C75.135 45 74.879 44.908 74.703 44.724C74.535 44.532 74.451 44.284 74.451 43.98V39.648H73.431V38.808H74.007C74.215 38.808 74.355 38.768 74.427 38.688C74.507 38.6 74.547 38.452 74.547 38.244V37.092H75.411V38.808H76.767V39.648H75.411V44.16H76.671V45H75.471ZM80.4712 45.144C80.0472 45.144 79.6632 45.068 79.3192 44.916C78.9832 44.764 78.6912 44.548 78.4432 44.268C78.2032 43.98 78.0152 43.64 77.8792 43.248C77.7512 42.848 77.6872 42.4 77.6872 41.904C77.6872 41.416 77.7512 40.972 77.8792 40.572C78.0152 40.172 78.2032 39.832 78.4432 39.552C78.6912 39.264 78.9832 39.044 79.3192 38.892C79.6632 38.74 80.0472 38.664 80.4712 38.664C80.8872 38.664 81.2592 38.74 81.5872 38.892C81.9152 39.044 82.1952 39.256 82.4272 39.528C82.6592 39.792 82.8352 40.108 82.9552 40.476C83.0832 40.844 83.1472 41.248 83.1472 41.688V42.144H78.6952V42.432C78.6952 42.696 78.7352 42.944 78.8152 43.176C78.9032 43.4 79.0232 43.596 79.1752 43.764C79.3352 43.932 79.5272 44.064 79.7512 44.16C79.9832 44.256 80.2432 44.304 80.5312 44.304C80.9232 44.304 81.2632 44.212 81.5512 44.028C81.8472 43.844 82.0752 43.58 82.2352 43.236L82.9192 43.728C82.7192 44.152 82.4072 44.496 81.9832 44.76C81.5592 45.016 81.0552 45.144 80.4712 45.144ZM80.4712 39.468C80.2072 39.468 79.9672 39.516 79.7512 39.612C79.5352 39.7 79.3472 39.828 79.1872 39.996C79.0352 40.164 78.9152 40.364 78.8272 40.596C78.7392 40.82 78.6952 41.068 78.6952 41.34V41.424H82.1152V41.292C82.1152 40.74 81.9632 40.3 81.6592 39.972C81.3632 39.636 80.9672 39.468 80.4712 39.468Z" fill="black"/>
<path d="M13.2075 17.1384C15.9148 17.1384 18.1095 14.9437 18.1095 12.2364C18.1095 9.52917 15.9148 7.3345 13.2075 7.3345C10.5002 7.3345 8.30554 9.52917 8.30554 12.2364C8.30554 14.9437 10.5002 17.1384 13.2075 17.1384Z" fill="white"/>
<path d="M14.1879 19.0991V17.4194C14.5333 17.3502 14.878 17.2445 15.215 17.1043C15.5526 16.9625 15.8677 16.7893 16.1624 16.5931L17.3333 17.75L18.87 16.2041L17.6985 15.0471C18.0939 14.4452 18.3681 13.7735 18.5077 13.0684L20.098 13.0586V10.8825L18.4936 10.8924C18.4217 10.5477 18.3188 10.2058 18.1764 9.8691C18.034 9.53179 17.8613 9.21773 17.6639 8.9258L18.7728 7.81178L17.2205 6.2795L16.1131 7.39312C15.5111 6.9999 14.8357 6.72554 14.1301 6.58678L14.1392 5H11.942L11.9461 6.59925C11.5993 6.6714 11.2546 6.77549 10.9169 6.91661C10.5792 7.05815 10.2648 7.23123 9.97229 7.42686L8.82537 6.29135L7.28932 7.83957L8.43483 8.97358C8.04007 9.57439 7.76515 10.2461 7.62628 10.9511L6 10.9541V13.1323L7.63967 13.1264C7.71156 13.4703 7.81591 13.815 7.9576 14.1506C8.09999 14.4883 8.2727 14.802 8.47008 15.0924L7.29425 16.2662L8.84722 17.7957L10.0202 16.6256C10.6222 17.0212 11.2976 17.2945 12.0039 17.4328L12.0046 19.0984L14.1879 19.0991ZM14.405 15.1818C12.6511 15.9173 10.6231 15.0908 9.8857 13.3442C9.14834 11.5959 9.97452 9.57333 11.7291 8.83826C13.4823 8.1036 15.5103 8.92934 16.2477 10.6759C16.9851 12.4226 16.1589 14.4466 14.405 15.1818Z" fill="white" stroke="#23242A" stroke-width="1.1" stroke-linecap="round" stroke-linejoin="round"/>
<path d="M18.1095 21.06C20.8167 21.06 23.0114 18.8653 23.0114 16.158C23.0114 13.4508 20.8167 11.2561 18.1095 11.2561C15.4022 11.2561 13.2075 13.4508 13.2075 16.158C13.2075 18.8653 15.4022 21.06 18.1095 21.06Z" fill="white"/>
<path d="M19.0899 23.0208V21.341C19.4353 21.2719 19.78 21.1661 20.1169 21.026C20.4546 20.8842 20.7697 20.711 21.0644 20.5148L22.2353 21.6717L23.772 20.1257L22.6004 18.9687C22.9959 18.3668 23.2701 17.6951 23.4097 16.9901L25 16.9803V14.8042L23.3956 14.814C23.3237 14.4694 23.2208 14.1275 23.0784 13.7907C22.936 13.4534 22.7633 13.1394 22.5659 12.8474L23.6747 11.7334L22.1225 10.2011L21.015 11.3148C20.413 10.9215 19.7377 10.6472 19.0321 10.5084L19.0412 8.92165H16.8439L16.8481 10.5209C16.5012 10.593 16.1565 10.6971 15.8189 10.8383C15.4812 10.9798 15.1668 11.1529 14.8743 11.3485L13.7273 10.213L12.1913 11.7612L13.3368 12.8952C12.942 13.496 12.6671 14.1677 12.5282 14.8728L10.902 14.8757V17.0539L12.5416 17.048C12.6135 17.3919 12.7179 17.7367 12.8596 18.0722C13.002 18.41 13.1747 18.7236 13.372 19.0141L12.1962 20.1878L13.7492 21.7173L14.9222 20.5473C15.5242 20.9428 16.1995 21.2162 16.9059 21.3544L16.9066 23.02L19.0899 23.0208ZM19.307 19.1034C17.5531 19.8389 15.525 19.0124 14.7877 17.2658C14.0503 15.5176 14.8765 13.495 16.6311 12.7599C18.3842 12.0252 20.4123 12.851 21.1497 14.5975C21.887 16.3442 21.0608 18.3682 19.307 19.1034Z" fill="white" stroke="#23242A" stroke-width="1.1" stroke-linecap="round" stroke-linejoin="round"/>
</svg>
