<svg height="100" version="1.1" width="70" xmlns="http://www.w3.org/2000/svg">
  <path fill="none" stroke="#333333"
    d="M30.708999999999985,0C50.72199999999999,0,62.00099999999999,3.05,62.00099999999999,5.729C62.00099999999999,8.407,62.00099999999999,50.824999999999996,62.00099999999999,53.973C62.00099999999999,57.121,45.58099999999999,60.173,30.61299999999999,60.173C15.644999999999989,60.173,-1.0658141036401503e-14,57.218,-1.0658141036401503e-14,53.875C-1.0658141036401503e-14,50.533,-1.0658141036401503e-14,8.146999999999998,-1.0658141036401503e-14,5.825000000000003C-1.4210854715202004e-14,3.503,10.696999999999985,0,30.708999999999985,0M62.00099999999999,15.027999999999999C62.00099999999999,17.014,58.38099999999999,21.579,30.73399999999999,21.579C3.0879999999999903,21.579,-1.0658141036401503e-14,16.893,-1.0658141036401503e-14,15.125M-1.4210854715202004e-14,10.475000000000001C-1.4210854715202004e-14,12.244000000000002,3.087999999999986,16.93,30.733999999999988,16.93C58.380999999999986,16.93,62.00099999999999,12.364999999999998,62.00099999999999,10.379M-1.4210854715202004e-14,5.825000000000001C-1.4210854715202004e-14,8.175,3.087999999999986,12.280000000000001,30.733999999999988,12.280000000000001C58.380999999999986,12.280000000000001,62.00099999999999,8.368000000000002,62.00099999999999,5.7280000000000015M62.00099999999999,5.729000000000001V10.573M0.0239999999999857,5.729000000000001V10.573M62.00099999999999,10.379000000000001V15.223000000000003M0.0239999999999857,10.379000000000001V15.223000000000003"
    stroke-width="2" stroke-linecap="round" stroke-linejoin="round" stroke-opacity="1"
    transform="matrix(1,0,0,1,5,5)"
    style="stroke-linecap: round; stroke-linejoin: round; stroke-opacity: 1;"></path>
  <text x="35" y="45" text-anchor="middle" font="10px &quot;Arial&quot;" stroke="none"
    fill="#333333"
    style="text-anchor: middle; font-style: normal; font-variant: normal; font-weight: normal; font-stretch: normal; font-size: 12px; line-height: normal; font-family: Arial, Helvetica, sans-serif;"
    font-size="12px" font-family="Arial, Helvetica, sans-serif">
    <tspan dy="-3.1953125">Data</tspan>
    <tspan dy="14.399999999999999" x="35">Store</tspan>
  </text>
</svg>