<?xml version="1.0" encoding="utf-8"?>
<!-- created with bpmn-js / http://bpmn.io -->
<!DOCTYPE svg PUBLIC "-//W3C//DTD SVG 1.1//EN" "http://www.w3.org/Graphics/SVG/1.1/DTD/svg11.dtd">
<svg xmlns="http://www.w3.org/2000/svg" xmlns:xlink="http://www.w3.org/1999/xlink" width="48" height="48" viewBox="0 0 48 48" version="1.1"><defs><marker viewBox="0 0 20 20" markerWidth="10" markerHeight="10" orient="auto" refX="11" refY="10" id="markerSicrhvqt51b"><path d="M 1 5 L 11 10 L 1 15 Z" style="stroke-width: 1; stroke-linecap: round; stroke-dasharray: 10000, 1;" fill="#000000"/></marker><marker viewBox="0 0 20 20" markerWidth="20" markerHeight="20" orient="auto" refX="6" refY="6" id="markerSicrhvqt51d"><circle cx="6" cy="6" r="3.5" style="stroke-width: 1; stroke-linecap: round; stroke-dasharray: 10000, 1;" fill="#ffffff" stroke="#000000"/></marker><marker viewBox="0 0 20 20" markerWidth="20" markerHeight="20" orient="auto" refX="8.5" refY="5" id="markerSicrhvqt51f"><path d="m 1 5 l 0 -3 l 7 3 l -7 3 z" style="stroke-width: 1; stroke-linecap: butt; stroke-dasharray: 10000, 1;" fill="#ffffff" stroke="#000000"/></marker><marker viewBox="0 0 20 20" markerWidth="10" markerHeight="10" orient="auto" refX="11" refY="10" id="markerSicrhvqt51h"><path d="M 1 5 L 11 10 L 1 15" style="stroke-width: 1; stroke-linecap: round; stroke-dasharray: 10000, 1;" fill="#ffffff" stroke="#000000"/></marker><marker viewBox="0 0 20 20" markerWidth="10" markerHeight="10" orient="auto" refX="-1" refY="10" id="markerSicrhvqt51j"><path d="M 0 10 L 8 6 L 16 10 L 8 14 Z" style="stroke-width: 1; stroke-linecap: round; stroke-dasharray: 10000, 1;" fill="#ffffff" stroke="#000000"/></marker><marker viewBox="0 0 20 20" markerWidth="10" markerHeight="10" orient="auto" refX="-5" refY="10" id="markerSicrhvqt51l"><path d="M 1 4 L 5 16" style="stroke-width: 1; stroke-linecap: round; stroke-dasharray: 10000, 1;" fill="#000000" stroke="#000000"/></marker></defs><g xmlns="http://www.w3.org/2000/svg" class="djs-group"><g style="display: block;" transform="matrix(1,0,0,1,6,6)" data-element-id="StartEvent_014p0ig" class="djs-element djs-shape"><g class="djs-visual"><circle fill="#ffffff" stroke="#000000" style="stroke-width: 2;" r="18" cy="18" cx="18"></circle><path stroke="#000000" fill="#ffffff" style="stroke-width: 1;" d="m 8.459999999999999,11.34 l 0,12.6 l 18.900000000000002,0 l 0,-12.6 z l 9.450000000000001,5.4 l 9.450000000000001,-5.4"></path></g><rect class="djs-hit" stroke="#ffffff" fill="none" style="stroke-opacity: 0; stroke-width: 15;" height="36" width="36" y="0" x="0"></rect><rect class="djs-outline" fill="none" style="" height="48" width="48" y="-6" x="-6"></rect></g></g><g xmlns="http://www.w3.org/2000/svg" class="djs-group"><g style="display: none;" transform="matrix(1,0,0,1,-21,42)" data-element-id="StartEvent_014p0ig_label" class="djs-element djs-shape"><g class="djs-visual"><text class=" djs-label" style="font-family: Arial,sans-serif; font-size: 11px;"><tspan y="0" x="45"></tspan></text></g><rect class="djs-hit" stroke="#ffffff" fill="none" style="stroke-opacity: 0; stroke-width: 15;" height="20" width="90" y="0" x="0"></rect><rect class="djs-outline" fill="none" style="" height="32" width="102" y="-6" x="-6"></rect></g></g></svg>