<svg height="90" version="1.1" width="110" xmlns="http://www.w3.org/2000/svg" style="overflow: hidden; position: relative; left: -0.875px;">
  <rect x="5" y="5" width="100" height="80" r="5" rx="5" ry="5" fill="#ffffff" stroke="#333333" stroke-width="2" stroke-linecap="round" stroke-linejoin="round" stroke-opacity="1" style="stroke-linecap: round; stroke-linejoin: round; stroke-opacity: 1;"></rect>
  <text x="55" y="45" text-anchor="middle" font="10px &quot;Arial&quot;" stroke="none" fill="#333333" style="text-anchor: middle; font-style: normal; font-variant: normal; font-weight: normal; font-stretch: normal; font-size: 12px; line-height: normal; font-family: Arial, Helvetica, sans-serif;" font-size="12px" font-family="Arial, Helvetica, sans-serif">
    <tspan dy="4">User Task</tspan>
  </text>
  <path fill="#f4f6f7" stroke="#333333" d="M6.0095,22.5169H22.8676V17.0338C22.8676,17.0338,21.2345,14.2919,17.9095,13.4169H11.434500000000002C8.342600000000001,14.35,5.951400000000001,17.4419,5.951400000000001,17.4419L6.009500000000001,22.5169Z" stroke-width="0.69999999" stroke-linecap="round" stroke-linejoin="round" stroke-opacity="1" transform="matrix(1,0,0,1,5,5)" style="stroke-linecap: round; stroke-linejoin: round; stroke-opacity: 1;"></path>
  <path fill="none" stroke="#333333" d="M9.8,19.6L9.8,22.400000000000002" stroke-width="0.69999999" stroke-linecap="round" stroke-linejoin="round" stroke-opacity="1" transform="matrix(1,0,0,1,5,5)" style="stroke-linecap: round; stroke-linejoin: round; stroke-opacity: 1;"></path>
  <path fill="#333333" stroke="#333333" d="M19.6,19.6L19.6,22.400000000000002" stroke-width="0.69999999" stroke-linecap="round" stroke-linejoin="round" stroke-opacity="1" transform="matrix(1,0,0,1,5,5)" style="stroke-linecap: round; stroke-linejoin: round; stroke-opacity: 1;"></path>
  <circle cx="19.5" cy="13.5" r="5" fill="#333333" stroke="#333333" stroke-width="2" stroke-linecap="round" stroke-linejoin="round" stroke-opacity="1" transform="matrix(0.75,0,0,0.75,4.875,3.375)" style="stroke-linecap: round; stroke-linejoin: round; stroke-opacity: 1;"></circle>
  <path fill="#f0eff0" stroke="#333333" d="M11.2301,10.5581C11.2301,10.5581,13.1999,8.8599,14.9933,9.293199999999999C16.7867,9.726499999999998,18.2301,8.8081,18.2301,8.8081C18.4051,9.9897,18.2595,11.4331,17.2095,12.716899999999999C17.2095,12.716899999999999,17.967599999999997,13.2419,17.967599999999997,13.7669C17.967599999999997,14.2919,18.055099999999996,15.0794,17.267599999999998,15.8669C16.480099999999997,16.6544,13.417599999999998,16.7419,12.542599999999998,15.8669C11.667599999999998,14.9919,11.667599999999998,14.5838,11.667599999999998,14C11.667599999999998,13.4162,12.075699999999998,13.125,12.542599999999998,12.6581C11.784499999999998,12.25,10.793299999999999,10.9956,11.230099999999998,10.5581Z" stroke-width="0.69999999" stroke-linecap="round" stroke-linejoin="round" stroke-opacity="1" transform="matrix(1,0,0,1,5,5)" style="stroke-linecap: round; stroke-linejoin: round; stroke-opacity: 1;"></path>
</svg>