<svg version="1.1" viewBox="0.0 0.0 960.0 540.0" fill="none" stroke="none" stroke-linecap="square" stroke-miterlimit="10" xmlns:xlink="http://www.w3.org/1999/xlink" xmlns="http://www.w3.org/2000/svg"><clipPath id="g2bacfcb283b_0_482.0"><path d="m0 0l960.0 0l0 540.0l-960.0 0l0 -540.0z" clip-rule="nonzero"/></clipPath><g clip-path="url(#g2bacfcb283b_0_482.0)"><path fill="#ffffff" d="m0 0l960.0 0l0 540.0l-960.0 0z" fill-rule="evenodd"/><path fill="#f7f7f7" d="m262.7691 76.675674l0 0c0 -9.209702 7.4659424 -16.675632 16.675629 -16.675632l399.8771 0c4.4226074 0 8.664124 1.7568932 11.791443 4.884182c3.1272583 3.1272812 4.8841553 7.3687973 4.8841553 11.7914505l0 371.59363c0 9.209717 -7.4659424 16.675629 -16.675598 16.675629l-399.8771 0c-9.209686 0 -16.675629 -7.465912 -16.675629 -16.675629z" fill-rule="evenodd"/><path stroke="#434343" stroke-width="1.0" stroke-linejoin="round" stroke-linecap="butt" stroke-dasharray="4.0,3.0" d="m262.7691 76.675674l0 0c0 -9.209702 7.4659424 -16.675632 16.675629 -16.675632l399.8771 0c4.4226074 0 8.664124 1.7568932 11.791443 4.884182c3.1272583 3.1272812 4.8841553 7.3687973 4.8841553 11.7914505l0 371.59363c0 9.209717 -7.4659424 16.675629 -16.675598 16.675629l-399.8771 0c-9.209686 0 -16.675629 -7.465912 -16.675629 -16.675629z" fill-rule="evenodd"/><path fill="#000000" fill-opacity="0.0" d="m262.7691 424.48718l100.59842 0l0 35.55905l-100.59842 0z" fill-rule="evenodd"/><path fill="#000000" d="m289.09256 446.28717l-2.015625 0l0 -9.296875l4.40625 0q0.640625 0 1.15625 0.21875q0.53125 0.203125 0.890625 0.59375q0.359375 0.390625 0.5625 0.9375q0.203125 0.546875 0.203125 1.21875q0 0.9375 -0.421875 1.65625q-0.421875 0.703125 -1.265625 1.015625l1.828125 3.65625l-2.265625 0l-1.625 -3.40625l-1.453125 0l0 3.40625zm2.140625 -5.125q0.453125 0 0.703125 -0.21875q0.265625 -0.234375 0.265625 -0.6875l0 -0.59375q0 -0.453125 -0.265625 -0.6875q-0.25 -0.234375 -0.703125 -0.234375l-2.140625 0l0 2.421875l2.140625 0zm7.439392 5.28125q-0.8125 0 -1.4375 -0.25q-0.625 -0.265625 -1.0625 -0.734375q-0.421875 -0.484375 -0.640625 -1.15625q-0.21875 -0.6875 -0.21875 -1.515625q0 -0.828125 0.203125 -1.5q0.21875 -0.671875 0.640625 -1.15625q0.421875 -0.484375 1.03125 -0.734375q0.609375 -0.265625 1.40625 -0.265625q0.859375 0 1.46875 0.296875q0.625 0.28125 1.015625 0.78125q0.40625 0.5 0.578125 1.140625q0.1875 0.640625 0.1875 1.359375l0 0.578125l-4.5 0l0 0.109375q0 0.6875 0.375 1.09375q0.375 0.40625 1.171875 0.40625q0.609375 0 1.0 -0.234375q0.390625 -0.25 0.71875 -0.59375l0.984375 1.21875q-0.46875 0.546875 -1.21875 0.859375q-0.75 0.296875 -1.703125 0.296875zm-0.046875 -5.859375q-0.59375 0 -0.9375 0.390625q-0.34375 0.390625 -0.34375 1.046875l0 0.109375l2.453125 0l0 -0.125q0 -0.640625 -0.296875 -1.03125q-0.28125 -0.390625 -0.875 -0.390625zm11.084106 6.203125q0 0.5625 -0.1875 0.984375q-0.1875 0.4375 -0.640625 0.734375q-0.4375 0.296875 -1.171875 0.453125q-0.71875 0.15625 -1.78125 0.15625q-0.90625 0 -1.546875 -0.125q-0.625 -0.109375 -1.015625 -0.3125q-0.390625 -0.203125 -0.578125 -0.5q-0.171875 -0.296875 -0.171875 -0.6875q0 -0.59375 0.34375 -0.921875q0.34375 -0.328125 0.953125 -0.421875l0 -0.140625q-0.5 -0.09375 -0.75 -0.421875q-0.25 -0.34375 -0.25 -0.796875q0 -0.28125 0.109375 -0.484375q0.109375 -0.21875 0.28125 -0.359375q0.1875 -0.15625 0.421875 -0.25q0.25 -0.09375 0.484375 -0.15625l0 -0.046875q-0.640625 -0.296875 -0.953125 -0.8125q-0.296875 -0.515625 -0.296875 -1.1875q0 -1.0625 0.734375 -1.703125q0.75 -0.65625 2.265625 -0.65625q0.6875 0 1.1875 0.125l0 -0.265625q0 -0.546875 0.265625 -0.796875q0.28125 -0.25 0.78125 -0.25l1.109375 0l0 1.46875l-1.546875 0l0 0.078125q0.609375 0.296875 0.90625 0.8125q0.296875 0.5 0.296875 1.1875q0 1.046875 -0.75 1.6875q-0.734375 0.625 -2.25 0.625q-0.6875 0 -1.234375 -0.140625q-0.3125 0.203125 -0.3125 0.5625q0 0.25 0.1875 0.390625q0.203125 0.140625 0.65625 0.140625l2.015625 0q1.28125 0 1.859375 0.53125q0.578125 0.53125 0.578125 1.5zm-1.84375 0.265625q0 -0.296875 -0.25 -0.46875q-0.234375 -0.15625 -0.828125 -0.15625l-2.40625 0q-0.125 0.140625 -0.1875 0.296875q-0.0625 0.171875 -0.0625 0.328125q0 0.390625 0.328125 0.5625q0.34375 0.1875 1.140625 0.1875l0.796875 0q0.796875 0 1.125 -0.1875q0.34375 -0.171875 0.34375 -0.5625zm-1.90625 -4.53125q0.578125 0 0.859375 -0.25q0.296875 -0.25 0.296875 -0.71875l0 -0.15625q0 -0.46875 -0.296875 -0.703125q-0.28125 -0.25 -0.859375 -0.25q-0.59375 0 -0.875 0.25q-0.28125 0.234375 -0.28125 0.703125l0 0.15625q0 0.46875 0.28125 0.71875q0.28125 0.25 0.875 0.25zm5.6227417 -3.984375q-0.59375 0 -0.875 -0.265625q-0.265625 -0.28125 -0.265625 -0.703125l0 -0.296875q0 -0.421875 0.265625 -0.6875q0.28125 -0.28125 0.875 -0.28125q0.59375 0 0.859375 0.28125q0.28125 0.265625 0.28125 0.6875l0 0.296875q0 0.421875 -0.28125 0.703125q-0.265625 0.265625 -0.859375 0.265625zm-0.984375 0.75l1.96875 0l0 7.0l-1.96875 0l0 -7.0zm6.6555786 7.15625q-0.78125 0 -1.390625 -0.25q-0.609375 -0.25 -1.03125 -0.734375q-0.40625 -0.484375 -0.640625 -1.15625q-0.21875 -0.6875 -0.21875 -1.515625q0 -0.84375 0.21875 -1.515625q0.234375 -0.6875 0.640625 -1.15625q0.421875 -0.484375 1.03125 -0.734375q0.609375 -0.25 1.390625 -0.25q0.765625 0 1.375 0.25q0.609375 0.25 1.015625 0.734375q0.421875 0.46875 0.640625 1.15625q0.234375 0.671875 0.234375 1.515625q0 0.828125 -0.234375 1.515625q-0.21875 0.671875 -0.640625 1.15625q-0.40625 0.484375 -1.015625 0.734375q-0.609375 0.25 -1.375 0.25zm0 -1.5625q0.578125 0 0.890625 -0.359375q0.328125 -0.359375 0.328125 -1.015625l0 -1.4375q0 -0.65625 -0.328125 -1.015625q-0.3125 -0.359375 -0.890625 -0.359375q-0.59375 0 -0.921875 0.359375q-0.3125 0.359375 -0.3125 1.015625l0 1.4375q0 0.65625 0.3125 1.015625q0.328125 0.359375 0.921875 0.359375zm4.673279 1.40625l0 -7.0l1.96875 0l0 1.1875l0.078125 0q0.1875 -0.546875 0.65625 -0.9375q0.46875 -0.40625 1.296875 -0.40625q1.078125 0 1.625 0.71875q0.5625 0.71875 0.5625 2.046875l0 4.390625l-1.984375 0l0 -4.21875q0 -0.6875 -0.21875 -1.015625q-0.203125 -0.328125 -0.75 -0.328125q-0.234375 0 -0.46875 0.0625q-0.21875 0.0625 -0.40625 0.203125q-0.171875 0.125 -0.28125 0.328125q-0.109375 0.1875 -0.109375 0.4375l0 4.53125l-1.96875 0zm11.417084 0l0 -1.609375l2.515625 0l0 -6.234375l-0.125 0l-1.890625 2.46875l-1.28125 -1.0l2.21875 -2.921875l3.0625 0l0 7.6875l1.984375 0l0 1.609375l-6.484375 0z" fill-rule="nonzero"/><path fill="#ffffff" fill-opacity="0.7547" d="m683.6506 60.01199l0 0c7.4995728 0 13.579163 6.0796165 13.579163 13.579205l0 105.72349c0 3.6014252 -1.4306641 7.0553436 -3.977234 9.601944c-2.5465698 2.546585 -6.0004883 3.9772491 -9.601929 3.9772491l-406.06995 0c-7.4996033 0 -13.579224 -6.079605 -13.579224 -13.579193l0 -105.72349c0 -7.499588 6.0796204 -13.579205 13.579224 -13.579205z" fill-rule="evenodd"/><path stroke="#0075ff" stroke-width="2.0" stroke-linejoin="round" stroke-linecap="butt" stroke-dasharray="8.0,6.0" d="m683.6506 60.01199l0 0c7.4995728 0 13.579163 6.0796165 13.579163 13.579205l0 105.72349c0 3.6014252 -1.4306641 7.0553436 -3.977234 9.601944c-2.5465698 2.546585 -6.0004883 3.9772491 -9.601929 3.9772491l-406.06995 0c-7.4996033 0 -13.579224 -6.079605 -13.579224 -13.579193l0 -105.72349c0 -7.499588 6.0796204 -13.579205 13.579224 -13.579205z" fill-rule="evenodd"/><path fill="#ffffff" d="m380.07327 269.6331l0 0c0 -4.464752 3.6194153 -8.084137 8.0841675 -8.084137l32.335632 0l0 0c2.144043 0 4.200287 0.8517151 5.7163696 2.3677979c1.5160522 1.5160522 2.3677673 3.5722961 2.3677673 5.716339l0 35.42227c0 4.464752 -3.6193848 8.084137 -8.084137 8.084137l-32.335632 0l0 0c-4.464752 0 -8.0841675 -3.6193848 -8.0841675 -8.084137z" fill-rule="evenodd"/><path stroke="#26d07c" stroke-width="2.0" stroke-linejoin="round" stroke-linecap="butt" d="m380.07327 269.6331l0 0c0 -4.464752 3.6194153 -8.084137 8.0841675 -8.084137l32.335632 0l0 0c2.144043 0 4.200287 0.8517151 5.7163696 2.3677979c1.5160522 1.5160522 2.3677673 3.5722961 2.3677673 5.716339l0 35.42227c0 4.464752 -3.6193848 8.084137 -8.084137 8.084137l-32.335632 0l0 0c-4.464752 0 -8.0841675 -3.6193848 -8.0841675 -8.084137z" fill-rule="evenodd"/><path fill="#000000" d="m397.99887 291.18423l0 -7.625l5.65625 0l0 1.28125l-4.125 0l0 1.703125l3.828125 0l0 1.28125l-3.828125 0l0 2.078125l4.265625 0l0 1.28125l-5.796875 0zm6.7170105 -2.484375l1.5 -0.140625q0.125 0.75 0.53125 1.109375q0.421875 0.34375 1.125 0.34375q0.75 0 1.125 -0.3125q0.375 -0.3125 0.375 -0.734375q0 -0.265625 -0.15625 -0.453125q-0.15625 -0.1875 -0.5625 -0.328125q-0.265625 -0.09375 -1.234375 -0.34375q-1.234375 -0.296875 -1.734375 -0.75q-0.703125 -0.625 -0.703125 -1.53125q0 -0.59375 0.328125 -1.09375q0.34375 -0.515625 0.953125 -0.78125q0.625 -0.265625 1.5 -0.265625q1.4375 0 2.15625 0.640625q0.734375 0.625 0.78125 1.671875l-1.546875 0.078125q-0.09375 -0.59375 -0.421875 -0.84375q-0.328125 -0.265625 -0.984375 -0.265625q-0.671875 0 -1.046875 0.28125q-0.234375 0.171875 -0.234375 0.46875q0 0.265625 0.21875 0.46875q0.296875 0.234375 1.421875 0.5q1.125 0.265625 1.65625 0.5625q0.546875 0.28125 0.84375 0.78125q0.3125 0.484375 0.3125 1.203125q0 0.65625 -0.375 1.234375q-0.359375 0.5625 -1.03125 0.84375q-0.65625 0.28125 -1.65625 0.28125q-1.4375 0 -2.21875 -0.671875q-0.78125 -0.671875 -0.921875 -1.953125z" fill-rule="nonzero"/><path fill="#ffffff" d="m422.02505 108.02223l0 0c4.463928 0 8.082642 3.6187286 8.082642 8.082649l0 32.329628l0 0c0 2.1436615 -0.8515625 4.1995087 -2.36734 5.7153015c-1.5158081 1.5157928 -3.5716553 2.3673553 -5.7153015 2.3673553l-35.41208 0c-4.463928 0 -8.082672 -3.6187286 -8.082672 -8.082657l0 -32.329628l0 0c0 -4.4639206 3.618744 -8.082649 8.082672 -8.082649z" fill-rule="evenodd"/><path stroke="#0075ff" stroke-width="2.0" stroke-linejoin="round" stroke-linecap="butt" d="m422.02505 108.02223l0 0c4.463928 0 8.082642 3.6187286 8.082642 8.082649l0 32.329628l0 0c0 2.1436615 -0.8515625 4.1995087 -2.36734 5.7153015c-1.5158081 1.5157928 -3.5716553 2.3673553 -5.7153015 2.3673553l-35.41208 0c-4.463928 0 -8.082672 -3.6187286 -8.082672 -8.082657l0 -32.329628l0 0c0 -4.4639206 3.618744 -8.082649 8.082672 -8.082649z" fill-rule="evenodd"/><path fill="#ffffff" d="m431.29034 100.677505l0 0c4.463928 0 8.082642 3.6187286 8.082642 8.082649l0 32.329628l0 0c0 2.1436462 -0.8515625 4.1995087 -2.36734 5.7153015c-1.5158081 1.5157928 -3.5716553 2.3673553 -5.7153015 2.3673553l-35.41208 0c-4.463928 0 -8.082672 -3.6187286 -8.082672 -8.082657l0 -32.329628l0 0c0 -4.4639206 3.618744 -8.082649 8.082672 -8.082649z" fill-rule="evenodd"/><path stroke="#0075ff" stroke-width="2.0" stroke-linejoin="round" stroke-linecap="butt" d="m431.29034 100.677505l0 0c4.463928 0 8.082642 3.6187286 8.082642 8.082649l0 32.329628l0 0c0 2.1436462 -0.8515625 4.1995087 -2.36734 5.7153015c-1.5158081 1.5157928 -3.5716553 2.3673553 -5.7153015 2.3673553l-35.41208 0c-4.463928 0 -8.082672 -3.6187286 -8.082672 -8.082657l0 -32.329628l0 0c0 -4.4639206 3.618744 -8.082649 8.082672 -8.082649z" fill-rule="evenodd"/><path fill="#000000" fill-opacity="0.0" d="m404.319 156.51717l0 105.03938" fill-rule="evenodd"/><path stroke="#000000" stroke-width="1.0" stroke-linejoin="round" stroke-linecap="butt" d="m404.31903 156.51717l0 99.03937" fill-rule="evenodd"/><path fill="#000000" stroke="#000000" stroke-width="1.0" stroke-linecap="butt" d="m402.6673 255.55653l1.6517334 4.538101l1.6517334 -4.538101z" fill-rule="evenodd"/><path fill="#000000" fill-opacity="0.0" d="m404.319 156.51717l247.93704 105.03938" fill-rule="evenodd"/><path stroke="#000000" stroke-width="1.0" stroke-linejoin="round" stroke-linecap="butt" d="m404.31903 156.51717l242.41235 102.69881" fill-rule="evenodd"/><path fill="#000000" stroke="#000000" stroke-width="1.0" stroke-linecap="butt" d="m646.08704 260.73688l4.822937 0.24938965l-3.5343018 -3.2911377z" fill-rule="evenodd"/><path fill="#000000" fill-opacity="0.0" d="m374.68033 261.54288l0 -92.85039l30.70868 0l0 92.85039z" fill-rule="evenodd"/><path fill="#000000" d="m392.64035 251.82414l-6.515625 0l0 -4.4375l1.265625 0l0 3.015625l1.328125 0l0 -2.578125l1.25 0l0 2.578125l1.40625 0l0 -3.015625l1.265625 0l0 4.4375zm0 -5.1152954l-2.484375 -1.609375l-2.40625 1.59375l0 -1.5625l1.53125 -0.921875l0 -0.03125l-1.53125 -0.890625l0 -1.453125l2.453125 1.625l2.4375 -1.640625l0 1.578125l-1.59375 0.9375l0 0.03125l1.59375 0.90625l0 1.4375zm-4.890625 -5.692505l0 -1.390625l0.8125 0l0 -0.046875q-0.40625 -0.09375 -0.671875 -0.453125q-0.265625 -0.375 -0.265625 -0.859375q0 -0.921875 0.65625 -1.390625q0.65625 -0.484375 1.90625 -0.484375q1.25 0 1.90625 0.484375q0.65625 0.46875 0.65625 1.390625q0 0.25 -0.078125 0.46875q-0.0625 0.203125 -0.1875 0.375q-0.125 0.171875 -0.296875 0.296875q-0.171875 0.125 -0.375 0.171875l0 0.046875l2.6875 0l0 1.390625l-6.75 0zm3.890625 -2.28125q0 -0.40625 -0.28125 -0.65625q-0.28125 -0.25 -0.75 -0.25l-0.84375 0q-0.46875 0 -0.734375 0.25q-0.28125 0.25 -0.28125 0.65625q0 0.390625 0.203125 0.640625q0.1875 0.25 0.515625 0.25l1.453125 0q0.328125 0 0.53125 -0.25q0.1875 -0.25 0.1875 -0.640625zm1.109375 -5.374634q0 0.53125 -0.171875 0.96875q-0.1875 0.421875 -0.515625 0.71875q-0.34375 0.28125 -0.8125 0.453125q-0.46875 0.15625 -1.0625 0.15625q-0.59375 0 -1.0625 -0.15625q-0.484375 -0.171875 -0.8125 -0.453125q-0.328125 -0.296875 -0.5 -0.71875q-0.1875 -0.4375 -0.1875 -0.96875q0 -0.546875 0.1875 -0.96875q0.171875 -0.421875 0.5 -0.71875q0.328125 -0.296875 0.8125 -0.453125q0.46875 -0.15625 1.0625 -0.15625q0.59375 0 1.0625 0.15625q0.46875 0.15625 0.8125 0.453125q0.328125 0.296875 0.515625 0.71875q0.171875 0.421875 0.171875 0.96875zm-1.09375 0q0 -0.421875 -0.25 -0.640625q-0.25 -0.21875 -0.71875 -0.21875l-1.0 0q-0.46875 0 -0.71875 0.21875q-0.25 0.21875 -0.25 0.640625q0 0.40625 0.25 0.640625q0.25 0.21875 0.71875 0.21875l1.0 0q0.46875 0 0.71875 -0.21875q0.25 -0.234375 0.25 -0.640625zm0.984375 -3.2766876l-4.890625 0l0 -1.390625l1.0625 0l0 -0.046875q-0.21875 -0.03125 -0.40625 -0.125q-0.1875 -0.09375 -0.328125 -0.25q-0.15625 -0.15625 -0.234375 -0.359375q-0.09375 -0.21875 -0.09375 -0.515625l0 -0.234375l1.28125 0l0 0.34375q0 0.609375 0.15625 0.90625q0.15625 0.28125 0.59375 0.28125l2.859375 0l0 1.390625zm0 -5.524658q0 0.71875 -0.359375 1.09375q-0.375 0.359375 -1.0625 0.359375l-2.40625 0l0 0.6875l-1.0625 0l0 -0.34375q0 -0.28125 -0.140625 -0.375q-0.140625 -0.109375 -0.390625 -0.109375l-0.796875 0l0 -1.234375l1.328125 0l0 -0.96875l1.0625 0l0 0.96875l2.75 0l0 -0.90625l1.078125 0l0 0.828125zm0.109375 -3.8634644q0 0.5625 -0.171875 1.0q-0.1875 0.4375 -0.515625 0.75q-0.34375 0.296875 -0.8125 0.453125q-0.46875 0.15625 -1.0625 0.15625q-0.578125 0 -1.046875 -0.15625q-0.46875 -0.15625 -0.796875 -0.4375q-0.34375 -0.296875 -0.53125 -0.71875q-0.1875 -0.4375 -0.1875 -0.984375q0 -0.609375 0.21875 -1.046875q0.203125 -0.4375 0.546875 -0.703125q0.34375 -0.28125 0.796875 -0.40625q0.453125 -0.125 0.9375 -0.125l0.421875 0l0 3.140625l0.0625 0q0.484375 0 0.78125 -0.25q0.28125 -0.265625 0.28125 -0.828125q0 -0.4375 -0.171875 -0.703125q-0.171875 -0.265625 -0.421875 -0.5l0.859375 -0.6875q0.390625 0.328125 0.609375 0.859375q0.203125 0.515625 0.203125 1.1875zm-4.109375 0.03125q0 0.421875 0.28125 0.65625q0.28125 0.234375 0.734375 0.234375l0.078125 0l0 -1.71875l-0.09375 0q-0.4375 0 -0.71875 0.203125q-0.28125 0.203125 -0.28125 0.625zm4.0 -3.2267761l-4.890625 0l0 -1.390625l1.0625 0l0 -0.046875q-0.21875 -0.03125 -0.40625 -0.125q-0.1875 -0.09375 -0.328125 -0.25q-0.15625 -0.15625 -0.234375 -0.359375q-0.09375 -0.21875 -0.09375 -0.515625l0 -0.234375l1.28125 0l0 0.34375q0 0.609375 0.15625 0.90625q0.15625 0.28125 0.59375 0.28125l2.859375 0l0 1.390625zm0 -4.002945l-1.125 0l0 -1.75l-4.375 0l0 0.078125l1.734375 1.328125l-0.6875 0.890625l-2.0625 -1.5625l0 -2.140625l5.390625 0l0 -1.375l1.125 0l0 4.53125z" fill-rule="nonzero"/><path fill="#000000" fill-opacity="0.0" d="m447.31824 136.61166l88.28345 28.724411l-9.480286 29.196854l-88.28348 -28.724411z" fill-rule="evenodd"/><path fill="#000000" d="m451.01352 156.70071l2.0122375 -6.1971283l4.219757 1.3729706l-0.39086914 1.2037506l-2.8676453 -0.9330292l-0.41018677 1.2631989l2.4516296 0.79766846l-0.38604736 1.1889038l-2.4516296 -0.79766846l-0.43426514 1.3375092l2.8676453 0.9330292l-0.39086914 1.2037659l-4.219757 -1.3729706zm4.8642883 1.5826721l2.2976685 -1.8649902l-0.7724304 -2.7817383l1.4858398 0.4834442l0.40374756 1.7416229l0.029693604 0.009674072l1.3198242 -1.1808319l1.3818359 0.44958496l-2.3028564 1.8304443l0.8073425 2.8259583l-1.5007019 -0.48828125l-0.399292 -1.8059082l-0.029724121 -0.0096588135l-1.3539734 1.2354431l-1.3669739 -0.44476318zm6.9235535 -2.8902893l1.3223877 0.43025208l-0.25091553 0.7727814l0.04458618 0.014511108q0.21459961 -0.35739136 0.6383667 -0.49884033q0.43865967 -0.13661194 0.8992615 0.013259888q0.87661743 0.2852173 1.1197205 1.0544281q0.25793457 0.7740326 -0.1281128 1.9629364q-0.38604736 1.1888885 -1.0493164 1.6631927q-0.648407 0.47914124 -1.5250549 0.19390869q-0.23773193 -0.0773468 -0.42163086 -0.21932983q-0.17385864 -0.122299194 -0.29867554 -0.2943573q-0.12484741 -0.17207336 -0.19064331 -0.3742218q-0.06576538 -0.20214844 -0.047607422 -0.40985107l-0.04458618 -0.01449585l-0.8299866 2.5561218l-1.3223877 -0.43025208l2.0845947 -6.420044zm0.96777344 4.4062653q0.38632202 0.12568665 0.710907 -0.064468384q0.32458496 -0.19015503 0.46936035 -0.6359863l0.2605896 -0.8025055q0.14474487 -0.4458313 -0.010955811 -0.7758179q-0.1508789 -0.3448639 -0.5371704 -0.47055054q-0.37145996 -0.12086487 -0.67193604 -0.0050201416q-0.29562378 0.100982666 -0.39697266 0.41307068l-0.448761 1.3820953q-0.10134888 0.312088 0.07366943 0.58262634q0.17980957 0.25569153 0.55126953 0.3765564zm4.7683105 2.718048q-0.505188 -0.16436768 -0.86813354 -0.4631958q-0.34326172 -0.3088684 -0.52423096 -0.7127991q-0.16131592 -0.41397095 -0.17999268 -0.9129791q-0.0038146973 -0.4941864 0.17956543 -1.0589142q0.18334961 -0.5647278 0.4767151 -0.96221924q0.3130188 -0.40751648 0.68182373 -0.6325836q0.38363647 -0.2202301 0.8378906 -0.25317383q0.473938 -0.04296875 0.979126 0.121398926q0.52001953 0.16920471 0.86331177 0.47805786q0.3480835 0.29400635 0.52905273 0.697937q0.18096924 0.40394592 0.17996216 0.9129944q0.0038146973 0.49417114 -0.17953491 1.0588989q-0.18338013 0.5647278 -0.4767151 0.96221924q-0.29336548 0.39749146 -0.68182373 0.6325836q-0.38363647 0.2202301 -0.8427124 0.2680359q-0.45425415 0.032943726 -0.9743042 -0.13626099zm0.33776855 -1.0402832q0.40118408 0.13053894 0.68640137 -0.03956604q0.2852478 -0.17010498 0.42999268 -0.6159363l0.3088379 -0.95111084q0.14477539 -0.44584656 0.013946533 -0.751297q-0.13079834 -0.3054657 -0.5319824 -0.43598938q-0.38632202 -0.1257019 -0.68640137 0.03956604q-0.2852173 0.17010498 -0.42999268 0.6159363l-0.30880737 0.95111084q-0.14477539 0.44584656 -0.013977051 0.751297q0.14569092 0.31030273 0.5319824 0.43598938zm2.8119202 1.9500732l1.510376 -4.6515656l1.3223877 0.43026733l-0.328125 1.0105591l0.044555664 0.01449585q0.09729004 -0.19837952 0.24432373 -0.34770203q0.14706421 -0.14933777 0.3390808 -0.23474121q0.19683838 -0.1002655 0.41412354 -0.11172485q0.236969 -0.021484375 0.5192871 0.07035828l0.22286987 0.072525024l-0.39569092 1.2186127l-0.32687378 -0.10635376q-0.5794983 -0.1885376 -0.9100647 -0.1317749q-0.31570435 0.061584473 -0.45080566 0.4777069l-0.88305664 2.7195892l-1.3223877 -0.43025208zm5.2535706 1.7093353q-0.6834717 -0.22238159 -0.92910767 -0.68022156q-0.22592163 -0.467865 -0.01361084 -1.1217499l0.74313354 -2.2886353l-0.6537781 -0.21270752l0.32815552 -1.0105591l0.32687378 0.10635376q0.26745605 0.087020874 0.4000244 -0.017730713q0.14743042 -0.09989929 0.2246399 -0.337677l0.24612427 -0.7579346l1.1737976 0.3819275l-0.41018677 1.2631989l0.92123413 0.2997284l-0.328125 1.0105591l-0.92123413 -0.2997284l-0.8492737 2.61557l0.8617859 0.2803955l-0.3329773 1.0254211l-0.7874756 -0.25621033zm3.6401062 1.2993774q-0.5349121 -0.17404175 -0.89785767 -0.47286987q-0.35812378 -0.31370544 -0.5539551 -0.72247314q-0.17614746 -0.41879272 -0.17996216 -0.9129791q-0.0038146973 -0.4941864 0.17956543 -1.0588989q0.17852783 -0.5498657 0.4718628 -0.9473572q0.29336548 -0.39749146 0.6621399 -0.6225586q0.38848877 -0.23510742 0.8475647 -0.2829132q0.473938 -0.04296875 0.9939575 0.12623596q0.5794983 0.1885376 0.927948 0.53196716q0.353302 0.32855225 0.49975586 0.73768616q0.1612854 0.41397095 0.14019775 0.8836212q-0.021057129 0.46965027 -0.1706543 0.9303436l-0.13027954 0.40124512l-2.9865417 -0.9717102l-0.01928711 0.059448242q-0.14959717 0.46069336 -0.003540039 0.82040405q0.16574097 0.34970093 0.70062256 0.5237274q0.41604614 0.13536072 0.7217102 0.05407715q0.30566406 -0.08128357 0.6057434 -0.24655151l0.3883667 1.0300751q-0.4326477 0.27001953 -1.0054016 0.31370544q-0.55303955 0.03366089 -1.1919556 -0.17422485zm1.2393799 -3.918167q-0.40115356 -0.13052368 -0.710907 0.064453125q-0.3097229 0.19499207 -0.4496765 0.6259613l-0.024108887 0.0743103l1.6343994 0.53178406l0.028961182 -0.08917236q0.13510132 -0.41610718 0.028808594 -0.74645996q-0.106292725 -0.33033752 -0.5074768 -0.46087646zm1.8331299 4.802841l1.510376 -4.6515656l1.3223877 0.43026733l-0.328125 1.0105591l0.044555664 0.014511108q0.09729004 -0.19839478 0.24435425 -0.3477173q0.14703369 -0.14933777 0.3390503 -0.23474121q0.19683838 -0.1002655 0.41412354 -0.11172485q0.236969 -0.021484375 0.5192871 0.07035828l0.22286987 0.072525024l-0.39569092 1.2186127l-0.32687378 -0.10635376q-0.5794983 -0.1885376 -0.9100342 -0.1317749q-0.31570435 0.061584473 -0.45083618 0.4777069l-0.88305664 2.7195892l-1.3223877 -0.43025208zm7.862854 2.5583038l-4.383209 -1.4261475l0.39569092 -1.2186279l2.4326782 -1.0159302q0.33981323 -0.13589478 0.5760193 -0.25621033q0.23620605 -0.12033081 0.39331055 -0.24995422q0.17675781 -0.1396637 0.27441406 -0.28863525q0.10247803 -0.16383362 0.16522217 -0.35702515l0.043426514 -0.13375854q0.05307007 -0.1634674 0.022216797 -0.32139587q-0.016021729 -0.15307617 -0.10592651 -0.28092957q-0.089904785 -0.12783813 -0.22402954 -0.22076416q-0.13409424 -0.092926025 -0.28268433 -0.14126587q-0.22286987 -0.072525024 -0.4104309 -0.0513916q-0.18273926 0.0062713623 -0.34020996 0.08647156q-0.1574707 0.080215454 -0.29971313 0.21469116q-0.122528076 0.124435425 -0.22503662 0.28826904l-1.0141602 -0.82292175q0.20532227 -0.27824402 0.47531128 -0.502594q0.28967285 -0.234375 0.63952637 -0.35057068q0.3547058 -0.131073 0.7647705 -0.12910461q0.42974854 -0.008056641 0.92007446 0.151474q0.5051575 0.16436768 0.8432312 0.43867493q0.3428955 0.2594452 0.5282898 0.59910583q0.1854248 0.33966064 0.22302246 0.7298126q0.037597656 0.39015198 -0.08786011 0.7765503q-0.13027954 0.40124512 -0.375 0.6995392q-0.23989868 0.28344727 -0.5693054 0.48846436q-0.31454468 0.20983887 -0.6985779 0.380661q-0.37921143 0.15594482 -0.79293823 0.3170929l-1.4533081 0.52944946l2.9270935 0.9523773l-0.36190796 1.1145935z" fill-rule="nonzero"/><path fill="#ffffff" d="m319.92984 353.34818l0 0c0 -4.463928 3.618744 -8.082642 8.082672 -8.082642l32.32962 0l0 0c2.1436462 0 4.1994934 0.8515625 5.7153015 2.36734c1.5157776 1.5158081 2.36734 3.5716553 2.36734 5.7153015l0 35.41211c0 4.4638977 -3.6187134 8.082642 -8.082642 8.082642l-32.32962 0l0 0c-4.463928 0 -8.082672 -3.618744 -8.082672 -8.082642z" fill-rule="evenodd"/><path stroke="#fc5d0d" stroke-width="2.0" stroke-linejoin="round" stroke-linecap="butt" d="m319.92984 353.34818l0 0c0 -4.463928 3.618744 -8.082642 8.082672 -8.082642l32.32962 0l0 0c2.1436462 0 4.1994934 0.8515625 5.7153015 2.36734c1.5157776 1.5158081 2.36734 3.5716553 2.36734 5.7153015l0 35.41211c0 4.4638977 -3.6187134 8.082642 -8.082642 8.082642l-32.32962 0l0 0c-4.463928 0 -8.082672 -3.618744 -8.082672 -8.082642z" fill-rule="evenodd"/><path fill="#000000" fill-opacity="0.0" d="m308.2093 387.7l71.93594 0l0 32.329956l-71.93594 0z" fill-rule="evenodd"/><path fill="#000000" d="m321.00616 407.065q-0.734375 0 -1.34375 -0.234375q-0.59375 -0.25 -1.03125 -0.734375q-0.421875 -0.484375 -0.65625 -1.203125q-0.234375 -0.71875 -0.234375 -1.671875q0 -0.953125 0.234375 -1.671875q0.234375 -0.71875 0.65625 -1.203125q0.4375 -0.484375 1.03125 -0.71875q0.609375 -0.25 1.34375 -0.25q0.75 0 1.34375 0.25q0.609375 0.234375 1.03125 0.71875q0.4375 0.484375 0.671875 1.203125q0.234375 0.71875 0.234375 1.671875q0 0.953125 -0.234375 1.671875q-0.234375 0.71875 -0.671875 1.203125q-0.421875 0.484375 -1.03125 0.734375q-0.59375 0.234375 -1.34375 0.234375zm0 -1.4375q0.75 0 1.15625 -0.46875q0.40625 -0.484375 0.40625 -1.390625l0 -1.09375q0 -0.90625 -0.40625 -1.375q-0.40625 -0.484375 -1.15625 -0.484375q-0.734375 0 -1.140625 0.484375q-0.40625 0.46875 -0.40625 1.375l0 1.09375q0 0.90625 0.40625 1.390625q0.40625 0.46875 1.140625 0.46875zm4.5461426 -4.28125l1.578125 0l0 0.9375l0.046875 0q0.125 -0.46875 0.546875 -0.765625q0.421875 -0.296875 0.96875 -0.296875q1.0625 0 1.59375 0.75q0.546875 0.734375 0.546875 2.171875q0 1.421875 -0.546875 2.171875q-0.53125 0.75 -1.59375 0.75q-0.28125 0 -0.53125 -0.078125q-0.25 -0.078125 -0.453125 -0.21875q-0.1875 -0.140625 -0.328125 -0.34375q-0.140625 -0.203125 -0.203125 -0.421875l-0.046875 0l0 3.0625l-1.578125 0l0 -7.71875zm2.609375 4.4375q0.453125 0 0.734375 -0.3125q0.296875 -0.3125 0.296875 -0.84375l0 -0.96875q0 -0.53125 -0.296875 -0.84375q-0.28125 -0.3125 -0.734375 -0.3125q-0.4375 0 -0.734375 0.21875q-0.296875 0.21875 -0.296875 0.59375l0 1.65625q0 0.375 0.296875 0.59375q0.296875 0.21875 0.734375 0.21875zm6.197815 1.28125q-0.640625 0 -1.140625 -0.203125q-0.5 -0.203125 -0.84375 -0.578125q-0.34375 -0.390625 -0.515625 -0.921875q-0.171875 -0.546875 -0.171875 -1.21875q0 -0.671875 0.15625 -1.203125q0.171875 -0.546875 0.5 -0.921875q0.34375 -0.390625 0.828125 -0.59375q0.5 -0.203125 1.125 -0.203125q0.703125 0 1.1875 0.234375q0.5 0.234375 0.8125 0.625q0.3125 0.390625 0.453125 0.90625q0.15625 0.515625 0.15625 1.09375l0 0.46875l-3.59375 0l0 0.078125q0 0.546875 0.296875 0.875q0.296875 0.328125 0.9375 0.328125q0.484375 0 0.796875 -0.1875q0.3125 -0.203125 0.578125 -0.484375l0.78125 0.984375q-0.359375 0.4375 -0.96875 0.6875q-0.59375 0.234375 -1.375 0.234375zm-0.03125 -4.6875q-0.46875 0 -0.75 0.3125q-0.265625 0.3125 -0.265625 0.84375l0 0.078125l1.953125 0l0 -0.09375q0 -0.515625 -0.234375 -0.828125q-0.21875 -0.3125 -0.703125 -0.3125zm3.6920166 4.5625l0 -5.59375l1.578125 0l0 1.21875l0.046875 0q0.046875 -0.234375 0.15625 -0.453125q0.109375 -0.21875 0.28125 -0.390625q0.171875 -0.171875 0.421875 -0.265625q0.25 -0.109375 0.578125 -0.109375l0.28125 0l0 1.46875l-0.40625 0q-0.6875 0 -1.03125 0.1875q-0.328125 0.171875 -0.328125 0.671875l0 3.265625l-1.578125 0zm8.296448 0q-0.4375 0 -0.71875 -0.265625q-0.28125 -0.265625 -0.359375 -0.71875l-0.0625 0q-0.125 0.546875 -0.5625 0.828125q-0.4375 0.28125 -1.078125 0.28125q-0.84375 0 -1.296875 -0.4375q-0.4375 -0.453125 -0.4375 -1.1875q0 -0.890625 0.640625 -1.3125q0.65625 -0.4375 1.765625 -0.4375l0.875 0l0 -0.359375q0 -0.390625 -0.21875 -0.625q-0.203125 -0.25 -0.703125 -0.25q-0.46875 0 -0.75 0.203125q-0.28125 0.203125 -0.453125 0.453125l-0.9375 -0.828125q0.34375 -0.5 0.859375 -0.78125q0.515625 -0.28125 1.390625 -0.28125q1.203125 0 1.796875 0.53125q0.59375 0.515625 0.59375 1.515625l0 2.453125l0.53125 0l0 1.21875l-0.875 0zm-2.1875 -0.96875q0.390625 0 0.671875 -0.171875q0.28125 -0.171875 0.28125 -0.546875l0 -0.671875l-0.765625 0q-0.921875 0 -0.921875 0.640625l0 0.15625q0 0.3125 0.1875 0.453125q0.1875 0.140625 0.546875 0.140625zm6.015106 0.96875q-0.828125 0 -1.25 -0.40625q-0.421875 -0.421875 -0.421875 -1.21875l0 -2.75l-0.78125 0l0 -1.21875l0.390625 0q0.3125 0 0.421875 -0.15625q0.125 -0.15625 0.125 -0.4375l0 -0.921875l1.421875 0l0 1.515625l1.109375 0l0 1.21875l-1.109375 0l0 3.15625l1.03125 0l0 1.21875l-0.9375 0zm4.398102 0.125q-0.640625 0 -1.140625 -0.203125q-0.5 -0.203125 -0.84375 -0.578125q-0.34375 -0.390625 -0.515625 -0.921875q-0.171875 -0.546875 -0.171875 -1.21875q0 -0.671875 0.15625 -1.203125q0.171875 -0.546875 0.5 -0.921875q0.34375 -0.390625 0.828125 -0.59375q0.5 -0.203125 1.125 -0.203125q0.703125 0 1.1875 0.234375q0.5 0.234375 0.8125 0.625q0.3125 0.390625 0.453125 0.90625q0.15625 0.515625 0.15625 1.09375l0 0.46875l-3.59375 0l0 0.078125q0 0.546875 0.296875 0.875q0.296875 0.328125 0.9375 0.328125q0.484375 0 0.796875 -0.1875q0.3125 -0.203125 0.578125 -0.484375l0.78125 0.984375q-0.359375 0.4375 -0.96875 0.6875q-0.59375 0.234375 -1.375 0.234375zm-0.03125 -4.6875q-0.46875 0 -0.75 0.3125q-0.265625 0.3125 -0.265625 0.84375l0 0.078125l1.953125 0l0 -0.09375q0 -0.515625 -0.234375 -0.828125q-0.21875 -0.3125 -0.703125 -0.3125z" fill-rule="nonzero"/><path fill="#ffffff" d="m440.25528 353.34818l0 0c0 -4.463928 3.6187134 -8.082642 8.082642 -8.082642l32.32962 0l0 0c2.1436462 0 4.199524 0.8515625 5.7153015 2.36734c1.5157776 1.5158081 2.36734 3.5716553 2.36734 5.7153015l0 35.41211c0 4.4638977 -3.6187134 8.082642 -8.082642 8.082642l-32.32962 0l0 0c-4.463928 0 -8.082642 -3.618744 -8.082642 -8.082642z" fill-rule="evenodd"/><path stroke="#fc5d0d" stroke-width="2.0" stroke-linejoin="round" stroke-linecap="butt" d="m440.25528 353.34818l0 0c0 -4.463928 3.6187134 -8.082642 8.082642 -8.082642l32.32962 0l0 0c2.1436462 0 4.199524 0.8515625 5.7153015 2.36734c1.5157776 1.5158081 2.36734 3.5716553 2.36734 5.7153015l0 35.41211c0 4.4638977 -3.6187134 8.082642 -8.082642 8.082642l-32.32962 0l0 0c-4.463928 0 -8.082642 -3.618744 -8.082642 -8.082642z" fill-rule="evenodd"/><path fill="#000000" fill-opacity="0.0" d="m428.53473 387.7l71.93594 0l0 32.329956l-71.93594 0z" fill-rule="evenodd"/><path fill="#000000" d="m441.4566 400.94l0 6.0l-1.625 0l0 -6.0l-2.015625 0l0 -1.4375l5.65625 0l0 1.4375l-2.015625 0zm6.429779 6.0q-0.4375 0 -0.71875 -0.265625q-0.28125 -0.265625 -0.359375 -0.71875l-0.0625 0q-0.125 0.546875 -0.5625 0.828125q-0.4375 0.28125 -1.078125 0.28125q-0.84375 0 -1.296875 -0.4375q-0.4375 -0.453125 -0.4375 -1.1875q0 -0.890625 0.640625 -1.3125q0.65625 -0.4375 1.765625 -0.4375l0.875 0l0 -0.359375q0 -0.390625 -0.21875 -0.625q-0.203125 -0.25 -0.703125 -0.25q-0.46875 0 -0.75 0.203125q-0.28125 0.203125 -0.453125 0.453125l-0.9375 -0.828125q0.34375 -0.5 0.859375 -0.78125q0.515625 -0.28125 1.390625 -0.28125q1.203125 0 1.796875 0.53125q0.59375 0.515625 0.59375 1.515625l0 2.453125l0.53125 0l0 1.21875l-0.875 0zm-2.1875 -0.96875q0.390625 0 0.671875 -0.171875q0.28125 -0.171875 0.28125 -0.546875l0 -0.671875l-0.765625 0q-0.921875 0 -0.921875 0.640625l0 0.15625q0 0.3125 0.1875 0.453125q0.1875 0.140625 0.546875 0.140625zm6.000946 1.09375q-0.796875 0 -1.359375 -0.25q-0.546875 -0.265625 -0.984375 -0.75l0.921875 -0.9375q0.296875 0.328125 0.65625 0.53125q0.375 0.1875 0.828125 0.1875q0.46875 0 0.640625 -0.140625q0.1875 -0.15625 0.1875 -0.390625q0 -0.40625 -0.5625 -0.46875l-0.609375 -0.078125q-1.890625 -0.234375 -1.890625 -1.734375q0 -0.40625 0.15625 -0.734375q0.15625 -0.328125 0.4375 -0.5625q0.28125 -0.25 0.671875 -0.375q0.40625 -0.140625 0.90625 -0.140625q0.4375 0 0.765625 0.0625q0.34375 0.046875 0.609375 0.171875q0.265625 0.109375 0.484375 0.28125q0.21875 0.15625 0.421875 0.359375l-0.90625 0.921875q-0.265625 -0.265625 -0.609375 -0.421875q-0.328125 -0.15625 -0.671875 -0.15625q-0.40625 0 -0.578125 0.140625q-0.171875 0.125 -0.171875 0.328125q0 0.234375 0.125 0.359375q0.125 0.109375 0.46875 0.171875l0.625 0.078125q1.84375 0.25 1.84375 1.6875q0 0.40625 -0.171875 0.75q-0.171875 0.328125 -0.484375 0.578125q-0.3125 0.25 -0.765625 0.390625q-0.4375 0.140625 -0.984375 0.140625zm3.480194 -8.015625l1.578125 0l0 4.65625l0.0625 0l0.6875 -1.03125l1.125 -1.328125l1.75 0l-1.859375 2.140625l2.078125 3.453125l-1.890625 0l-1.25 -2.359375l-0.703125 0.78125l0 1.578125l-1.578125 0l0 -7.890625zm7.711212 7.890625q-0.8125 0 -1.1875 -0.390625q-0.375 -0.390625 -0.375 -1.140625l0 -6.359375l1.578125 0l0 6.671875l0.703125 0l0 1.21875l-0.71875 0zm2.4632568 -6.1875q-0.484375 0 -0.703125 -0.21875q-0.21875 -0.21875 -0.21875 -0.5625l0 -0.234375q0 -0.34375 0.21875 -0.5625q0.21875 -0.21875 0.703125 -0.21875q0.46875 0 0.6875 0.21875q0.21875 0.21875 0.21875 0.5625l0 0.234375q0 0.34375 -0.21875 0.5625q-0.21875 0.21875 -0.6875 0.21875zm-0.796875 0.59375l1.578125 0l0 5.59375l-1.578125 0l0 -5.59375zm4.938324 5.71875q-0.796875 0 -1.359375 -0.25q-0.546875 -0.265625 -0.984375 -0.75l0.921875 -0.9375q0.296875 0.328125 0.65625 0.53125q0.375 0.1875 0.828125 0.1875q0.46875 0 0.640625 -0.140625q0.1875 -0.15625 0.1875 -0.390625q0 -0.40625 -0.5625 -0.46875l-0.609375 -0.078125q-1.890625 -0.234375 -1.890625 -1.734375q0 -0.40625 0.15625 -0.734375q0.15625 -0.328125 0.4375 -0.5625q0.28125 -0.25 0.671875 -0.375q0.40625 -0.140625 0.90625 -0.140625q0.4375 0 0.765625 0.0625q0.34375 0.046875 0.609375 0.171875q0.265625 0.109375 0.484375 0.28125q0.21875 0.15625 0.421875 0.359375l-0.90625 0.921875q-0.265625 -0.265625 -0.609375 -0.421875q-0.328125 -0.15625 -0.671875 -0.15625q-0.40625 0 -0.578125 0.140625q-0.171875 0.125 -0.171875 0.328125q0 0.234375 0.125 0.359375q0.125 0.109375 0.46875 0.171875l0.625 0.078125q1.84375 0.25 1.84375 1.6875q0 0.40625 -0.171875 0.75q-0.171875 0.328125 -0.484375 0.578125q-0.3125 0.25 -0.765625 0.390625q-0.4375 0.140625 -0.984375 0.140625zm5.363617 -0.125q-0.828125 0 -1.25 -0.40625q-0.421875 -0.421875 -0.421875 -1.21875l0 -2.75l-0.78125 0l0 -1.21875l0.390625 0q0.3125 0 0.421875 -0.15625q0.125 -0.15625 0.125 -0.4375l0 -0.921875l1.421875 0l0 1.515625l1.109375 0l0 1.21875l-1.109375 0l0 3.15625l1.03125 0l0 1.21875l-0.9375 0z" fill-rule="nonzero"/><path fill="#000000" fill-opacity="0.0" d="m464.50275 345.26553l-60.188995 -32.125977" fill-rule="evenodd"/><path stroke="#000000" stroke-width="1.3333333333333333" stroke-linejoin="round" stroke-linecap="butt" d="m464.50275 345.26553l-53.13141 -28.358978" fill-rule="evenodd"/><path fill="#000000" stroke="#000000" stroke-width="1.3333333333333333" stroke-linecap="butt" d="m412.4084 314.96368l-6.3750305 -0.9062805l4.300995 4.7920227z" fill-rule="evenodd"/><path fill="#000000" fill-opacity="0.0" d="m344.1773 345.26553l60.1575 -32.125977" fill-rule="evenodd"/><path stroke="#000000" stroke-width="1.3333333333333333" stroke-linejoin="round" stroke-linecap="butt" d="m344.17734 345.26553l53.100708 -28.357452" fill-rule="evenodd"/><path fill="#000000" stroke="#000000" stroke-width="1.3333333333333333" stroke-linecap="butt" d="m398.31546 318.85074l4.2999573 -4.7929688l-6.374817 0.9076843z" fill-rule="evenodd"/><path fill="#000000" fill-opacity="0.0" d="m380.18076 69.284904l71.93701 0l0 32.314957l-71.93701 0z" fill-rule="evenodd"/><path fill="#000000" d="m390.00888 81.0874l3.609375 0q0.921875 0 1.4375 0.53125q0.515625 0.515625 0.515625 1.375q0 0.421875 -0.109375 0.734375q-0.109375 0.296875 -0.296875 0.484375q-0.1875 0.1875 -0.4375 0.28125q-0.25 0.09375 -0.53125 0.09375l0 0.0625q0.265625 0 0.546875 0.109375q0.296875 0.09375 0.53125 0.296875q0.25 0.203125 0.421875 0.546875q0.171875 0.328125 0.171875 0.796875q0 0.4375 -0.15625 0.828125q-0.140625 0.390625 -0.40625 0.6875q-0.25 0.28125 -0.609375 0.453125q-0.34375 0.15625 -0.75 0.15625l-3.9375 0l0 -7.4375zm1.609375 6.078125l1.875 0q0.3125 0 0.5 -0.171875q0.1875 -0.1875 0.1875 -0.5l0 -0.359375q0 -0.328125 -0.1875 -0.5q-0.1875 -0.171875 -0.5 -0.171875l-1.875 0l0 1.703125zm0 -3.03125l1.609375 0q0.328125 0 0.5 -0.171875q0.1875 -0.1875 0.1875 -0.515625l0 -0.3125q0 -0.328125 -0.1875 -0.5q-0.171875 -0.1875 -0.5 -0.1875l-1.609375 0l0 1.6875zm5.404663 4.390625l0 -5.59375l1.578125 0l0 1.21875l0.046875 0q0.046875 -0.234375 0.15625 -0.453125q0.109375 -0.21875 0.28125 -0.390625q0.171875 -0.171875 0.421875 -0.265625q0.25 -0.109375 0.578125 -0.109375l0.28125 0l0 1.46875l-0.40625 0q-0.6875 0 -1.03125 0.1875q-0.328125 0.171875 -0.328125 0.671875l0 3.265625l-1.578125 0zm6.5174866 0.125q-0.609375 0 -1.09375 -0.203125q-0.484375 -0.203125 -0.828125 -0.578125q-0.328125 -0.390625 -0.515625 -0.921875q-0.171875 -0.546875 -0.171875 -1.21875q0 -0.671875 0.171875 -1.21875q0.1875 -0.546875 0.515625 -0.921875q0.34375 -0.375 0.828125 -0.578125q0.484375 -0.203125 1.09375 -0.203125q0.625 0 1.109375 0.203125q0.484375 0.203125 0.8125 0.578125q0.34375 0.375 0.515625 0.921875q0.1875 0.546875 0.1875 1.21875q0 0.671875 -0.1875 1.21875q-0.171875 0.53125 -0.515625 0.921875q-0.328125 0.375 -0.8125 0.578125q-0.484375 0.203125 -1.109375 0.203125zm0 -1.25q0.46875 0 0.71875 -0.28125q0.265625 -0.28125 0.265625 -0.828125l0 -1.140625q0 -0.53125 -0.265625 -0.8125q-0.25 -0.28125 -0.71875 -0.28125q-0.46875 0 -0.71875 0.28125q-0.25 0.28125 -0.25 0.8125l0 1.140625q0 0.546875 0.25 0.828125q0.25 0.28125 0.71875 0.28125zm3.7445679 -6.765625l1.578125 0l0 4.65625l0.0625 0l0.6875 -1.03125l1.125 -1.328125l1.75 0l-1.859375 2.140625l2.078125 3.453125l-1.890625 0l-1.25 -2.359375l-0.703125 0.78125l0 1.578125l-1.578125 0l0 -7.890625zm8.188843 8.015625q-0.640625 0 -1.140625 -0.203125q-0.5 -0.203125 -0.84375 -0.578125q-0.34375 -0.390625 -0.515625 -0.921875q-0.171875 -0.546875 -0.171875 -1.21875q0 -0.671875 0.15625 -1.203125q0.171875 -0.546875 0.5 -0.921875q0.34375 -0.390625 0.828125 -0.59375q0.5 -0.203125 1.125 -0.203125q0.703125 0 1.1875 0.234375q0.5 0.234375 0.8125 0.625q0.3125 0.390625 0.453125 0.90625q0.15625 0.515625 0.15625 1.09375l0 0.46875l-3.59375 0l0 0.078125q0 0.546875 0.296875 0.875q0.296875 0.328125 0.9375 0.328125q0.484375 0 0.796875 -0.1875q0.3125 -0.203125 0.578125 -0.484375l0.78125 0.984375q-0.359375 0.4375 -0.96875 0.6875q-0.59375 0.234375 -1.375 0.234375zm-0.03125 -4.6875q-0.46875 0 -0.75 0.3125q-0.265625 0.3125 -0.265625 0.84375l0 0.078125l1.953125 0l0 -0.09375q0 -0.515625 -0.234375 -0.828125q-0.21875 -0.3125 -0.703125 -0.3125zm3.691986 4.5625l0 -5.59375l1.578125 0l0 1.21875l0.046875 0q0.046875 -0.234375 0.15625 -0.453125q0.109375 -0.21875 0.28125 -0.390625q0.171875 -0.171875 0.421875 -0.265625q0.25 -0.109375 0.578125 -0.109375l0.28125 0l0 1.46875l-0.40625 0q-0.6875 0 -1.03125 0.1875q-0.328125 0.171875 -0.328125 0.671875l0 3.265625l-1.578125 0z" fill-rule="nonzero"/><path fill="#ffffff" d="m671.4884 102.19824l0 0c4.4647217 0 8.084106 3.6193924 8.084106 8.084152l0 32.335632l0 0c0 2.144043 -0.8516846 4.200287 -2.3677368 5.7163544c-1.5161133 1.5160675 -3.5723267 2.3677979 -5.7163696 2.3677979l-35.42224 0c-4.4647827 0 -8.0841675 -3.6194 -8.0841675 -8.084152l0 -32.335632l0 0c0 -4.46476 3.6193848 -8.084152 8.0841675 -8.084152z" fill-rule="evenodd"/><path stroke="#0075ff" stroke-width="2.0" stroke-linejoin="round" stroke-linecap="butt" d="m671.4884 102.19824l0 0c4.4647217 0 8.084106 3.6193924 8.084106 8.084152l0 32.335632l0 0c0 2.144043 -0.8516846 4.200287 -2.3677368 5.7163544c-1.5161133 1.5160675 -3.5723267 2.3677979 -5.7163696 2.3677979l-35.42224 0c-4.4647827 0 -8.0841675 -3.6194 -8.0841675 -8.084152l0 -32.335632l0 0c0 -4.46476 3.6193848 -8.084152 8.0841675 -8.084152z" fill-rule="evenodd"/><path fill="#000000" fill-opacity="0.0" d="m617.8148 69.284904l71.93701 0l0 32.314957l-71.93701 0z" fill-rule="evenodd"/><path fill="#000000" d="m627.64294 81.0874l3.609375 0q0.921875 0 1.4375 0.53125q0.515625 0.515625 0.515625 1.375q0 0.421875 -0.109375 0.734375q-0.109375 0.296875 -0.296875 0.484375q-0.1875 0.1875 -0.4375 0.28125q-0.25 0.09375 -0.53125 0.09375l0 0.0625q0.265625 0 0.546875 0.109375q0.296875 0.09375 0.53125 0.296875q0.25 0.203125 0.421875 0.546875q0.171875 0.328125 0.171875 0.796875q0 0.4375 -0.15625 0.828125q-0.140625 0.390625 -0.40625 0.6875q-0.25 0.28125 -0.609375 0.453125q-0.34375 0.15625 -0.75 0.15625l-3.9375 0l0 -7.4375zm1.609375 6.078125l1.875 0q0.3125 0 0.5 -0.171875q0.1875 -0.1875 0.1875 -0.5l0 -0.359375q0 -0.328125 -0.1875 -0.5q-0.1875 -0.171875 -0.5 -0.171875l-1.875 0l0 1.703125zm0 -3.03125l1.609375 0q0.328125 0 0.5 -0.171875q0.1875 -0.1875 0.1875 -0.515625l0 -0.3125q0 -0.328125 -0.1875 -0.5q-0.171875 -0.1875 -0.5 -0.1875l-1.609375 0l0 1.6875zm5.404663 4.390625l0 -5.59375l1.578125 0l0 1.21875l0.046875 0q0.046875 -0.234375 0.15625 -0.453125q0.109375 -0.21875 0.28125 -0.390625q0.171875 -0.171875 0.421875 -0.265625q0.25 -0.109375 0.578125 -0.109375l0.28125 0l0 1.46875l-0.40625 0q-0.6875 0 -1.03125 0.1875q-0.328125 0.171875 -0.328125 0.671875l0 3.265625l-1.578125 0zm6.517456 0.125q-0.609375 0 -1.09375 -0.203125q-0.484375 -0.203125 -0.828125 -0.578125q-0.328125 -0.390625 -0.515625 -0.921875q-0.171875 -0.546875 -0.171875 -1.21875q0 -0.671875 0.171875 -1.21875q0.1875 -0.546875 0.515625 -0.921875q0.34375 -0.375 0.828125 -0.578125q0.484375 -0.203125 1.09375 -0.203125q0.625 0 1.109375 0.203125q0.484375 0.203125 0.8125 0.578125q0.34375 0.375 0.515625 0.921875q0.1875 0.546875 0.1875 1.21875q0 0.671875 -0.1875 1.21875q-0.171875 0.53125 -0.515625 0.921875q-0.328125 0.375 -0.8125 0.578125q-0.484375 0.203125 -1.109375 0.203125zm0 -1.25q0.46875 0 0.71875 -0.28125q0.265625 -0.28125 0.265625 -0.828125l0 -1.140625q0 -0.53125 -0.265625 -0.8125q-0.25 -0.28125 -0.71875 -0.28125q-0.46875 0 -0.71875 0.28125q-0.25 0.28125 -0.25 0.8125l0 1.140625q0 0.546875 0.25 0.828125q0.25 0.28125 0.71875 0.28125zm3.7445679 -6.765625l1.578125 0l0 4.65625l0.0625 0l0.6875 -1.03125l1.125 -1.328125l1.75 0l-1.859375 2.140625l2.078125 3.453125l-1.890625 0l-1.25 -2.359375l-0.703125 0.78125l0 1.578125l-1.578125 0l0 -7.890625zm8.188843 8.015625q-0.640625 0 -1.140625 -0.203125q-0.5 -0.203125 -0.84375 -0.578125q-0.34375 -0.390625 -0.515625 -0.921875q-0.171875 -0.546875 -0.171875 -1.21875q0 -0.671875 0.15625 -1.203125q0.171875 -0.546875 0.5 -0.921875q0.34375 -0.390625 0.828125 -0.59375q0.5 -0.203125 1.125 -0.203125q0.703125 0 1.1875 0.234375q0.5 0.234375 0.8125 0.625q0.3125 0.390625 0.453125 0.90625q0.15625 0.515625 0.15625 1.09375l0 0.46875l-3.59375 0l0 0.078125q0 0.546875 0.296875 0.875q0.296875 0.328125 0.9375 0.328125q0.484375 0 0.796875 -0.1875q0.3125 -0.203125 0.578125 -0.484375l0.78125 0.984375q-0.359375 0.4375 -0.96875 0.6875q-0.59375 0.234375 -1.375 0.234375zm-0.03125 -4.6875q-0.46875 0 -0.75 0.3125q-0.265625 0.3125 -0.265625 0.84375l0 0.078125l1.953125 0l0 -0.09375q0 -0.515625 -0.234375 -0.828125q-0.21875 -0.3125 -0.703125 -0.3125zm3.6920166 4.5625l0 -5.59375l1.578125 0l0 1.21875l0.046875 0q0.046875 -0.234375 0.15625 -0.453125q0.109375 -0.21875 0.28125 -0.390625q0.171875 -0.171875 0.421875 -0.265625q0.25 -0.109375 0.578125 -0.109375l0.28125 0l0 1.46875l-0.40625 0q-0.6875 0 -1.03125 0.1875q-0.328125 0.171875 -0.328125 0.671875l0 3.265625l-1.578125 0z" fill-rule="nonzero"/><path fill="#000000" fill-opacity="0.0" d="m653.7773 150.70218l-1.543335 110.834656" fill-rule="evenodd"/><path stroke="#000000" stroke-width="1.0" stroke-linejoin="round" stroke-linecap="butt" d="m653.7773 150.70218l-1.4597778 104.83522" fill-rule="evenodd"/><path fill="#000000" stroke="#000000" stroke-width="1.0" stroke-linecap="butt" d="m650.66595 255.51442l1.5883789 4.5606537l1.7147217 -4.5146637z" fill-rule="evenodd"/><path fill="#000000" fill-opacity="0.0" d="m679.1753 192.88203l-0.06298828 92.81889l-30.70868 0l0.06298828 -92.81889z" fill-rule="evenodd"/><path fill="#000000" d="m661.2087 202.60078l6.515625 0l-0.0029907227 4.4375l-1.265625 0l0.0020141602 -3.015625l-1.328125 0l-0.0017700195 2.578125l-1.25 0l0.0017700195 -2.578125l-1.40625 0l-0.0020141602 3.015625l-1.265625 0l0.0029907227 -4.4375zm-0.003479004 5.1152954l2.4832764 1.609375l2.4073486 -1.59375l-0.0010375977 1.5625l-1.5319214 0.921875l0 0.03125l1.5306396 0.890625l-9.765625E-4 1.4531097l-2.4520264 -1.6249847l-2.4385986 1.6406097l0.0010375977 -1.5781097l1.5944214 -0.9375l0 -0.03125l-1.5931396 -0.90625l9.765625E-4 -1.4375zm4.88678 5.6924896l-9.765625E-4 1.390625l-0.8125 0l0 0.046875q0.40618896 0.09375 0.6715698 0.453125q0.26538086 0.375 0.26501465 0.859375q-6.1035156E-4 0.921875 -0.6571655 1.390625q-0.6566162 0.484375 -1.9066162 0.484375q-1.25 0 -1.9058838 -0.484375q-0.6559448 -0.46875 -0.6553345 -1.390625q1.8310547E-4 -0.25 0.078430176 -0.46875q0.062683105 -0.203125 0.18780518 -0.375q0.12506104 -0.171875 0.2970581 -0.296875q0.17193604 -0.125 0.37512207 -0.171875l0 -0.046875l-2.6875 0l9.765625E-4 -1.390625l6.75 0zm-3.892212 2.28125q-2.4414062E-4 0.40625 0.28082275 0.65625q0.2810669 0.25 0.7498169 0.25l0.84375 0q0.46875 0 0.7345581 -0.25q0.2814331 -0.25 0.28167725 -0.65625q3.0517578E-4 -0.390625 -0.20263672 -0.640625q-0.18737793 -0.25 -0.5155029 -0.25l-1.453125 0q-0.328125 0 -0.5313721 0.25q-0.1876831 0.25 -0.18798828 0.640625zm-1.1129761 5.374634q3.6621094E-4 -0.53125 0.17248535 -0.96875q0.18780518 -0.421875 0.5161133 -0.71875q0.34399414 -0.28125 0.8128052 -0.453125q0.46887207 -0.15625 1.0626221 -0.15625q0.59375 0 1.0623779 0.15625q0.48431396 0.171875 0.8121948 0.453125q0.3279419 0.296875 0.49951172 0.71875q0.18725586 0.4375 0.18688965 0.96875q-3.6621094E-4 0.546875 -0.18817139 0.96875q-0.17218018 0.421875 -0.5004883 0.71875q-0.3283081 0.296875 -0.8128052 0.453125q-0.46887207 0.15625 -1.0626221 0.15625q-0.59375 0 -1.0623779 -0.15625q-0.46862793 -0.15625 -0.8121948 -0.453125q-0.3279419 -0.296875 -0.5151367 -0.71875q-0.17156982 -0.421875 -0.17120361 -0.96875zm1.09375 0q-3.0517578E-4 0.421875 0.24957275 0.640625q0.2498169 0.21875 0.7185669 0.21875l1.0 0q0.46875 0 0.7189331 -0.21875q0.25012207 -0.21875 0.25042725 -0.640625q2.4414062E-4 -0.40625 -0.24957275 -0.640625q-0.24987793 -0.21875 -0.7186279 -0.21875l-1.0 0q-0.46875 0 -0.7188721 0.21875q-0.2501831 0.234375 -0.25042725 0.640625zm-0.9866333 3.2766876l4.890625 0l-9.1552734E-4 1.390625l-1.0625 0l-6.1035156E-5 0.046875q0.21875 0.03125 0.40618896 0.125q0.18743896 0.09375 0.3279419 0.25q0.15612793 0.15625 0.23413086 0.359375q0.09362793 0.21875 0.09338379 0.515625l-1.2207031E-4 0.234375l-1.28125 0l2.4414062E-4 -0.34375q3.6621094E-4 -0.609375 -0.15563965 -0.90625q-0.1560669 -0.28125 -0.5935669 -0.28125l-2.859375 0l9.1552734E-4 -1.390625zm-0.0037231445 5.524658q4.8828125E-4 -0.71875 0.36010742 -1.09375q0.37524414 -0.359375 1.0627441 -0.359375l2.40625 0l4.8828125E-4 -0.6875l1.0625 0l-2.4414062E-4 0.34375q-1.8310547E-4 0.28125 0.14038086 0.375q0.14050293 0.109375 0.39050293 0.109375l0.796875 0l-7.9345703E-4 1.234375l-1.328125 0l-6.713867E-4 0.96875l-1.0625 0l6.713867E-4 -0.96875l-2.75 0l-6.1035156E-4 0.90625l-1.078125 0l5.493164E-4 -0.828125zm-0.11199951 3.8634644q3.6621094E-4 -0.5625 0.17254639 -1.0q0.18780518 -0.4375 0.5161133 -0.75q0.34399414 -0.296875 0.8128052 -0.453125q0.46887207 -0.15625 1.0626221 -0.15625q0.578125 0 1.0467529 0.15625q0.46868896 0.15625 0.7965698 0.4375q0.3435669 0.296875 0.5307617 0.71875q0.18725586 0.4375 0.18688965 0.984375q-4.272461E-4 0.609375 -0.21948242 1.046875q-0.20343018 0.4375 -0.5473633 0.703125q-0.3439331 0.28125 -0.79711914 0.40625q-0.45324707 0.125 -0.9376221 0.125l-0.421875 0l0.0021362305 -3.140625l-0.0625 0q-0.484375 0 -0.7814331 0.25q-0.2814331 0.265625 -0.28179932 0.828125q-3.0517578E-4 0.4375 0.17138672 0.703125q0.1716919 0.265625 0.42156982 0.5l-0.8598633 0.6875q-0.39038086 -0.328125 -0.60876465 -0.859375q-0.20281982 -0.515625 -0.20233154 -1.1875zm4.109375 -0.03125q3.0517578E-4 -0.421875 -0.28082275 -0.65625q-0.2810669 -0.234375 -0.7341919 -0.234375l-0.078125 0l-0.001159668 1.71875l0.09375 0q0.4375 0 0.7188721 -0.203125q0.28137207 -0.203125 0.28167725 -0.625zm-4.0021973 3.2267761l4.890625 0l-9.1552734E-4 1.390625l-1.0625 0l-6.1035156E-5 0.046875q0.21875 0.03125 0.40618896 0.125q0.18743896 0.09375 0.3279419 0.25q0.15612793 0.15625 0.23413086 0.359375q0.09362793 0.21875 0.09338379 0.515625l-1.2207031E-4 0.234375l-1.28125 0l2.4414062E-4 -0.34375q3.6621094E-4 -0.609375 -0.15563965 -0.90625q-0.1560669 -0.28125 -0.5935669 -0.28125l-2.859375 0l9.1552734E-4 -1.390625zm-0.0056152344 8.26857l0.0031738281 -4.609375l1.28125 0l1.7173462 2.0q0.2341919 0.28125 0.42156982 0.46875q0.18737793 0.1875 0.3591919 0.296875q0.18737793 0.125 0.35925293 0.171875q0.18743896 0.046875 0.39056396 0.046875l0.140625 0q0.171875 0 0.31256104 -0.078125q0.14068604 -0.0625 0.23449707 -0.1875q0.09387207 -0.125 0.14086914 -0.28125q0.046936035 -0.15625 0.047058105 -0.3125q1.8310547E-4 -0.234375 -0.077819824 -0.40625q-0.062438965 -0.171875 -0.1873169 -0.296875q-0.124938965 -0.125 -0.29675293 -0.21875q-0.15618896 -0.078125 -0.34362793 -0.125l0.46954346 -1.21875q0.32806396 0.109375 0.6248169 0.296875q0.31237793 0.203125 0.5308838 0.5q0.2341919 0.296875 0.35894775 0.6875q0.14031982 0.40625 0.13995361 0.921875q-3.0517578E-4 0.53125 -0.15686035 0.9375q-0.14093018 0.40625 -0.40673828 0.6875q-0.2658081 0.28125 -0.6253052 0.4375q-0.35943604 0.15625 -0.76568604 0.15625q-0.421875 0 -0.78118896 -0.140625q-0.34362793 -0.140625 -0.6403198 -0.390625q-0.29675293 -0.234375 -0.5777588 -0.546875q-0.2654419 -0.3125 -0.54644775 -0.65625l-0.9522705 -1.21875l-0.0021362305 3.078125l-1.171875 0z" fill-rule="nonzero"/><path fill="#000000" fill-opacity="0.0" d="m653.7773 150.70218l-249.44885 110.834656" fill-rule="evenodd"/><path stroke="#000000" stroke-width="1.0" stroke-linejoin="round" stroke-linecap="butt" d="m653.7773 150.70218l-243.9657 108.39841" fill-rule="evenodd"/><path fill="#000000" stroke="#000000" stroke-width="1.0" stroke-linecap="butt" d="m409.1409 257.59113l-3.476471 3.3521118l4.81781 -0.33322144z" fill-rule="evenodd"/><path fill="#000000" fill-opacity="0.0" d="m545.2285 161.26842l84.09448 -39.401566l13.039368 27.81102l-84.09448 39.40158z" fill-rule="evenodd"/><path fill="#000000" d="m561.6534 173.40636l-2.7659302 -5.899399l4.0183105 -1.882721l0.53723145 1.1459198l-2.730713 1.2794647l0.56378174 1.2025146l2.3345947 -1.0938416l0.53063965 1.1317749l-2.3345947 1.0938416l0.59698486 1.2732544l2.730713 -1.2794647l0.5372925 1.1459198l-4.0183105 1.8827362zm4.63208 -2.1703033l0.40270996 -2.9322357l-2.4646606 -1.5024719l1.414856 -0.66293335l1.4848633 0.9953003l0.028259277 -0.013259888l0.15649414 -1.7643127l1.3157959 -0.6165161l-0.4300537 2.910553l2.5203857 1.5108948l-1.4290771 0.66955566l-1.5255127 -1.0452576l-0.028259277 0.013259888l-0.144104 1.8275299l-1.3016968 0.6098938zm3.0786133 -6.843277l1.2592773 -0.5900116l0.34490967 0.73565674l0.042419434 -0.019897461q-0.087524414 -0.40760803 0.12512207 -0.8005829q0.22680664 -0.39959717 0.6654053 -0.6051178q0.83483887 -0.39112854 1.5378418 0.004180908q0.7172241 0.38867188 1.2478638 1.5204468q0.53063965 1.1317749 0.37060547 1.9314728q-0.14587402 0.7930603 -0.98065186 1.1841888q-0.2263794 0.1060791 -0.4576416 0.12814331q-0.21044922 0.02960205 -0.41918945 -0.010650635q-0.2086792 -0.040267944 -0.39483643 -0.14285278q-0.18615723 -0.10258484 -0.31481934 -0.26660156l-0.04248047 0.019882202l1.1408691 2.433319l-1.2592163 0.5900116l-2.8654785 -6.1115875zm3.7173462 2.5547638q0.36791992 -0.17236328 0.47491455 -0.53308105q0.106933594 -0.36071777 -0.092041016 -0.78512573l-0.3581543 -0.7639618q-0.19903564 -0.42440796 -0.538147 -0.5588379q-0.34576416 -0.14859009 -0.71362305 0.023773193q-0.35375977 0.16574097 -0.49389648 0.455719q-0.14678955 0.27583313 -0.007507324 0.57292175l0.6168823 1.3157043q0.13928223 0.29708862 0.4519043 0.3749237q0.30596924 0.063705444 0.65966797 -0.10203552zm5.3378906 -1.2758789q-0.4810791 0.22540283 -0.9501953 0.2554016q-0.4616089 0.009216309 -0.869751 -0.16191101q-0.40063477 -0.19190979 -0.755249 -0.54341125q-0.3404541 -0.35812378 -0.5925293 -0.8957062q-0.2520752 -0.53759766 -0.3095703 -1.028305q-0.049987793 -0.51148987 0.06542969 -0.9279175q0.1295166 -0.42303467 0.43859863 -0.7576599q0.31652832 -0.3553772 0.7976074 -0.58078q0.49523926 -0.23202515 0.95684814 -0.24125671q0.45495605 -0.023361206 0.86309814 0.14776611q0.4081421 0.17114258 0.755249 0.54341125q0.3404541 0.35812378 0.5925293 0.8957062q0.2520752 0.53759766 0.3095703 1.028305q0.057495117 0.49072266 -0.06542969 0.9279175q-0.1295166 0.42304993 -0.4319458 0.7718048q-0.30908203 0.33461 -0.80426025 0.56663513zm-0.46435547 -0.99031067q0.38208008 -0.1789856 0.47399902 -0.4981537q0.09197998 -0.3191681 -0.107055664 -0.74357605l-0.4244995 -0.905426q-0.19897461 -0.42442322 -0.5031738 -0.55796814q-0.30419922 -0.13354492 -0.68621826 0.045455933q-0.36791992 0.17236328 -0.47399902 0.4981537q-0.09197998 0.3191681 0.10699463 0.74357605l0.42456055 0.905426q0.19897461 0.42442322 0.5031738 0.55796814q0.31835938 0.12690735 0.68621826 -0.045455933zm3.3850708 -0.49894714l-2.0761719 -4.42807l1.2592773 -0.5900116l0.4510498 0.9620056l0.042419434 -0.019882202q-0.06451416 -0.21133423 -0.059265137 -0.42086792q0.0053100586 -0.20954895 0.08709717 -0.40316772q0.07519531 -0.20776367 0.22595215 -0.36468506q0.15826416 -0.1776886 0.42712402 -0.3036499l0.21221924 -0.09944153l0.5438843 1.16008l-0.3112793 0.1458435q-0.5517578 0.25854492 -0.75427246 0.52597046q-0.18835449 0.26080322 -0.0026245117 0.6569214l1.2138062 2.5889435l-1.2592163 0.5900116zm5.0027466 -2.343979q-0.6508789 0.3049469 -1.1430054 0.13865662q-0.48461914 -0.1870575 -0.7764282 -0.80952454l-1.0214844 -2.1786804l-0.6225586 0.291687l-0.4510498 -0.9620056l0.3112793 -0.1458435q0.25463867 -0.11932373 0.2798462 -0.286438q0.039367676 -0.17372131 -0.06677246 -0.40008545l-0.33825684 -0.7214966l1.1177368 -0.5237274l0.56378174 1.2025146l0.8772583 -0.41101074l0.4510498 0.9620056l-0.8772583 0.411026l1.1674194 2.4898987l0.8206787 -0.38449097l0.4576416 0.9761505l-0.7498779 0.35136414zm3.5449219 -1.5401611q-0.5093384 0.23866272 -0.9785156 0.2686615q-0.47576904 0.015853882 -0.89801025 -0.14865112q-0.41479492 -0.18528748 -0.755249 -0.543396q-0.3404541 -0.35812378 -0.5925293 -0.89572144q-0.24542236 -0.52345276 -0.30291748 -1.0141602q-0.057495117 -0.4907074 0.057861328 -0.907135q0.122924805 -0.43719482 0.425354 -0.7859497q0.31658936 -0.35539246 0.8117676 -0.5874176q0.55181885 -0.25854492 1.0408325 -0.24609375q0.48242188 -0.0017089844 0.8688965 0.19682312q0.40057373 0.19190979 0.7061157 0.54914856q0.305542 0.35723877 0.51116943 0.7957916l0.17913818 0.38197327l-2.843933 1.3325043l0.026489258 0.05659485q0.20562744 0.43855286 0.55804443 0.60128784q0.35992432 0.14195251 0.8692627 -0.096710205q0.3961792 -0.18562317 0.56378174 -0.45393372q0.1675415 -0.2683258 0.27368164 -0.5941162l0.9873657 0.48640442q-0.13134766 0.49290466 -0.51953125 0.9163513q-0.38067627 0.40267944 -0.9890747 0.68774414zm-1.7727661 -3.7074585q-0.38201904 0.17900085 -0.47485352 0.53308105q-0.09289551 0.35409546 0.099487305 0.7643585l0.03314209 0.070739746l1.5563965 -0.7292328l-0.039794922 -0.084869385q-0.18572998 -0.39613342 -0.4890747 -0.56459045q-0.3032837 -0.16847229 -0.68530273 0.010513306zm4.619995 2.2526398l-2.0761719 -4.42807l1.2592773 -0.5900116l0.4510498 0.9620056l0.042419434 -0.019882202q-0.06451416 -0.21131897 -0.059265137 -0.42086792q0.0053100586 -0.20954895 0.08709717 -0.40316772q0.07519531 -0.20776367 0.22595215 -0.36468506q0.15826416 -0.1776886 0.42712402 -0.3036499l0.21221924 -0.09944153l0.5438843 1.16008l-0.3112793 0.1458435q-0.5517578 0.25854492 -0.75427246 0.52597046q-0.18835449 0.26080322 -0.0026245117 0.6569214l1.2138062 2.5889435l-1.2592163 0.5900116zm3.6247559 -1.6983643l-0.47753906 -1.0185852l1.5846558 -0.7424927l-1.8572388 -3.9612274l-0.070739746 0.03315735l-0.46636963 2.1338348l-1.0983887 -0.24461365l0.5393677 -2.530365l1.9384155 -0.9082184l2.288391 4.8807983l1.2451172 -0.5833893l0.47753906 1.0186005l-4.1032104 1.9225006z" fill-rule="nonzero"/><path fill="#ffffff" d="m627.9943 269.6331l0 0c0 -4.464752 3.6193848 -8.084137 8.084106 -8.084137l32.335632 0l0 0c2.144104 0 4.2003174 0.8517151 5.7163696 2.3677979c1.5161133 1.5160522 2.3677979 3.5722961 2.3677979 5.716339l0 35.42227c0 4.464752 -3.6193848 8.084137 -8.0841675 8.084137l-32.335632 0l0 0c-4.4647217 0 -8.084106 -3.6193848 -8.084106 -8.084137z" fill-rule="evenodd"/><path stroke="#26d07c" stroke-width="2.0" stroke-linejoin="round" stroke-linecap="butt" d="m627.9943 269.6331l0 0c0 -4.464752 3.6193848 -8.084137 8.084106 -8.084137l32.335632 0l0 0c2.144104 0 4.2003174 0.8517151 5.7163696 2.3677979c1.5161133 1.5160522 2.3677979 3.5722961 2.3677979 5.716339l0 35.42227c0 4.464752 -3.6193848 8.084137 -8.0841675 8.084137l-32.335632 0l0 0c-4.4647217 0 -8.084106 -3.6193848 -8.084106 -8.084137z" fill-rule="evenodd"/><path fill="#000000" d="m645.91986 291.18423l0 -7.625l5.65625 0l0 1.28125l-4.125 0l0 1.703125l3.828125 0l0 1.28125l-3.828125 0l0 2.078125l4.265625 0l0 1.28125l-5.796875 0zm6.717041 -2.484375l1.5 -0.140625q0.125 0.75 0.53125 1.109375q0.421875 0.34375 1.125 0.34375q0.75 0 1.125 -0.3125q0.375 -0.3125 0.375 -0.734375q0 -0.265625 -0.15625 -0.453125q-0.15625 -0.1875 -0.5625 -0.328125q-0.265625 -0.09375 -1.234375 -0.34375q-1.234375 -0.296875 -1.734375 -0.75q-0.703125 -0.625 -0.703125 -1.53125q0 -0.59375 0.328125 -1.09375q0.34375 -0.515625 0.953125 -0.78125q0.625 -0.265625 1.5 -0.265625q1.4375 0 2.15625 0.640625q0.734375 0.625 0.78125 1.671875l-1.546875 0.078125q-0.09375 -0.59375 -0.421875 -0.84375q-0.328125 -0.265625 -0.984375 -0.265625q-0.671875 0 -1.046875 0.28125q-0.234375 0.171875 -0.234375 0.46875q0 0.265625 0.21875 0.46875q0.296875 0.234375 1.421875 0.5q1.125 0.265625 1.65625 0.5625q0.546875 0.28125 0.84375 0.78125q0.3125 0.484375 0.3125 1.203125q0 0.65625 -0.375 1.234375q-0.359375 0.5625 -1.03125 0.84375q-0.65625 0.28125 -1.65625 0.28125q-1.4375 0 -2.21875 -0.671875q-0.78125 -0.671875 -0.921875 -1.953125z" fill-rule="nonzero"/></g></svg>