<svg height="90" version="1.1" width="110" xmlns="http://www.w3.org/2000/svg"
  style="overflow: hidden; position: relative; left: -0.25px;">
  <rect x="5" y="5" width="100" height="80" r="5" rx="5" ry="5" fill="#ffffff" stroke="#333333"
    stroke-width="2" stroke-linecap="round" stroke-linejoin="round" stroke-opacity="1"
    style="stroke-linecap: round; stroke-linejoin: round; stroke-opacity: 1;"></rect>
  <path d="m48,72 m 0.84461,2.64411 c 1.05533,-1.23780996 2.64337,-2.07882 4.29653,-1.97997996 2.05163,0.0805 3.85579,1.15803 5.76082,1.79107 1.06385,0.34139996 2.24454,0.1438 3.18759,-0.43767 0.61743,-0.33642 1.2775,-0.64078 1.7542,-1.17511 0,0.56023 0,1.12046 0,1.6807 -0.98706,0.96237996 -2.29792,1.62393996 -3.6918,1.66181996 -1.24459,0.0927 -2.46671,-0.2491 -3.59505,-0.74812 -1.35789,-0.55965 -2.75133,-1.33436996 -4.27027,-1.18121996 -1.37741,0.14601 -2.41842,1.13685996 -3.44288,1.96782996 z"
    style="fill: #333333; stroke-width: 1px; stroke: #333333; stroke-linecap: round; stroke-linejoin: round;" />
  <text x="55" y="45" text-anchor="middle" font="10px &quot;Arial&quot;" stroke="none"
    fill="#333333"
    style="text-anchor: middle; font-style: normal; font-variant: normal; font-weight: normal; font-stretch: normal; font-size: 12px; line-height: normal; font-family: Arial, Helvetica, sans-serif;"
    font-size="12px" font-family="Arial, Helvetica, sans-serif">
    <tspan dy="4">Ad-Hoc</tspan>
  </text>
</svg>