<svg height="90" version="1.1" width="110" xmlns="http://www.w3.org/2000/svg" style="overflow: hidden; position: relative; left: -0.5px;">
  <rect x="5" y="5" width="100" height="80" r="5" rx="5" ry="5" fill="#ffffff" stroke="#333333" stroke-width="2" stroke-linecap="round" stroke-linejoin="round" stroke-opacity="1" style="stroke-linecap: round; stroke-linejoin: round; stroke-opacity: 1;"></rect>
  <text x="55" y="45" text-anchor="middle" font="10px &quot;Arial&quot;" stroke="none" fill="#333333" style="text-anchor: middle; font-style: normal; font-variant: normal; font-weight: normal; font-stretch: normal; font-size: 12px; line-height: normal; font-family: Arial, Helvetica, sans-serif;" font-size="12px" font-family="Arial, Helvetica, sans-serif">
    <tspan dy="4">Manual Task</tspan>
  </text>
  <path fill="#ffffff" stroke="#333333" d="M0.5,3.751L4.583,0.5009999999999999C4.583,0.5009999999999999,15.749,0.5839999999999999,16.666,0.5839999999999999S14.249,3.5009999999999994,15.166,3.5009999999999994S26.833,3.5009999999999994,27.75,3.5009999999999994C28.916,5.209,27.582,6.667999999999999,26.916,7.167999999999999S27.791,9.084999999999999,25.916,11.584999999999999C25.166,11.834999999999999,26.666,13.459999999999999,24.583000000000002,14.918C23.416,15.501,25.166,16.46,23.333000000000002,17.750999999999998C22.166,17.750999999999998,2.5000000000000036,17.833999999999996,2.5000000000000036,17.833999999999996L0.5000000000000036,16.500999999999998V3.751ZM13.5,7L27,7M13.5,11L26,11M14,14.5L25,14.5M8.2,3.1L15,3.1" stroke-width="1.6666666666666667" stroke-linecap="round" stroke-linejoin="round" stroke-opacity="1" transform="matrix(0.6,0,0,0.6,10.7422,8.667)" style="stroke-linecap: round; stroke-linejoin: round; stroke-opacity: 1;"></path>
</svg>