<svg xmlns="http://www.w3.org/2000/svg" width="54" height="54" fill="none"><path fill="currentcolor" fill-rule="evenodd" d="M42.545 12.273A2.455 2.455 0 0 1 45 14.727v24.546a2.455 2.455 0 0 1-2.455 2.454h-31.09A2.455 2.455 0 0 1 9 39.273V14.727a2.455 2.455 0 0 1 2.455-2.454zM27.818 40.09h14.727a.818.818 0 0 0 .819-.818v-4.91H27.818Zm-1.636-5.727v5.727H11.455a.818.818 0 0 1-.819-.818v-4.91zm1.636-1.637h15.546V27H27.818ZM26.182 27v5.727H10.636V27zm1.636-1.636h15.546v-5.728H27.818Zm-1.636-5.728v5.728H10.636v-5.728z" clip-rule="evenodd"/></svg>