<svg xmlns="http://www.w3.org/2000/svg" xmlns:xlink="http://www.w3.org/1999/xlink" version="1.1" fill-rule="evenodd" fill="none" stroke="none" stroke-linecap="square" stroke-miterlimit="10" overflow="hidden" viewBox="6858 177165 96012 53721"><rect fill="#1a73e8" fill-opacity="0" width="100%" height="100%"></rect><g transform="translate(6858 177165) scale(0.26458333333333334)"><defs cursor="default"></defs><g id="editor-g2bacfcb283b_0_50"><path fill="#fff" fill-opacity="1" d="M 0 0 L 365760 0 365760 205740 0 205740 Z"></path><g id="editor-g2bacfcb283b_0_50-bg"><g><g><path fill="#FFFFFF" fill-opacity="1" d="M 0 0 L 365760 0 365760 205740 0 205740 Z"></path></g></g></g><g id="editor-g2bacfcb283b_0_56"><g><g></g><g><path fill="#F7F7F7" fill-opacity="1" stroke="#434343" stroke-opacity="1" stroke-width="381" stroke-linecap="butt" stroke-linejoin="round" stroke-miterlimit="8" stroke-dasharray="1524,1143" d="M 64440 26944.4664 C 64440 23180.940529045653 67490.94052904565 20130 71254.4664 20130 L 294505.53359999997 20130 C 296312.84245873755 20130 298046.128651896 20847.950648680304 299324.08900160785 22125.91099839212 300602.04935131967 23403.871348103934 301320 25137.157541262488 301320 26944.4664 L 301320 178795.53360000002 C 301320 182559.05947095438 298269.05947095435 185610.00000000003 294505.53359999997 185610.00000000003 L 71254.4664 185610.00000000003 C 67490.94052904565 185610.00000000003 64440 182559.05947095438 64440 178795.53360000002 Z"></path></g></g></g><g id="editor-g2bacfcb283b_0_57"><g><g></g><g><path fill="#F7F7F7" fill-opacity="1" stroke="#434343" stroke-opacity="1" stroke-width="381" stroke-linecap="butt" stroke-linejoin="round" stroke-miterlimit="8" stroke-dasharray="1524,1143" d="M 69630.1058 34196.46568 C 69630.1058 31675.258138602156 71673.94833860216 29631.4156 74195.15588 29631.4156 L 175921.05572 29631.4156 C 177131.7822781593 29631.4156 178292.92062858708 30112.374852538698 179149.03358802418 30968.487811975807 180005.14654746128 31824.60077141292 180486.10580000002 32985.73912184067 180486.10580000002 34196.46568 L 180486.10580000002 178606.36552000002 C 180486.10580000002 181127.57306139788 178442.26326139783 183171.4156 175921.05572 183171.4156 L 74195.15588 183171.4156 C 71673.94833860216 183171.4156 69630.1058 181127.57306139788 69630.1058 178606.36552000002 Z"></path></g></g></g><g id="editor-g2bacfcb283b_0_58"><g><g></g><g><path fill="#F7F7F7" fill-opacity="1" stroke="#434343" stroke-opacity="1" stroke-width="381" stroke-linecap="butt" stroke-linejoin="round" stroke-miterlimit="8" stroke-dasharray="1524,1143" d="M 185283.5102 34200.99548 C 185283.5102 31679.787938602156 187327.35273860215 29635.9454 189848.56027999998 29635.9454 L 291574.46011999995 29635.9454 C 292785.1866781593 29635.9454 293946.3250285871 30116.9046525387 294802.43798802415 30973.017611975807 295658.5509474613 31829.13057141292 296139.5102 32990.268921840674 296139.5102 34200.99548 L 296139.5102 178610.89532 C 296139.5102 181132.10286139787 294095.66766139783 183175.9454 291574.46011999995 183175.9454 L 189848.56027999998 183175.9454 C 187327.35273860215 183175.9454 185283.5102 181132.10286139787 185283.5102 178610.89532 Z"></path></g></g></g><g id="editor-g2bacfcb283b_0_64"><g><g></g><g><path d="M 256695.2958 167824.909 L 294843.29579999996 167824.909 294843.29579999996 181372.909 256695.2958 181372.909 Z"></path></g><g><path fill="#000" fill-opacity="0" stroke="#000" stroke-opacity="0" stroke-width="14400" stroke-linecap="round" stroke-linejoin="round" stroke-miterlimit="10" pointer-events="visiblePainted" d="M 256695.2958 167824.909 L 294843.29579999996 167824.909 294843.29579999996 181372.909 256695.2958 181372.909 Z"></path></g><g><g direction="ltr" style="opacity: 1;"><g transform="matrix(381,0,0,381,260352.2958,171481.909)"><g pointer-events="none"><g id="editor-g2bacfcb283b_0_64-paragraph-0"><g><g class="sketchy-text-background" visibility="visible"></g><g></g><g class="sketchy-text-content" visibility="visible"><g class="sketchy-text-content-text" transform="translate(0 12.799999999999999)"><text style="font-family:'docs-IBM Plex Sans';font-size:13.333333333333332px;fill:#000000;font-weight:700;white-space:pre;" text-rendering="geometricPrecision" x="13.425504429133817">Region</text><text style="font-family:'docs-IBM Plex Sans';font-size:13.333333333333332px;fill:#000000;font-weight:700;white-space:pre;" text-rendering="geometricPrecision" x="59.50362942913382">2</text></g></g></g></g></g><rect style="opacity: 0;"></rect><rect style="opacity: 1;"></rect></g><g><path d="M 265467.41298749996 171481.909 L 286071.17861249996 171481.909 286071.17861249996 177577.909 265467.41298749996 177577.909 Z" pointer-events="visiblePainted" fill="#000000" stroke="#000000" opacity="0"></path></g><g transform="matrix(381,0,0,381,260352.2958,171481.909)"></g></g></g></g></g><g id="editor-g2bacfcb283b_0_127"><g><g></g><g><path d="M 69630.1111 167823.7858 L 107778.1111 167823.7858 107778.1111 181371.7858 69630.1111 181371.7858 Z"></path></g><g><path fill="#000" fill-opacity="0" stroke="#000" stroke-opacity="0" stroke-width="14400" stroke-linecap="round" stroke-linejoin="round" stroke-miterlimit="10" pointer-events="visiblePainted" d="M 69630.1111 167823.7858 L 107778.1111 167823.7858 107778.1111 181371.7858 69630.1111 181371.7858 Z"></path></g><g><g direction="ltr" style="opacity: 1;"><g transform="matrix(381,0,0,381,73287.1111,171480.7858)"><g pointer-events="none"><g id="editor-g2bacfcb283b_0_127-paragraph-0"><g><g class="sketchy-text-background" visibility="visible"></g><g></g><g class="sketchy-text-content" visibility="visible"><g class="sketchy-text-content-text" transform="translate(0 12.799999999999999)"><text style="font-family:'docs-IBM Plex Sans';font-size:13.333333333333332px;fill:#000000;font-weight:700;white-space:pre;" text-rendering="geometricPrecision" x="13.425504429133852">Region</text><text style="font-family:'docs-IBM Plex Sans';font-size:13.333333333333332px;fill:#000000;font-weight:700;white-space:pre;" text-rendering="geometricPrecision" x="59.50362942913385">1</text></g></g></g></g></g><rect style="opacity: 0;"></rect><rect style="opacity: 1;"></rect></g><g><path d="M 78402.2282875 171480.7858 L 99005.9939125 171480.7858 99005.9939125 177576.7858 78402.2282875 177576.7858 Z" pointer-events="visiblePainted" fill="#000000" stroke="#000000" opacity="0"></path></g><g transform="matrix(381,0,0,381,73287.1111,171480.7858)"></g></g></g></g></g><g id="editor-g2bacfcb283b_0_128"><g><g></g><g><path fill="#FFFFFF" fill-opacity="0.7547" stroke="#0075FF" stroke-opacity="1" stroke-width="762" stroke-linecap="butt" stroke-linejoin="round" stroke-miterlimit="8" stroke-dasharray="3048,2286" d="M 290621.53486 29635.9454 C 293464.6544692085 29635.9454 295769.4583 31940.749230791524 295769.4583 34783.868839999996 L 295769.4583 74864.02196 C 295769.4583 76229.3361447195 295227.08935191855 77538.73061498783 294261.66643345315 78504.15353345318 293296.2435149878 79469.57645191853 291986.84904471954 80011.9454 290621.53486 80011.9454 L 75137.38174000004 80011.9454 C 72294.26213079155 80011.9454 69989.4583 77707.14156920848 69989.4583 74864.02196 L 69989.4583 34783.86884 C 69989.4583 31940.749230791524 72294.26213079155 29635.9454 75137.38174000004 29635.9454 Z"></path></g><g><path fill="#000" fill-opacity="0" stroke="#000" stroke-opacity="0" stroke-width="14400" stroke-linecap="round" stroke-linejoin="round" stroke-miterlimit="10" pointer-events="visiblePainted" d="M 290621.53486 29635.9454 C 293464.6544692085 29635.9454 295769.4583 31940.749230791524 295769.4583 34783.868839999996 L 295769.4583 74864.02196 C 295769.4583 76229.3361447195 295227.08935191855 77538.73061498783 294261.66643345315 78504.15353345318 293296.2435149878 79469.57645191853 291986.84904471954 80011.9454 290621.53486 80011.9454 L 75137.38174000004 80011.9454 C 72294.26213079155 80011.9454 69989.4583 77707.14156920848 69989.4583 74864.02196 L 69989.4583 34783.86884 C 69989.4583 31940.749230791524 72294.26213079155 29635.9454 75137.38174000004 29635.9454 Z"></path></g></g></g><g id="editor-g2bacfcb283b_0_129"><g><g></g><g><path d="M 147343.5258 31355.0335 L 219427.5258 31355.0335 219427.5258 49739.033500000005 147343.5258 49739.033500000005 Z"></path></g><g><path fill="#000" fill-opacity="0" stroke="#000" stroke-opacity="0" stroke-width="14400" stroke-linecap="round" stroke-linejoin="round" stroke-miterlimit="10" pointer-events="visiblePainted" d="M 147343.5258 31355.0335 L 219427.5258 31355.0335 219427.5258 49739.033500000005 147343.5258 49739.033500000005 Z"></path></g><g><g direction="ltr" style="opacity: 1;"><g transform="matrix(381,0,0,381,151000.5258,35012.033500000005)"><g pointer-events="none"><g id="editor-g2bacfcb283b_0_129-paragraph-0"><g><g class="sketchy-text-background" visibility="visible"></g><g></g><g class="sketchy-text-content" visibility="visible"><g class="sketchy-text-content-text" transform="translate(0 12.799999999999999)"><text style="font-family:Arial;font-size:13.333333333333332px;fill:#0075FF;font-weight:700;white-space:pre;" text-rendering="geometricPrecision" x="15.7265625">Zeebe</text><text style="font-family:Arial;font-size:13.333333333333332px;fill:#0075FF;font-weight:700;white-space:pre;" text-rendering="geometricPrecision" x="57.9765625">Stretch-Cluster</text></g></g></g></g></g><rect style="opacity: 0;"></rect><rect style="opacity: 1;"></rect></g><g><path d="M 156992.3461125 35012.033500000005 L 209778.7054875 35012.033500000005 209778.7054875 41108.033500000005 156992.3461125 41108.033500000005 Z" pointer-events="visiblePainted" fill="#000000" stroke="#000000" opacity="0"></path></g><g transform="matrix(381,0,0,381,151000.5258,35012.033500000005)"></g></g></g></g></g><g id="editor-g2bacfcb283b_0_136"><g><g></g><g><path fill="#FFFFFF" fill-opacity="1" stroke="#26D07C" stroke-opacity="1" stroke-width="762" stroke-linecap="butt" stroke-linejoin="round" stroke-miterlimit="8" d="M 114105.0142 109111.12418 C 114105.0142 107418.88986250898 115476.84116250898 106047.0629 117169.07548 106047.0629 L 129424.95292000001 106047.0629 C 130237.59249733487 106047.0629 131016.94847326509 106369.88271514683 131591.57142905914 106944.50567094087 132166.19438485318 107519.12862673492 132489.0142 108298.48460266515 132489.0142 109111.12418 L 132489.0142 122543.00162 C 132489.0142 124235.23593749103 131117.18723749102 125607.0629 129424.95292000001 125607.0629 L 117169.07548 125607.0629 C 115476.84116250898 125607.0629 114105.0142 124235.23593749103 114105.0142 122543.00162 Z"></path></g><g><g direction="ltr" style="opacity: 1;"><g transform="matrix(380.99999999999994,0,0,380.99999999999994,118659.44710829921,113388.66290000001)"><g pointer-events="none"><g id="editor-g2bacfcb283b_0_136-paragraph-0"><g><g class="sketchy-text-background" visibility="visible"></g><g></g><g class="sketchy-text-content" visibility="visible"><g class="sketchy-text-content-text" transform="translate(0 10.239999999999998)"><text style="font-family:Arial;font-size:10.666666666666666px;fill:#000000;font-weight:700;white-space:pre;" text-rendering="geometricPrecision" x="5.054904604201564">ES</text></g></g></g></g></g><rect style="opacity: 0;"></rect><rect style="opacity: 1;"></rect></g><g><path d="M 120585.3657625 113388.66290000001 L 126008.6626375 113388.66290000001 126008.6626375 118265.46290000001 120585.3657625 118265.46290000001 Z" pointer-events="visiblePainted" fill="#000000" stroke="#000000" opacity="0"></path></g><g transform="matrix(380.99999999999994,0,0,380.99999999999994,118659.44710829921,113388.66290000001)"></g></g></g></g></g><g id="editor-g2bacfcb283b_0_137"><g><g></g><g><path fill="#FFFFFF" fill-opacity="1" stroke="#26D07C" stroke-opacity="1" stroke-width="762" stroke-linecap="butt" stroke-linejoin="round" stroke-miterlimit="8" d="M 231983.7204 109110.55798 C 231983.7204 107418.32366250898 233355.54736250898 106046.4967 235047.78168 106046.4967 L 247303.65912 106046.4967 C 248116.29869733486 106046.4967 248895.6546732651 106369.31651514683 249470.27762905913 106943.93947094087 250044.90058485317 107518.56242673492 250367.7204 108297.91840266515 250367.7204 109110.55798 L 250367.7204 122542.43542 C 250367.7204 124234.66973749103 248995.893437491 125606.4967 247303.65912 125606.4967 L 235047.78168 125606.4967 C 233355.54736250898 125606.4967 231983.7204 124234.66973749103 231983.7204 122542.43542 Z"></path></g><g><g direction="ltr" style="opacity: 1;"><g transform="matrix(380.99999999999994,0,0,380.99999999999994,236538.1533082992,113388.09670000001)"><g pointer-events="none"><g id="editor-g2bacfcb283b_0_137-paragraph-0"><g><g class="sketchy-text-background" visibility="visible"></g><g></g><g class="sketchy-text-content" visibility="visible"><g class="sketchy-text-content-text" transform="translate(0 10.239999999999998)"><text style="font-family:Arial;font-size:10.666666666666666px;fill:#000000;font-weight:700;white-space:pre;" text-rendering="geometricPrecision" x="5.054904604201564">ES</text></g></g></g></g></g><rect style="opacity: 0;"></rect><rect style="opacity: 1;"></rect></g><g><path d="M 238464.0719625 113388.09670000001 L 243887.3688375 113388.09670000001 243887.3688375 118264.89670000001 238464.0719625 118264.89670000001 Z" pointer-events="visiblePainted" fill="#000000" stroke="#000000" opacity="0"></path></g><g transform="matrix(380.99999999999994,0,0,380.99999999999994,236538.1533082992,113388.09670000001)"></g></g></g></g></g><g id="editor-g2bacfcb283b_0_160"><g></g><g id="editor-g2bacfcb283b_0_135"><g><g><path fill="#FFFFFF" fill-opacity="1" stroke="#0075FF" stroke-opacity="1" stroke-width="762" stroke-linecap="butt" stroke-linejoin="round" stroke-miterlimit="8" d="M 247427.59747635 47842.114309250006 C 249120.13279504958 47842.114309250006 250492.20376725 49214.185281450424 250492.20376725 50906.72060015001 L 250492.20376725 63164.77801835001 C 250492.20376725 63977.56214156269 250169.3265314768 64757.0567431479 249594.60136631233 65331.781908312354 249019.87620114788 65906.5070734768 248240.38159956268 66229.38430925002 247427.59747635 66229.38430925002 L 234000.80005815 66229.38430925 C 232308.26473945042 66229.38430925 230936.19376725 64857.31333704959 230936.19376725 63164.77801835001 L 230936.19376725 50906.72060015001 C 230936.19376725 49214.185281450424 232308.26473945042 47842.114309250006 234000.80005815 47842.114309250006 Z"></path></g><g><path fill="#000" fill-opacity="0" stroke="#000" stroke-opacity="0" stroke-width="14400" stroke-linecap="round" stroke-linejoin="round" stroke-miterlimit="10" pointer-events="visiblePainted" d="M 247427.59747635 47842.114309250006 C 249120.13279504958 47842.114309250006 250492.20376725 49214.185281450424 250492.20376725 50906.72060015001 L 250492.20376725 63164.77801835001 C 250492.20376725 63977.56214156269 250169.3265314768 64757.0567431479 249594.60136631233 65331.781908312354 249019.87620114788 65906.5070734768 248240.38159956268 66229.38430925002 247427.59747635 66229.38430925002 L 234000.80005815 66229.38430925 C 232308.26473945042 66229.38430925 230936.19376725 64857.31333704959 230936.19376725 63164.77801835001 L 230936.19376725 50906.72060015001 C 230936.19376725 49214.185281450424 232308.26473945042 47842.114309250006 234000.80005815 47842.114309250006 Z"></path></g></g></g><g id="editor-g2bacfcb283b_0_138"><g><g><path fill="#FFFFFF" fill-opacity="1" stroke="#0075FF" stroke-opacity="1" stroke-width="762" stroke-linecap="butt" stroke-linejoin="round" stroke-miterlimit="8" d="M 250940.61247635 45057.29680925 C 252633.1477950496 45057.29680925 254005.21876725001 46429.36778145042 254005.21876725001 48121.903100150004 L 254005.21876725001 60379.96051835 C 254005.21876725001 61192.744641562684 253682.34153147682 61972.239243147895 253107.61636631234 62546.96440831235 252532.8912011479 63121.6895734768 251753.3965995627 63444.566809250005 250940.61247635 63444.566809250005 L 237513.81505815 63444.56680925 C 235821.27973945043 63444.56680925 234449.20876725 62072.49583704959 234449.20876725 60379.96051835 L 234449.20876725 48121.903100150004 C 234449.20876725 46429.36778145042 235821.27973945043 45057.29680925 237513.81505815 45057.29680925 Z"></path></g><g><path fill="#000" fill-opacity="0" stroke="#000" stroke-opacity="0" stroke-width="14400" stroke-linecap="round" stroke-linejoin="round" stroke-miterlimit="10" pointer-events="visiblePainted" d="M 250940.61247635 45057.29680925 C 252633.1477950496 45057.29680925 254005.21876725001 46429.36778145042 254005.21876725001 48121.903100150004 L 254005.21876725001 60379.96051835 C 254005.21876725001 61192.744641562684 253682.34153147682 61972.239243147895 253107.61636631234 62546.96440831235 252532.8912011479 63121.6895734768 251753.3965995627 63444.566809250005 250940.61247635 63444.566809250005 L 237513.81505815 63444.56680925 C 235821.27973945043 63444.56680925 234449.20876725 62072.49583704959 234449.20876725 60379.96051835 L 234449.20876725 48121.903100150004 C 234449.20876725 46429.36778145042 235821.27973945043 45057.29680925 237513.81505815 45057.29680925 Z"></path></g></g></g></g><g id="editor-g2bacfcb283b_0_161"><g></g><g id="editor-g2bacfcb283b_0_140"><g><g><path fill="#FFFFFF" fill-opacity="1" stroke="#0075FF" stroke-opacity="1" stroke-width="762" stroke-linecap="butt" stroke-linejoin="round" stroke-miterlimit="8" d="M 130014.52747634999 47842.15225925001 C 131707.06279504957 47842.15225925001 133079.13376725 49214.22323145043 133079.13376725 50906.758550150014 L 133079.13376725 63164.81596835001 C 133079.13376725 63977.600091562694 132756.2565314768 64757.09469314791 132181.53136631232 65331.81985831236 131606.80620114788 65906.5450234768 130827.31159956267 66229.42225925002 130014.52747634999 66229.42225925002 L 116587.73005814999 66229.42225925002 C 114895.19473945041 66229.42225925002 113523.12376725 64857.35128704959 113523.12376725 63164.81596835001 L 113523.12376724998 50906.758550150014 C 113523.12376725 49214.22323145043 114895.19473945041 47842.15225925001 116587.73005814999 47842.15225925001 Z"></path></g><g><path fill="#000" fill-opacity="0" stroke="#000" stroke-opacity="0" stroke-width="14400" stroke-linecap="round" stroke-linejoin="round" stroke-miterlimit="10" pointer-events="visiblePainted" d="M 130014.52747634999 47842.15225925001 C 131707.06279504957 47842.15225925001 133079.13376725 49214.22323145043 133079.13376725 50906.758550150014 L 133079.13376725 63164.81596835001 C 133079.13376725 63977.600091562694 132756.2565314768 64757.09469314791 132181.53136631232 65331.81985831236 131606.80620114788 65906.5450234768 130827.31159956267 66229.42225925002 130014.52747634999 66229.42225925002 L 116587.73005814999 66229.42225925002 C 114895.19473945041 66229.42225925002 113523.12376725 64857.35128704959 113523.12376725 63164.81596835001 L 113523.12376724998 50906.758550150014 C 113523.12376725 49214.22323145043 114895.19473945041 47842.15225925001 116587.73005814999 47842.15225925001 Z"></path></g></g></g><g id="editor-g2bacfcb283b_0_141"><g><g><path fill="#FFFFFF" fill-opacity="1" stroke="#0075FF" stroke-opacity="1" stroke-width="762" stroke-linecap="butt" stroke-linejoin="round" stroke-miterlimit="8" d="M 133527.54247635 45057.33475925001 C 135220.07779504958 45057.33475925001 136592.14876725 46429.405731450424 136592.14876725 48121.94105015001 L 136592.14876725 60379.99846835001 C 136592.14876725 61192.78259156269 136269.2715314768 61972.27719314791 135694.54636631234 62547.002358312355 135119.8212011479 63121.7275234768 134340.3265995627 63444.60475925001 133527.54247635 63444.60475925001 L 120100.74505815 63444.60475925001 C 118408.20973945042 63444.60475925001 117036.13876725001 62072.533787049586 117036.13876725001 60379.99846835001 L 117036.13876725 48121.94105015001 C 117036.13876725001 46429.405731450424 118408.20973945042 45057.33475925001 120100.74505815 45057.33475925001 Z"></path></g><g><path fill="#000" fill-opacity="0" stroke="#000" stroke-opacity="0" stroke-width="14400" stroke-linecap="round" stroke-linejoin="round" stroke-miterlimit="10" pointer-events="visiblePainted" d="M 133527.54247635 45057.33475925001 C 135220.07779504958 45057.33475925001 136592.14876725 46429.405731450424 136592.14876725 48121.94105015001 L 136592.14876725 60379.99846835001 C 136592.14876725 61192.78259156269 136269.2715314768 61972.27719314791 135694.54636631234 62547.002358312355 135119.8212011479 63121.7275234768 134340.3265995627 63444.60475925001 133527.54247635 63444.60475925001 L 120100.74505815 63444.60475925001 C 118408.20973945042 63444.60475925001 117036.13876725001 62072.533787049586 117036.13876725001 60379.99846835001 L 117036.13876725 48121.94105015001 C 117036.13876725001 46429.405731450424 118408.20973945042 45057.33475925001 120100.74505815 45057.33475925001 Z"></path></g></g></g></g><g id="editor-g2bacfcb283b_0_142"><g><g></g><g><path stroke="#434343" stroke-opacity="1" stroke-width="381" stroke-linecap="butt" stroke-linejoin="round" stroke-miterlimit="8" d="M 123301.1288 66229.4223 L 123301.1288 102521.1723"></path><path fill="#434343" fill-opacity="1" stroke="#434343" stroke-opacity="1" stroke-width="381" stroke-linecap="butt" stroke-linejoin="miter" stroke-miterlimit="10" d="M 122221.05618596492 102521.1723 L 123301.1288 105488.40475614036 124381.2014140351 102521.1723 Z"></path></g><g><path stroke="#000" stroke-opacity="0" stroke-width="14400" stroke-linecap="round" stroke-linejoin="round" stroke-miterlimit="10" pointer-events="visiblePainted" d="M 123301.1288 66229.4223 L 123301.1288 102521.1723"></path></g></g></g><g id="editor-g2bacfcb283b_0_143"><g><g></g><g><path stroke="#434343" stroke-opacity="1" stroke-width="381" stroke-linecap="butt" stroke-linejoin="round" stroke-miterlimit="8" d="M 240714.1988 66229.3843 L 241129.8393310342 102521.36540451081"></path><path fill="#434343" fill-opacity="1" stroke="#434343" stroke-opacity="1" stroke-width="381" stroke-linecap="butt" stroke-linejoin="miter" stroke-miterlimit="10" d="M 240049.83754331764 102533.73432191082 L 241163.8198733419 105488.40328285297 242209.84111875074 102508.99648711081 Z"></path></g><g><path stroke="#000" stroke-opacity="0" stroke-width="14400" stroke-linecap="round" stroke-linejoin="round" stroke-miterlimit="10" pointer-events="visiblePainted" d="M 240714.1988 66229.3843 L 241129.8393310342 102521.36540451081"></path></g></g></g><g id="editor-g2bacfcb283b_0_144"><g><g></g><g><path stroke="#434343" stroke-opacity="1" stroke-width="381" stroke-linecap="butt" stroke-linejoin="round" stroke-miterlimit="8" d="M 123301.1288 66229.4223 L 237838.21116996402 104917.60710133775"></path><path fill="#434343" fill-opacity="1" stroke="#434343" stroke-opacity="1" stroke-width="381" stroke-linecap="butt" stroke-linejoin="miter" stroke-miterlimit="10" d="M 237492.57101680586 105940.88112920779 L 240649.40355422237 105867.16796166242 238183.8513231222 103894.33307346771 Z"></path></g><g><path stroke="#000" stroke-opacity="0" stroke-width="14400" stroke-linecap="round" stroke-linejoin="round" stroke-miterlimit="10" pointer-events="visiblePainted" d="M 123301.1288 66229.4223 L 237838.21116996402 104917.60710133775"></path></g></g></g><g id="editor-g2bacfcb283b_0_145"><g><g></g><g><path stroke="#434343" stroke-opacity="1" stroke-width="381" stroke-linecap="butt" stroke-linejoin="round" stroke-miterlimit="8" d="M 240714.1988 66229.3843 L 126631.78672926346 104913.64012531465"></path><path fill="#434343" fill-opacity="1" stroke="#434343" stroke-opacity="1" stroke-width="381" stroke-linecap="butt" stroke-linejoin="miter" stroke-miterlimit="10" d="M 126284.94246759887 103890.77360922424 L 123821.71388286124 105866.50897604154 126978.63099092805 105936.50664140505 Z"></path></g><g><path stroke="#000" stroke-opacity="0" stroke-width="14400" stroke-linecap="round" stroke-linejoin="round" stroke-miterlimit="10" pointer-events="visiblePainted" d="M 240714.1988 66229.3843 L 126631.78672926346 104913.64012531465"></path></g></g></g><g id="editor-g2bacfcb283b_0_146"><g><g></g><g><path d="M 112060.3247 106044.7665 L 112060.3247 70836.7665 123760.3247 70836.7665 123760.3247 106044.7665 Z"></path></g><g><path fill="#000" fill-opacity="0" stroke="#000" stroke-opacity="0" stroke-width="14400" stroke-linecap="round" stroke-linejoin="round" stroke-miterlimit="10" pointer-events="visiblePainted" d="M 112060.3247 106044.7665 L 112060.3247 70836.7665 123760.3247 70836.7665 123760.3247 106044.7665 Z"></path></g><g><g direction="ltr" style="opacity: 1;"><g transform="matrix(0,-381,381,0,115717.3247,102387.7665)"><g pointer-events="none"><g id="editor-g2bacfcb283b_0_146-paragraph-0"><g><g class="sketchy-text-background" visibility="visible"></g><g><g><g><path d="M 0 9.699999999999998 L 0 9.699999999999998 2 11.699999999999998 4 9.699999999999998 6 11.699999999999998 8 9.699999999999998 10 11.699999999999998 12 9.699999999999998 14 11.699999999999998 16 9.699999999999998 18 11.699999999999998 20 9.699999999999998 22 11.699999999999998 24 9.699999999999998 26 11.699999999999998 28 9.699999999999998 30 11.699999999999998 32 9.699999999999998 34 11.699999999999998 36 9.699999999999998 38 11.699999999999998 40 9.699999999999998 42 11.699999999999998" class="sketchy-text-spelling-error-highlight-overlay"></path><path d="M 0 10.199999999999998 L 0 10.199999999999998 2 12.199999999999998 4 10.199999999999998 6 12.199999999999998 8 10.199999999999998 10 12.199999999999998 12 10.199999999999998 14 12.199999999999998 16 10.199999999999998 18 12.199999999999998 20 10.199999999999998 22 12.199999999999998 24 10.199999999999998 26 12.199999999999998 28 10.199999999999998 30 12.199999999999998 32 10.199999999999998 34 12.199999999999998 36 10.199999999999998 38 12.199999999999998 40 10.199999999999998 42 12.199999999999998" class="sketchy-text-spelling-error-underline-overlay"></path></g></g></g><g class="sketchy-text-content" visibility="visible"><g class="sketchy-text-content-text" transform="translate(0 8.959999999999999)"><text style="font-family:'docs-IBM Plex Sans';font-size:9.333333333333332px;fill:#000000;font-weight:700;white-space:pre;" text-rendering="geometricPrecision">Exporter1</text></g></g></g></g></g><rect style="opacity: 0;"></rect><rect style="opacity: 1;"></rect></g><g><path d="M 115717.3247 102387.7665 L 115717.3247 85707.11025 119984.5247 85707.11025 119984.5247 102387.7665 Z" pointer-events="visiblePainted" fill="#000000" stroke="#000000" opacity="0"></path></g><g transform="matrix(0,-381,381,0,115717.3247,102387.7665)"></g></g></g></g></g><g id="editor-g2bacfcb283b_0_147"><g><g></g><g><path d="M 191799.9466 67428.9561 L 225255.9466 56484.956099999996 228903.9466 67596.9561 195447.9466 78540.9561 Z"></path></g><g><path fill="#000" fill-opacity="0" stroke="#000" stroke-opacity="0" stroke-width="14400" stroke-linecap="round" stroke-linejoin="round" stroke-miterlimit="10" pointer-events="visiblePainted" d="M 191799.9466 67428.9561 L 225255.9466 56484.956099999996 228903.9466 67596.9561 195447.9466 78540.9561 Z"></path></g><g><g direction="ltr" style="opacity: 1;"><g transform="matrix(362.1180568364951,-118.45468717176598,118.8397391256337,361.9921000997921,196416.3840273845,69766.53174062412)"><g pointer-events="none"><g id="editor-g2bacfcb283b_0_147-paragraph-0"><g><g class="sketchy-text-background" visibility="visible"></g><g><g><g><path d="M 0 9.699999999999998 L 0 9.699999999999998 2 11.699999999999998 4 9.699999999999998 6 11.699999999999998 8 9.699999999999998 10 11.699999999999998 12 9.699999999999998 14 11.699999999999998 16 9.699999999999998 18 11.699999999999998 20 9.699999999999998 22 11.699999999999998 24 9.699999999999998 26 11.699999999999998 28 9.699999999999998 30 11.699999999999998 32 9.699999999999998 34 11.699999999999998 36 9.699999999999998 38 11.699999999999998 40 9.699999999999998 42 11.699999999999998" class="sketchy-text-spelling-error-highlight-overlay"></path><path d="M 0 10.199999999999998 L 0 10.199999999999998 2 12.199999999999998 4 10.199999999999998 6 12.199999999999998 8 10.199999999999998 10 12.199999999999998 12 10.199999999999998 14 12.199999999999998 16 10.199999999999998 18 12.199999999999998 20 10.199999999999998 22 12.199999999999998 24 10.199999999999998 26 12.199999999999998 28 10.199999999999998 30 12.199999999999998 32 10.199999999999998 34 12.199999999999998 36 10.199999999999998 38 12.199999999999998 40 10.199999999999998 42 12.199999999999998" class="sketchy-text-spelling-error-underline-overlay"></path></g></g></g><g class="sketchy-text-content" visibility="visible"><g class="sketchy-text-content-text" transform="translate(0 8.959999999999999)"><text style="font-family:'docs-IBM Plex Sans';font-size:9.333333333333332px;fill:#000000;font-weight:700;white-space:pre;" text-rendering="geometricPrecision">Exporter1</text></g></g></g></g></g><rect style="opacity: 0;"></rect><rect style="opacity: 1;"></rect></g><g><path d="M 196416.3840273845 69766.53174062412 L 212270.3652032573 64580.43746788525 213601.37028146442 68634.74898900291 197747.3891055916 73820.8432617418 Z" pointer-events="visiblePainted" fill="#000000" stroke="#000000" opacity="0"></path></g><g transform="matrix(362.1180568364951,-118.45468717176598,118.8397391256337,361.9921000997921,196416.3840273845,69766.53174062412)"></g></g></g></g></g><g id="editor-g2bacfcb283b_0_148"><g><g></g><g><path d="M 139600.3858 58678.0959 L 173068.3858 69574.0959 169456.3858 80698.0959 135988.3858 69802.0959 Z"></path></g><g><path fill="#000" fill-opacity="0" stroke="#000" stroke-opacity="0" stroke-width="14400" stroke-linecap="round" stroke-linejoin="round" stroke-miterlimit="10" pointer-events="visiblePainted" d="M 139600.3858 58678.0959 L 173068.3858 69574.0959 169456.3858 80698.0959 135988.3858 69802.0959 Z"></path></g><g><g direction="ltr" style="opacity: 1;"><g transform="matrix(362.2837939012952,117.9468213920316,-117.66459418927546,362.3756771211241,141948.34489014922,63288.43547234281)"><g pointer-events="none"><g id="editor-g2bacfcb283b_0_148-paragraph-0"><g><g class="sketchy-text-background" visibility="visible"></g><g></g><g class="sketchy-text-content" visibility="visible"><g class="sketchy-text-content-text" transform="translate(0 8.959999999999999)"><text style="font-family:'docs-IBM Plex Sans';font-size:9.333333333333332px;fill:#000000;font-weight:700;white-space:pre;" text-rendering="geometricPrecision">Exporter2</text></g></g></g></g></g><rect style="opacity: 0;"></rect><rect style="opacity: 1;"></rect></g><g><path d="M 141948.34489014922 63288.43547234281 L 157809.5822418903 68452.29474641269 156491.7387869704 72510.90233016928 140630.50143522935 67347.0430560994 Z" pointer-events="visiblePainted" fill="#000000" stroke="#000000" opacity="0"></path></g><g transform="matrix(362.2837939012952,117.9468213920316,-117.66459418927546,362.3756771211241,141948.34489014922,63288.43547234281)"></g></g></g></g></g><g id="editor-g2bacfcb283b_0_149"><g><g></g><g><path d="M 250846.675 77736.437 L 250846.675 112944.437 239146.675 112944.437 239146.675 77736.437 Z"></path></g><g><path fill="#000" fill-opacity="0" stroke="#000" stroke-opacity="0" stroke-width="14400" stroke-linecap="round" stroke-linejoin="round" stroke-miterlimit="10" pointer-events="visiblePainted" d="M 250846.675 77736.437 L 250846.675 112944.437 239146.675 112944.437 239146.675 77736.437 Z"></path></g><g><g direction="ltr" style="opacity: 1;"><g transform="matrix(0,381,-381,0,247189.675,81393.437)"><g pointer-events="none"><g id="editor-g2bacfcb283b_0_149-paragraph-0"><g><g class="sketchy-text-background" visibility="visible"></g><g></g><g class="sketchy-text-content" visibility="visible"><g class="sketchy-text-content-text" transform="translate(0 8.959999999999999)"><text style="font-family:'docs-IBM Plex Sans';font-size:9.333333333333332px;fill:#000000;font-weight:700;white-space:pre;" text-rendering="geometricPrecision">Exporter2</text></g></g></g></g></g><rect style="opacity: 0;"></rect><rect style="opacity: 1;"></rect></g><g><path d="M 247189.675 81393.437 L 247189.675 98074.09325 242922.47499999998 98074.09325 242922.47499999998 81393.437 Z" pointer-events="visiblePainted" fill="#000000" stroke="#000000" opacity="0"></path></g><g transform="matrix(0,381,-381,0,247189.675,81393.437)"></g></g></g></g></g><g id="editor-g2bacfcb283b_0_152"><g></g><g id="editor-g2bacfcb283b_0_150"><g><g><path fill="#FFFFFF" fill-opacity="1" stroke="#FC5D0D" stroke-opacity="1" stroke-width="762" stroke-linecap="butt" stroke-linejoin="round" stroke-miterlimit="8" d="M 91303.72644775 140859.1150744 C 91303.72644775 139166.57975570043 92675.79741995041 137794.5087835 94368.33273865 137794.5087835 L 106626.39015685 137794.5087835 C 107439.17428006268 137794.5087835 108218.6688816479 138117.3860192732 108793.39404681235 138692.11118443767 109368.1192119768 139266.83634960212 109690.99644775 140046.33095118732 109690.99644775 140859.1150744 L 109690.99644775 154285.9124926 C 109690.99644775 155978.4478112996 108318.92547554958 157350.5187835 106626.39015685 157350.5187835 L 94368.33273865 157350.5187835 C 92675.79741995042 157350.5187835 91303.72644775 155978.4478112996 91303.72644775 154285.9124926 Z"></path></g></g></g><g id="editor-g2bacfcb283b_0_151"><g><g><path d="M 86859.7798 153883.9048 L 114134.9098 153883.9048 114134.9098 166196.4448 86859.7798 166196.4448 Z"></path></g><g><path fill="#000" fill-opacity="0" stroke="#000" stroke-opacity="0" stroke-width="14400" stroke-linecap="round" stroke-linejoin="round" stroke-miterlimit="10" pointer-events="visiblePainted" d="M 86859.7798 153883.9048 L 114134.9098 153883.9048 114134.9098 166196.4448 86859.7798 166196.4448 Z"></path></g><g><g direction="ltr" style="opacity: 1;"><g transform="matrix(381,0,0,381,90516.7798,157540.9048)"><g pointer-events="none"><g id="editor-g2bacfcb283b_0_151-paragraph-0"><g><g class="sketchy-text-background" visibility="visible"></g><g></g><g class="sketchy-text-content" visibility="visible"><g class="sketchy-text-content-text" transform="translate(0 10.239999999999998)"><text style="font-family:'docs-IBM Plex Sans';font-size:10.666666666666666px;fill:#000000;font-weight:700;white-space:pre;" text-rendering="geometricPrecision">Operate</text></g></g></g></g></g><rect style="opacity: 0;"></rect><rect style="opacity: 1;"></rect></g><g><path d="M 90516.7798 157540.9048 L 105863.93605 157540.9048 105863.93605 162417.70479999998 90516.7798 162417.70479999998 Z" pointer-events="visiblePainted" fill="#000000" stroke="#000000" opacity="0"></path></g><g transform="matrix(381,0,0,381,90516.7798,157540.9048)"></g></g></g></g></g></g><g id="editor-g2bacfcb283b_0_155"><g></g><g id="editor-g2bacfcb283b_0_153"><g><g><path fill="#FFFFFF" fill-opacity="1" stroke="#FC5D0D" stroke-opacity="1" stroke-width="762" stroke-linecap="butt" stroke-linejoin="round" stroke-miterlimit="8" d="M 136924.11064775 140859.1150744 C 136924.11064775 139166.57975570043 138296.18161995042 137794.5087835 139988.71693865 137794.5087835 L 152246.77435685002 137794.5087835 C 153059.5584800627 137794.5087835 153839.0530816479 138117.3860192732 154413.77824681235 138692.11118443767 154988.5034119768 139266.83634960212 155311.38064775 140046.33095118732 155311.38064775 140859.1150744 L 155311.38064775 154285.9124926 C 155311.38064775 155978.4478112996 153939.3096755496 157350.5187835 152246.77435685002 157350.5187835 L 139988.71693865 157350.5187835 C 138296.18161995042 157350.5187835 136924.11064775 155978.4478112996 136924.11064775 154285.9124926 Z"></path></g></g></g><g id="editor-g2bacfcb283b_0_154"><g><g><path d="M 132480.164 153883.9048 L 159755.294 153883.9048 159755.294 166196.4448 132480.164 166196.4448 Z"></path></g><g><path fill="#000" fill-opacity="0" stroke="#000" stroke-opacity="0" stroke-width="14400" stroke-linecap="round" stroke-linejoin="round" stroke-miterlimit="10" pointer-events="visiblePainted" d="M 132480.164 153883.9048 L 159755.294 153883.9048 159755.294 166196.4448 132480.164 166196.4448 Z"></path></g><g><g direction="ltr" style="opacity: 1;"><g transform="matrix(381,0,0,381,136137.164,157540.9048)"><g pointer-events="none"><g id="editor-g2bacfcb283b_0_154-paragraph-0"><g><g class="sketchy-text-background" visibility="visible"></g><g></g><g class="sketchy-text-content" visibility="visible"><g class="sketchy-text-content-text" transform="translate(0 10.239999999999998)"><text style="font-family:'docs-IBM Plex Sans';font-size:10.666666666666666px;fill:#000000;font-weight:700;white-space:pre;" text-rendering="geometricPrecision">Tasklist</text></g></g></g></g></g><rect style="opacity: 0;"></rect><rect style="opacity: 1;"></rect></g><g><path d="M 136137.164 157540.9048 L 150889.00775 157540.9048 150889.00775 162417.70479999998 136137.164 162417.70479999998 Z" pointer-events="visiblePainted" fill="#000000" stroke="#000000" opacity="0"></path></g><g transform="matrix(381,0,0,381,136137.164,157540.9048)"></g></g></g></g></g></g><g id="editor-g2bacfcb283b_0_156"><g><g></g><g><path stroke="#000000" stroke-opacity="1" stroke-width="508" stroke-linecap="butt" stroke-linejoin="round" stroke-miterlimit="8" d="M 146117.7456 137794.5088 L 126346.28164992227 127233.09588029498"></path><path fill="#000000" fill-opacity="1" stroke="#000000" stroke-opacity="1" stroke-width="508" stroke-linecap="butt" stroke-linejoin="miter" stroke-miterlimit="10" d="M 126812.44076756331 126360.42398880553 L 123948.83139857765 125952.43896369869 125880.12253228122 128105.76777178442 Z"></path></g><g><path stroke="#000" stroke-opacity="0" stroke-width="14400" stroke-linecap="round" stroke-linejoin="round" stroke-miterlimit="10" pointer-events="visiblePainted" d="M 146117.7456 137794.5088 L 126346.28164992227 127233.09588029498"></path></g></g></g><g id="editor-g2bacfcb283b_0_157"><g><g></g><g><path stroke="#000000" stroke-opacity="1" stroke-width="508" stroke-linecap="butt" stroke-linejoin="round" stroke-miterlimit="8" d="M 100497.3614 137794.5088 L 120245.5387958591 127234.43078200378"></path><path fill="#000000" fill-opacity="1" stroke="#000000" stroke-opacity="1" stroke-width="508" stroke-linecap="butt" stroke-linejoin="miter" stroke-miterlimit="10" d="M 120712.07954083577 128106.89871060188 L 122642.42870959014 125952.72543866129 119778.99805088244 126361.96285340568 Z"></path></g><g><path stroke="#000" stroke-opacity="0" stroke-width="14400" stroke-linecap="round" stroke-linejoin="round" stroke-miterlimit="10" pointer-events="visiblePainted" d="M 100497.3614 137794.5088 L 120245.5387958591 127234.43078200378"></path></g></g></g><g id="editor-g2bacfcb283b_0_158"><g><g></g><g><path d="M 114145.7665 33151.6957 L 141421.7665 33151.6957 141421.7665 45463.6957 114145.7665 45463.6957 Z"></path></g><g><path fill="#000" fill-opacity="0" stroke="#000" stroke-opacity="0" stroke-width="14400" stroke-linecap="round" stroke-linejoin="round" stroke-miterlimit="10" pointer-events="visiblePainted" d="M 114145.7665 33151.6957 L 141421.7665 33151.6957 141421.7665 45463.6957 114145.7665 45463.6957 Z"></path></g><g><g direction="ltr" style="opacity: 1;"><g transform="matrix(380.99999999999994,0,0,381,117802.7665,36808.6957)"><g pointer-events="none"><g id="editor-g2bacfcb283b_0_158-paragraph-0"><g><g class="sketchy-text-background" visibility="visible"></g><g></g><g class="sketchy-text-content" visibility="visible"><g class="sketchy-text-content-text" transform="translate(0 10.239999999999998)"><text style="font-family:'docs-IBM Plex Sans';font-size:10.666666666666666px;fill:#000000;font-weight:700;white-space:pre;" text-rendering="geometricPrecision">Broker</text></g></g></g></g></g><rect style="opacity: 0;"></rect><rect style="opacity: 1;"></rect></g><g><path d="M 117802.7665 36808.6957 L 130584.125875 36808.6957 130584.125875 41685.4957 117802.7665 41685.4957 Z" pointer-events="visiblePainted" fill="#000000" stroke="#000000" opacity="0"></path></g><g transform="matrix(380.99999999999994,0,0,381,117802.7665,36808.6957)"></g></g></g></g></g><g id="editor-g2bacfcb283b_0_159"><g><g></g><g><path d="M 233689.2022 33151.6957 L 260965.2022 33151.6957 260965.2022 45463.6957 233689.2022 45463.6957 Z"></path></g><g><path fill="#000" fill-opacity="0" stroke="#000" stroke-opacity="0" stroke-width="14400" stroke-linecap="round" stroke-linejoin="round" stroke-miterlimit="10" pointer-events="visiblePainted" d="M 233689.2022 33151.6957 L 260965.2022 33151.6957 260965.2022 45463.6957 233689.2022 45463.6957 Z"></path></g><g><g direction="ltr" style="opacity: 1;"><g transform="matrix(380.99999999999994,0,0,381,237346.2022,36808.6957)"><g pointer-events="none"><g id="editor-g2bacfcb283b_0_159-paragraph-0"><g><g class="sketchy-text-background" visibility="visible"></g><g></g><g class="sketchy-text-content" visibility="visible"><g class="sketchy-text-content-text" transform="translate(0 10.239999999999998)"><text style="font-family:'docs-IBM Plex Sans';font-size:10.666666666666666px;fill:#000000;font-weight:700;white-space:pre;" text-rendering="geometricPrecision">Broker</text></g></g></g></g></g><rect style="opacity: 0;"></rect><rect style="opacity: 1;"></rect></g><g><path d="M 237346.2022 36808.6957 L 250127.561575 36808.6957 250127.561575 41685.4957 237346.2022 41685.4957 Z" pointer-events="visiblePainted" fill="#000000" stroke="#000000" opacity="0"></path></g><g transform="matrix(380.99999999999994,0,0,381,237346.2022,36808.6957)"></g></g></g></g></g><g id="editor-g2bacfcb283b_0_186"><g></g><g id="editor-g2bacfcb283b_0_184"><g><g><path fill="#FFFFFF" fill-opacity="1" stroke="#FC5D0D" stroke-opacity="1" stroke-width="762" stroke-linecap="butt" stroke-linejoin="round" stroke-miterlimit="8" d="M 208693.20594775002 140861.38007440002 C 208693.20594775002 139168.84475570044 210065.27691995044 137796.77378350002 211757.81223865002 137796.77378350002 L 224015.86965685 137796.77378350002 C 224828.6537800627 137796.77378350002 225608.14838164792 138119.6510192732 226182.87354681236 138694.3761844377 226757.5987119768 139269.10134960213 227080.47594775003 140048.59595118734 227080.47594775003 140861.38007440002 L 227080.47594775 154288.17749260002 C 227080.47594775 155980.7128112996 225708.4049755496 157352.78378350002 224015.86965685 157352.78378350002 L 211757.81223865002 157352.78378350002 C 210065.27691995044 157352.78378350002 208693.20594775002 155980.7128112996 208693.20594775002 154288.17749260002 Z"></path></g></g></g><g id="editor-g2bacfcb283b_0_185"><g><g><path d="M 204249.2593 153886.1698 L 231524.3893 153886.1698 231524.3893 166198.7098 204249.2593 166198.7098 Z"></path></g><g><path fill="#000" fill-opacity="0" stroke="#000" stroke-opacity="0" stroke-width="14400" stroke-linecap="round" stroke-linejoin="round" stroke-miterlimit="10" pointer-events="visiblePainted" d="M 204249.2593 153886.1698 L 231524.3893 153886.1698 231524.3893 166198.7098 204249.2593 166198.7098 Z"></path></g><g><g direction="ltr" style="opacity: 1;"><g transform="matrix(381,0,0,381,207906.2593,157543.1698)"><g pointer-events="none"><g id="editor-g2bacfcb283b_0_185-paragraph-0"><g><g class="sketchy-text-background" visibility="visible"></g><g></g><g class="sketchy-text-content" visibility="visible"><g class="sketchy-text-content-text" transform="translate(0 10.239999999999998)"><text style="font-family:'docs-IBM Plex Sans';font-size:10.666666666666666px;fill:#000000;font-weight:700;white-space:pre;" text-rendering="geometricPrecision">Operate</text></g></g></g></g></g><rect style="opacity: 0;"></rect><rect style="opacity: 1;"></rect></g><g><path d="M 207906.2593 157543.1698 L 223253.41555 157543.1698 223253.41555 162419.9698 207906.2593 162419.9698 Z" pointer-events="visiblePainted" fill="#000000" stroke="#000000" opacity="0"></path></g><g transform="matrix(381,0,0,381,207906.2593,157543.1698)"></g></g></g></g></g></g><g id="editor-g2bacfcb283b_0_189"><g></g><g id="editor-g2bacfcb283b_0_187"><g><g><path fill="#FFFFFF" fill-opacity="1" stroke="#FC5D0D" stroke-opacity="1" stroke-width="762" stroke-linecap="butt" stroke-linejoin="round" stroke-miterlimit="8" d="M 254313.59024775002 140861.38007440002 C 254313.59024775002 139168.84475570044 255685.66121995045 137796.77378350002 257378.19653865002 137796.77378350002 L 269636.25395685004 137796.77378350002 C 270449.0380800627 137796.77378350002 271228.5326816479 138119.6510192732 271803.25784681237 138694.3761844377 272377.9830119768 139269.10134960213 272700.86024775 140048.59595118734 272700.86024775 140861.38007440002 L 272700.86024775 154288.17749260002 C 272700.86024775 155980.7128112996 271328.7892755496 157352.78378350002 269636.25395685004 157352.78378350002 L 257378.19653865002 157352.78378350002 C 255685.66121995045 157352.78378350002 254313.59024775002 155980.7128112996 254313.59024775002 154288.17749260002 Z"></path></g></g></g><g id="editor-g2bacfcb283b_0_188"><g><g><path d="M 249869.6436 153886.1698 L 277144.7736 153886.1698 277144.7736 166198.7098 249869.6436 166198.7098 Z"></path></g><g><path fill="#000" fill-opacity="0" stroke="#000" stroke-opacity="0" stroke-width="14400" stroke-linecap="round" stroke-linejoin="round" stroke-miterlimit="10" pointer-events="visiblePainted" d="M 249869.6436 153886.1698 L 277144.7736 153886.1698 277144.7736 166198.7098 249869.6436 166198.7098 Z"></path></g><g><g direction="ltr" style="opacity: 1;"><g transform="matrix(381,0,0,381,253526.6436,157543.1698)"><g pointer-events="none"><g id="editor-g2bacfcb283b_0_188-paragraph-0"><g><g class="sketchy-text-background" visibility="visible"></g><g></g><g class="sketchy-text-content" visibility="visible"><g class="sketchy-text-content-text" transform="translate(0 10.239999999999998)"><text style="font-family:'docs-IBM Plex Sans';font-size:10.666666666666666px;fill:#000000;font-weight:700;white-space:pre;" text-rendering="geometricPrecision">Tasklist</text></g></g></g></g></g><rect style="opacity: 0;"></rect><rect style="opacity: 1;"></rect></g><g><path d="M 253526.6436 157543.1698 L 268278.48735 157543.1698 268278.48735 162419.9698 253526.6436 162419.9698 Z" pointer-events="visiblePainted" fill="#000000" stroke="#000000" opacity="0"></path></g><g transform="matrix(381,0,0,381,253526.6436,157543.1698)"></g></g></g></g></g></g><g id="editor-g2bacfcb283b_0_190"><g><g></g><g><path stroke="#000000" stroke-opacity="1" stroke-width="508" stroke-linecap="butt" stroke-linejoin="round" stroke-miterlimit="8" d="M 263507.2252 137796.7738 L 243724.11731666932 127234.6941313379"></path><path fill="#000000" fill-opacity="1" stroke="#000000" stroke-opacity="1" stroke-width="508" stroke-linecap="butt" stroke-linejoin="miter" stroke-miterlimit="10" d="M 244190.08582130342 126361.92044598488 L 241326.3874118533 125954.56087684864 243258.14881203522 128107.46781669093 Z"></path></g><g><path stroke="#000" stroke-opacity="0" stroke-width="14400" stroke-linecap="round" stroke-linejoin="round" stroke-miterlimit="10" pointer-events="visiblePainted" d="M 263507.2252 137796.7738 L 243724.11731666932 127234.6941313379"></path></g></g></g><g id="editor-g2bacfcb283b_0_191"><g><g></g><g><path stroke="#000000" stroke-opacity="1" stroke-width="508" stroke-linecap="butt" stroke-linejoin="round" stroke-miterlimit="8" d="M 217886.8409 137796.7738 L 237623.37567622634 127237.36393552083"></path><path fill="#000000" fill-opacity="1" stroke="#000000" stroke-opacity="1" stroke-width="508" stroke-linecap="butt" stroke-linejoin="miter" stroke-miterlimit="10" d="M 238090.10743575078 128109.72969471067 L 240019.98490476987 125955.13382693725 237156.6439167019 126364.99817633099 Z"></path></g><g><path stroke="#000" stroke-opacity="0" stroke-width="14400" stroke-linecap="round" stroke-linejoin="round" stroke-miterlimit="10" pointer-events="visiblePainted" d="M 217886.8409 137796.7738 L 237623.37567622634 127237.36393552083"></path></g></g></g><g id="editor-g2bacfcb283b_0_201"><g><g></g><g><g><path stroke="#0075FF" stroke-opacity="1" stroke-width="762" stroke-linecap="butt" stroke-linejoin="round" stroke-miterlimit="8" d="M 181320.9524 46706.2294 C 185828.3477742382 46706.2294 189629.79199890696 50063.8368762137 190186.53833160864 54536.71587980044 190743.2846643103 59009.59488338717 187880.93717082724 63196.655067352156 183511.07864580728 64301.620917962115 179141.22012078733 65406.58676857207 174632.6706445923 63083.3373677769 172996.40831374447 58883.425625328935 172178.27714832057 56783.46975410495 172206.35399620628 54543.2447306071 172934.6688186408 52560.19633312794 L 174444.75281558285 49980.758933138844"></path><path fill="#0075FF" fill-opacity="1" stroke="#0075FF" stroke-opacity="1" stroke-width="762" stroke-linecap="butt" stroke-linejoin="miter" stroke-miterlimit="10" d="M 174985.56379085538 50626.961563897275 L 176220.0347682159 48495.01449557693 173903.94184031032 49334.55630238041 Z"></path></g></g><g><path fill="#000" fill-opacity="0" pointer-events="visiblePainted" d="M 181320.9524 46706.2294 C 185828.3477742382 46706.2294 189629.79199890696 50063.8368762137 190186.53833160864 54536.71587980044 190743.2846643103 59009.59488338717 187880.93717082724 63196.655067352156 183511.07864580728 64301.620917962115 179141.22012078733 65406.58676857207 174632.6706445923 63083.3373677769 172996.40831374447 58883.425625328935 171360.14598289665 54683.51388288097 173108.7157052873 49922.52553133752 177074.35717083025 47780.026797039136 L 179691.0469779255 52623.36856212946"></path><path stroke="#000" stroke-opacity="0" stroke-width="14400" stroke-linecap="round" stroke-linejoin="round" stroke-miterlimit="10" pointer-events="visiblePainted" d="M 181320.9524 46706.2294 C 185828.3477742382 46706.2294 189629.79199890696 50063.8368762137 190186.53833160864 54536.71587980044 190743.2846643103 59009.59488338717 187880.93717082724 63196.655067352156 183511.07864580728 64301.620917962115 179141.22012078733 65406.58676857207 174632.6706445923 63083.3373677769 172996.40831374447 58883.425625328935 172178.27714832057 56783.46975410495 172206.35399620628 54543.2447306071 172934.6688186408 52560.19633312794 L 174444.75281558285 49980.758933138844"></path></g></g></g></g></g></svg>